<ttFont>
    <TTGlyph name="A" xMin="80" yMin="-57" xMax="1716" yMax="1518">
      <contour>
        <pt x="1319" y="1272" on="1"/>
        <pt x="1346" y="1272" on="0"/>
        <pt x="1346" y="1239" on="1"/>
        <pt x="1346" y="1227" on="0"/>
        <pt x="1343" y="1223" on="1"/>
        <pt x="1255" y="987" on="0"/>
        <pt x="1130" y="329" on="1"/>
        <pt x="1105" y="198" on="0"/>
        <pt x="1134" y="174" on="1"/>
        <pt x="1143" y="166" on="0"/>
        <pt x="1157" y="166" on="1"/>
        <pt x="1211" y="166" on="0"/>
        <pt x="1253" y="198" on="1"/>
        <pt x="1320" y="249" on="0"/>
        <pt x="1513" y="442" on="1"/>
        <pt x="1513" y="330" on="1"/>
        <pt x="1483" y="299" on="0"/>
        <pt x="1384" y="192" on="0"/>
        <pt x="1329" y="134" on="0"/>
        <pt x="1247" y="53" on="0"/>
        <pt x="1189" y="8" on="0"/>
        <pt x="1154" y="-15" on="1"/>
        <pt x="1090" y="-57" on="0"/>
        <pt x="978" y="-57" on="0"/>
        <pt x="949" y="-36" on="1"/>
        <pt x="891" y="4" on="0"/>
        <pt x="891" y="135" on="1"/>
        <pt x="891" y="164" on="0"/>
        <pt x="895" y="193" on="1"/>
        <pt x="787" y="81" on="0"/>
        <pt x="527" y="-57" on="0"/>
        <pt x="422" y="-57" on="1"/>
        <pt x="244" y="-57" on="0"/>
        <pt x="80" y="136" on="0"/>
        <pt x="80" y="328" on="1"/>
        <pt x="80" y="466" on="0"/>
        <pt x="183" y="759" on="0"/>
        <pt x="359" y="1019" on="0"/>
        <pt x="601" y="1252" on="0"/>
        <pt x="736" y="1336" on="1"/>
        <pt x="1028" y="1518" on="0"/>
        <pt x="1313" y="1518" on="1"/>
        <pt x="1414" y="1518" on="0"/>
        <pt x="1518" y="1486" on="1"/>
        <pt x="1716" y="1426" on="0"/>
        <pt x="1716" y="1321" on="1"/>
        <pt x="1716" y="1279" on="0"/>
        <pt x="1589" y="1163" on="0"/>
        <pt x="1544" y="1151" on="1"/>
        <pt x="1486" y="1421" on="0"/>
        <pt x="1253" y="1421" on="1"/>
        <pt x="1075" y="1421" on="0"/>
        <pt x="854" y="1268" on="1"/>
        <pt x="643" y="1122" on="0"/>
        <pt x="494" y="903" on="1"/>
        <pt x="338" y="672" on="0"/>
        <pt x="338" y="463" on="1"/>
        <pt x="338" y="304" on="0"/>
        <pt x="491" y="135" on="0"/>
        <pt x="625" y="135" on="1"/>
        <pt x="714" y="135" on="0"/>
        <pt x="898" y="282" on="0"/>
        <pt x="939" y="498" on="0"/>
        <pt x="1088" y="1138" on="0"/>
        <pt x="1131" y="1272" on="0"/>
      </contour>
    </TTGlyph>
    <TTGlyph name="AE" xMin="80" yMin="-57" xMax="2044" yMax="1518">
      <contour>
        <pt x="1092" y="240" on="1"/>
        <pt x="1149" y="238" on="1"/>
        <pt x="1174" y="238" on="0"/>
        <pt x="1186" y="240" on="1"/>
        <pt x="1193" y="238" on="0"/>
        <pt x="1280" y="205" on="1"/>
        <pt x="1505" y="119" on="0"/>
        <pt x="1554" y="119" on="1"/>
        <pt x="1648" y="119" on="0"/>
        <pt x="1842" y="287" on="1"/>
        <pt x="1916" y="351" on="0"/>
        <pt x="1999" y="438" on="1"/>
        <pt x="1999" y="328" on="1"/>
        <pt x="1968" y="300" on="0"/>
        <pt x="1854" y="197" on="0"/>
        <pt x="1800" y="149" on="0"/>
        <pt x="1705" y="70" on="0"/>
        <pt x="1648" y="33" on="0"/>
        <pt x="1563" y="-18" on="0"/>
        <pt x="1529" y="-29" on="1"/>
        <pt x="1442" y="-57" on="0"/>
        <pt x="1368" y="-57" on="1"/>
        <pt x="1363" y="-57" on="0"/>
        <pt x="1335" y="-41" on="0"/>
        <pt x="1304" y="-25" on="0"/>
        <pt x="1238" y="2" on="0"/>
        <pt x="1194" y="18" on="1"/>
        <pt x="1109" y="51" on="0"/>
        <pt x="918" y="109" on="1"/>
        <pt x="897" y="195" on="1"/>
        <pt x="784" y="83" on="0"/>
        <pt x="524" y="-57" on="0"/>
        <pt x="422" y="-57" on="1"/>
        <pt x="244" y="-57" on="0"/>
        <pt x="80" y="136" on="0"/>
        <pt x="80" y="328" on="1"/>
        <pt x="80" y="610" on="0"/>
        <pt x="265" y="889" on="1"/>
        <pt x="445" y="1160" on="0"/>
        <pt x="750" y="1336" on="1"/>
        <pt x="1066" y="1518" on="0"/>
        <pt x="1423" y="1518" on="1"/>
        <pt x="2044" y="1518" on="0"/>
        <pt x="2044" y="1491" on="1"/>
        <pt x="2044" y="1479" on="0"/>
        <pt x="2025" y="1460" on="1"/>
        <pt x="1925" y="1346" on="1"/>
        <pt x="1873" y="1311" on="0"/>
        <pt x="1768" y="1311" on="0"/>
        <pt x="1499" y="1353" on="0"/>
        <pt x="1438" y="1356" on="1"/>
        <pt x="1430" y="1329" on="0"/>
        <pt x="1322" y="913" on="0"/>
        <pt x="1284" y="795" on="1"/>
        <pt x="1414" y="805" on="0"/>
        <pt x="1630" y="805" on="0"/>
        <pt x="1747" y="799" on="1"/>
        <pt x="1784" y="799" on="0"/>
        <pt x="1784" y="736" on="0"/>
        <pt x="1721" y="670" on="0"/>
        <pt x="1683" y="670" on="1"/>
        <pt x="1389" y="670" on="0"/>
        <pt x="1249" y="659" on="1"/>
        <pt x="1249" y="657" on="1"/>
        <pt x="1196" y="464" on="0"/>
        <pt x="1059" y="238" on="1"/>
      </contour>
      <contour>
        <pt x="989" y="631" on="1"/>
        <pt x="897" y="618" on="0"/>
        <pt x="799" y="594" on="1"/>
        <pt x="750" y="594" on="0"/>
        <pt x="750" y="637" on="1"/>
        <pt x="750" y="686" on="0"/>
        <pt x="809" y="709" on="1"/>
        <pt x="864" y="730" on="0"/>
        <pt x="1007" y="756" on="0"/>
        <pt x="1026" y="760" on="1"/>
        <pt x="1141" y="1165" on="0"/>
        <pt x="1212" y="1262" on="1"/>
        <pt x="1249" y="1314" on="0"/>
        <pt x="1317" y="1360" on="1"/>
        <pt x="1358" y="1421" on="1"/>
        <pt x="1128" y="1419" on="0"/>
        <pt x="885" y="1266" on="1"/>
        <pt x="650" y="1118" on="0"/>
        <pt x="498" y="901" on="1"/>
        <pt x="338" y="673" on="0"/>
        <pt x="338" y="463" on="1"/>
        <pt x="338" y="304" on="0"/>
        <pt x="491" y="135" on="0"/>
        <pt x="625" y="135" on="1"/>
        <pt x="684" y="135" on="0"/>
        <pt x="825" y="215" on="0"/>
        <pt x="877" y="276" on="1"/>
        <pt x="877" y="279" on="1"/>
        <pt x="902" y="317" on="0"/>
      </contour>
    </TTGlyph>
    <TTGlyph name="Aacute" xMin="80" yMin="-57" xMax="1716" yMax="1962">
      <contour>
        <pt x="1319" y="1272" on="1"/>
        <pt x="1346" y="1272" on="0"/>
        <pt x="1346" y="1239" on="1"/>
        <pt x="1346" y="1227" on="0"/>
        <pt x="1343" y="1223" on="1"/>
        <pt x="1255" y="987" on="0"/>
        <pt x="1130" y="329" on="1"/>
        <pt x="1105" y="198" on="0"/>
        <pt x="1134" y="174" on="1"/>
        <pt x="1143" y="166" on="0"/>
        <pt x="1157" y="166" on="1"/>
        <pt x="1211" y="166" on="0"/>
        <pt x="1253" y="198" on="1"/>
        <pt x="1320" y="249" on="0"/>
        <pt x="1513" y="442" on="1"/>
        <pt x="1513" y="330" on="1"/>
        <pt x="1483" y="299" on="0"/>
        <pt x="1384" y="192" on="0"/>
        <pt x="1329" y="134" on="0"/>
        <pt x="1247" y="53" on="0"/>
        <pt x="1189" y="8" on="0"/>
        <pt x="1154" y="-15" on="1"/>
        <pt x="1090" y="-57" on="0"/>
        <pt x="978" y="-57" on="0"/>
        <pt x="949" y="-36" on="1"/>
        <pt x="891" y="4" on="0"/>
        <pt x="891" y="135" on="1"/>
        <pt x="891" y="164" on="0"/>
        <pt x="895" y="193" on="1"/>
        <pt x="787" y="81" on="0"/>
        <pt x="527" y="-57" on="0"/>
        <pt x="422" y="-57" on="1"/>
        <pt x="244" y="-57" on="0"/>
        <pt x="80" y="136" on="0"/>
        <pt x="80" y="328" on="1"/>
        <pt x="80" y="466" on="0"/>
        <pt x="183" y="759" on="0"/>
        <pt x="359" y="1019" on="0"/>
        <pt x="601" y="1252" on="0"/>
        <pt x="736" y="1336" on="1"/>
        <pt x="1028" y="1518" on="0"/>
        <pt x="1313" y="1518" on="1"/>
        <pt x="1414" y="1518" on="0"/>
        <pt x="1518" y="1486" on="1"/>
        <pt x="1716" y="1426" on="0"/>
        <pt x="1716" y="1321" on="1"/>
        <pt x="1716" y="1279" on="0"/>
        <pt x="1589" y="1163" on="0"/>
        <pt x="1544" y="1151" on="1"/>
        <pt x="1486" y="1421" on="0"/>
        <pt x="1253" y="1421" on="1"/>
        <pt x="1075" y="1421" on="0"/>
        <pt x="854" y="1268" on="1"/>
        <pt x="643" y="1122" on="0"/>
        <pt x="494" y="903" on="1"/>
        <pt x="338" y="672" on="0"/>
        <pt x="338" y="463" on="1"/>
        <pt x="338" y="304" on="0"/>
        <pt x="491" y="135" on="0"/>
        <pt x="625" y="135" on="1"/>
        <pt x="714" y="135" on="0"/>
        <pt x="898" y="282" on="0"/>
        <pt x="939" y="498" on="0"/>
        <pt x="1088" y="1138" on="0"/>
        <pt x="1131" y="1272" on="0"/>
      </contour>
      <contour>
        <pt x="1640" y="1831" on="1"/>
        <pt x="1552" y="1796" on="1"/>
        <pt x="1441" y="1752" on="0"/>
        <pt x="1155" y="1653" on="1"/>
        <pt x="1132" y="1708" on="1"/>
        <pt x="1220" y="1789" on="0"/>
        <pt x="1478" y="1958" on="0"/>
        <pt x="1552" y="1962" on="1"/>
        <pt x="1586" y="1962" on="0"/>
        <pt x="1659" y="1890" on="0"/>
        <pt x="1659" y="1836" on="0"/>
      </contour>
    </TTGlyph>
    <TTGlyph name="Acircumflex" xMin="80" yMin="-57" xMax="1716" yMax="2095">
      <component glyphName="A" x="0" y="0" flags="0x1004"/>
      <component glyphName="circumflex" x="260" y="713" flags="0x1004"/>
    </TTGlyph>
    <TTGlyph name="Adieresis" xMin="80" yMin="-57" xMax="1729" yMax="1898">
      <component glyphName="A" x="0" y="0" flags="0x1004"/>
      <component glyphName="dieresis" x="625" y="678" flags="0x1004"/>
    </TTGlyph>
    <TTGlyph name="Agrave" xMin="80" yMin="-57" xMax="1716" yMax="1962">
      <component glyphName="A" x="0" y="0" flags="0x1004"/>
      <component glyphName="grave" x="260" y="713" flags="0x1004"/>
    </TTGlyph>
    <TTGlyph name="Aring" xMin="80" yMin="-57" xMax="1716" yMax="1999">
      <contour>
        <pt x="1319" y="1272" on="1"/>
        <pt x="1346" y="1272" on="0"/>
        <pt x="1346" y="1239" on="1"/>
        <pt x="1346" y="1227" on="0"/>
        <pt x="1343" y="1223" on="1"/>
        <pt x="1255" y="987" on="0"/>
        <pt x="1130" y="329" on="1"/>
        <pt x="1105" y="198" on="0"/>
        <pt x="1134" y="174" on="1"/>
        <pt x="1143" y="166" on="0"/>
        <pt x="1157" y="166" on="1"/>
        <pt x="1211" y="166" on="0"/>
        <pt x="1253" y="198" on="1"/>
        <pt x="1320" y="249" on="0"/>
        <pt x="1513" y="442" on="1"/>
        <pt x="1513" y="330" on="1"/>
        <pt x="1483" y="299" on="0"/>
        <pt x="1384" y="192" on="0"/>
        <pt x="1329" y="134" on="0"/>
        <pt x="1247" y="53" on="0"/>
        <pt x="1189" y="8" on="0"/>
        <pt x="1154" y="-15" on="1"/>
        <pt x="1090" y="-57" on="0"/>
        <pt x="978" y="-57" on="0"/>
        <pt x="949" y="-36" on="1"/>
        <pt x="891" y="4" on="0"/>
        <pt x="891" y="135" on="1"/>
        <pt x="891" y="164" on="0"/>
        <pt x="895" y="193" on="1"/>
        <pt x="787" y="81" on="0"/>
        <pt x="527" y="-57" on="0"/>
        <pt x="422" y="-57" on="1"/>
        <pt x="244" y="-57" on="0"/>
        <pt x="80" y="136" on="0"/>
        <pt x="80" y="328" on="1"/>
        <pt x="80" y="466" on="0"/>
        <pt x="183" y="759" on="0"/>
        <pt x="359" y="1019" on="0"/>
        <pt x="601" y="1252" on="0"/>
        <pt x="736" y="1336" on="1"/>
        <pt x="1028" y="1518" on="0"/>
        <pt x="1313" y="1518" on="1"/>
        <pt x="1414" y="1518" on="0"/>
        <pt x="1518" y="1486" on="1"/>
        <pt x="1716" y="1426" on="0"/>
        <pt x="1716" y="1321" on="1"/>
        <pt x="1716" y="1279" on="0"/>
        <pt x="1589" y="1163" on="0"/>
        <pt x="1544" y="1151" on="1"/>
        <pt x="1486" y="1421" on="0"/>
        <pt x="1253" y="1421" on="1"/>
        <pt x="1075" y="1421" on="0"/>
        <pt x="854" y="1268" on="1"/>
        <pt x="643" y="1122" on="0"/>
        <pt x="494" y="903" on="1"/>
        <pt x="338" y="672" on="0"/>
        <pt x="338" y="463" on="1"/>
        <pt x="338" y="304" on="0"/>
        <pt x="491" y="135" on="0"/>
        <pt x="625" y="135" on="1"/>
        <pt x="714" y="135" on="0"/>
        <pt x="898" y="282" on="0"/>
        <pt x="939" y="498" on="0"/>
        <pt x="1088" y="1138" on="0"/>
        <pt x="1131" y="1272" on="0"/>
      </contour>
      <contour>
        <pt x="1471" y="1835" on="1"/>
        <pt x="1471" y="1932" on="0"/>
        <pt x="1381" y="1932" on="1"/>
        <pt x="1329" y="1932" on="0"/>
        <pt x="1268" y="1855" on="0"/>
        <pt x="1268" y="1810" on="1"/>
        <pt x="1268" y="1710" on="0"/>
        <pt x="1354" y="1710" on="1"/>
        <pt x="1406" y="1710" on="0"/>
        <pt x="1471" y="1787" on="0"/>
      </contour>
      <contour>
        <pt x="1460" y="1999" on="0"/>
        <pt x="1545" y="1905" on="0"/>
        <pt x="1545" y="1751" on="0"/>
        <pt x="1428" y="1643" on="0"/>
        <pt x="1285" y="1643" on="0"/>
        <pt x="1190" y="1725" on="0"/>
        <pt x="1190" y="1881" on="0"/>
        <pt x="1294" y="1999" on="0"/>
      </contour>
    </TTGlyph>
    <TTGlyph name="Atilde" xMin="80" yMin="-57" xMax="1716" yMax="1901">
      <component glyphName="A" x="0" y="0" flags="0x1004"/>
      <component glyphName="tilde" x="782" y="713" flags="0x1004"/>
    </TTGlyph>
    <TTGlyph name="B" xMin="14" yMin="-57" xMax="1577" yMax="1518">
      <contour>
        <pt x="211" y="303" on="1"/>
        <pt x="209" y="213" on="1"/>
        <pt x="209" y="115" on="0"/>
        <pt x="235" y="78" on="1"/>
        <pt x="262" y="41" on="0"/>
        <pt x="363" y="41" on="0"/>
        <pt x="440" y="96" on="0"/>
        <pt x="497" y="195" on="0"/>
        <pt x="541" y="303" on="0"/>
        <pt x="558" y="372" on="1"/>
        <pt x="582" y="465" on="0"/>
        <pt x="610" y="616" on="0"/>
        <pt x="612" y="625" on="1"/>
        <pt x="719" y="1192" on="1"/>
        <pt x="728" y="1249" on="0"/>
        <pt x="948" y="1249" on="1"/>
        <pt x="918" y="1020" on="0"/>
        <pt x="881" y="889" on="1"/>
        <pt x="881" y="885" on="0"/>
        <pt x="844" y="709" on="1"/>
        <pt x="774" y="370" on="0"/>
        <pt x="735" y="266" on="1"/>
        <pt x="764" y="186" on="0"/>
        <pt x="934" y="78" on="0"/>
        <pt x="1161" y="78" on="0"/>
        <pt x="1292" y="234" on="0"/>
        <pt x="1292" y="464" on="0"/>
        <pt x="1162" y="699" on="0"/>
        <pt x="1059" y="756" on="1"/>
        <pt x="1059" y="872" on="1"/>
        <pt x="1195" y="879" on="0"/>
        <pt x="1368" y="1007" on="0"/>
        <pt x="1368" y="1106" on="1"/>
        <pt x="1368" y="1391" on="0"/>
        <pt x="893" y="1391" on="1"/>
        <pt x="738" y="1391" on="0"/>
        <pt x="581" y="1322" on="1"/>
        <pt x="403" y="1245" on="0"/>
        <pt x="334" y="1135" on="1"/>
        <pt x="295" y="1072" on="0"/>
        <pt x="295" y="1004" on="1"/>
        <pt x="295" y="891" on="0"/>
        <pt x="457" y="834" on="1"/>
        <pt x="457" y="745" on="0"/>
        <pt x="434" y="668" on="1"/>
        <pt x="322" y="703" on="0"/>
        <pt x="232" y="780" on="1"/>
        <pt x="133" y="867" on="0"/>
        <pt x="133" y="1103" on="0"/>
        <pt x="275" y="1305" on="0"/>
        <pt x="392" y="1373" on="1"/>
        <pt x="643" y="1518" on="0"/>
        <pt x="977" y="1518" on="1"/>
        <pt x="1275" y="1518" on="0"/>
        <pt x="1432" y="1383" on="1"/>
        <pt x="1546" y="1286" on="0"/>
        <pt x="1546" y="1126" on="1"/>
        <pt x="1546" y="1048" on="0"/>
        <pt x="1478" y="934" on="0"/>
        <pt x="1440" y="901" on="1"/>
        <pt x="1354" y="825" on="0"/>
        <pt x="1196" y="823" on="1"/>
        <pt x="1388" y="725" on="0"/>
        <pt x="1577" y="459" on="0"/>
        <pt x="1577" y="233" on="0"/>
        <pt x="1499" y="84" on="0"/>
        <pt x="1432" y="38" on="1"/>
        <pt x="1296" y="-57" on="0"/>
        <pt x="941" y="-57" on="0"/>
        <pt x="738" y="48" on="0"/>
        <pt x="674" y="156" on="1"/>
        <pt x="580" y="35" on="0"/>
        <pt x="405" y="-57" on="0"/>
        <pt x="301" y="-57" on="1"/>
        <pt x="202" y="-57" on="0"/>
        <pt x="112" y="-2" on="1"/>
        <pt x="69" y="24" on="0"/>
        <pt x="14" y="116" on="0"/>
        <pt x="14" y="172" on="1"/>
        <pt x="14" y="303" on="0"/>
      </contour>
    </TTGlyph>
    <TTGlyph name="C" xMin="82" yMin="-57" xMax="1403" yMax="1518">
      <contour>
        <pt x="1096" y="1149" on="1"/>
        <pt x="1042" y="1417" on="0"/>
        <pt x="926" y="1417" on="1"/>
        <pt x="816" y="1413" on="0"/>
        <pt x="615" y="1319" on="0"/>
        <pt x="465" y="1167" on="0"/>
        <pt x="410" y="1071" on="1"/>
        <pt x="297" y="876" on="0"/>
        <pt x="297" y="398" on="0"/>
        <pt x="538" y="125" on="0"/>
        <pt x="735" y="125" on="1"/>
        <pt x="890" y="125" on="0"/>
        <pt x="1238" y="292" on="0"/>
        <pt x="1403" y="451" on="1"/>
        <pt x="1403" y="340" on="1"/>
        <pt x="983" y="-57" on="0"/>
        <pt x="616" y="-57" on="1"/>
        <pt x="308" y="-57" on="0"/>
        <pt x="164" y="210" on="1"/>
        <pt x="82" y="365" on="0"/>
        <pt x="82" y="561" on="1"/>
        <pt x="82" y="842" on="0"/>
        <pt x="237" y="1104" on="1"/>
        <pt x="342" y="1283" on="0"/>
        <pt x="521" y="1398" on="1"/>
        <pt x="707" y="1518" on="0"/>
        <pt x="956" y="1518" on="1"/>
        <pt x="1105" y="1518" on="0"/>
        <pt x="1315" y="1312" on="0"/>
        <pt x="1315" y="1178" on="1"/>
        <pt x="1315" y="1120" on="0"/>
        <pt x="1225" y="1075" on="0"/>
        <pt x="1048" y="978" on="1"/>
        <pt x="800" y="840" on="0"/>
        <pt x="780" y="840" on="1"/>
        <pt x="741" y="840" on="0"/>
        <pt x="741" y="881" on="1"/>
        <pt x="741" y="930" on="0"/>
        <pt x="918" y="1007" on="1"/>
        <pt x="985" y="1036" on="0"/>
        <pt x="1096" y="1114" on="0"/>
      </contour>
    </TTGlyph>
    <TTGlyph name="Ccedilla" xMin="82" yMin="-492" xMax="1403" yMax="1518">
      <contour>
        <pt x="926" y="1417" on="1"/>
        <pt x="1042" y="1417" on="0"/>
        <pt x="1096" y="1149" on="1"/>
        <pt x="1096" y="1114" on="0"/>
        <pt x="985" y="1036" on="0"/>
        <pt x="918" y="1007" on="1"/>
        <pt x="741" y="930" on="0"/>
        <pt x="741" y="881" on="1"/>
        <pt x="741" y="864" on="0"/>
        <pt x="760" y="840" on="0"/>
        <pt x="787" y="840" on="0"/>
        <pt x="872" y="880" on="0"/>
        <pt x="1225" y="1075" on="0"/>
        <pt x="1315" y="1120" on="0"/>
        <pt x="1315" y="1178" on="1"/>
        <pt x="1315" y="1312" on="0"/>
        <pt x="1105" y="1518" on="0"/>
        <pt x="832" y="1518" on="0"/>
        <pt x="608" y="1454" on="0"/>
        <pt x="434" y="1342" on="0"/>
        <pt x="288" y="1191" on="0"/>
        <pt x="186" y="1018" on="0"/>
        <pt x="150" y="924" on="1"/>
        <pt x="82" y="744" on="0"/>
        <pt x="82" y="561" on="1"/>
        <pt x="82" y="365" on="0"/>
        <pt x="164" y="210" on="1"/>
        <pt x="308" y="-57" on="0"/>
        <pt x="616" y="-57" on="1"/>
        <pt x="983" y="-57" on="0"/>
        <pt x="1403" y="340" on="1"/>
        <pt x="1403" y="451" on="1"/>
        <pt x="1238" y="292" on="0"/>
        <pt x="890" y="125" on="0"/>
        <pt x="735" y="125" on="1"/>
        <pt x="538" y="125" on="0"/>
        <pt x="297" y="398" on="0"/>
        <pt x="297" y="659" on="1"/>
        <pt x="297" y="876" on="0"/>
        <pt x="410" y="1071" on="1"/>
        <pt x="530" y="1279" on="0"/>
        <pt x="716" y="1366" on="1"/>
        <pt x="816" y="1413" on="0"/>
      </contour>
      <contour>
        <pt x="616" y="0" on="1"/>
        <pt x="721" y="0" on="0"/>
        <pt x="721" y="-117" on="1"/>
        <pt x="721" y="-196" on="0"/>
        <pt x="681" y="-290" on="1"/>
        <pt x="605" y="-468" on="0"/>
        <pt x="487" y="-492" on="1"/>
        <pt x="471" y="-430" on="1"/>
        <pt x="524" y="-377" on="0"/>
        <pt x="546" y="-268" on="1"/>
        <pt x="555" y="-223" on="0"/>
        <pt x="555" y="-174" on="1"/>
        <pt x="517" y="-163" on="0"/>
        <pt x="477" y="-116" on="0"/>
        <pt x="477" y="-54" on="0"/>
        <pt x="551" y="0" on="0"/>
      </contour>
    </TTGlyph>
    <TTGlyph name="Ccircumflex" xMin="82" yMin="-57" xMax="1403" yMax="2095">
      <component glyphName="C" x="0" y="0" flags="0x1004"/>
      <component glyphName="circumflex" x="-98" y="713" flags="0x1004"/>
    </TTGlyph>
    <TTGlyph name="D" xMin="-53" yMin="-57" xMax="1683" yMax="1518">
      <contour>
        <pt x="152" y="326" on="1"/>
        <pt x="145" y="221" on="1"/>
        <pt x="145" y="139" on="0"/>
        <pt x="196" y="41" on="0"/>
        <pt x="264" y="41" on="1"/>
        <pt x="303" y="41" on="0"/>
        <pt x="375" y="94" on="0"/>
        <pt x="397" y="143" on="1"/>
        <pt x="471" y="295" on="0"/>
        <pt x="543" y="594" on="1"/>
        <pt x="662" y="1208" on="1"/>
        <pt x="675" y="1247" on="0"/>
        <pt x="791" y="1247" on="1"/>
        <pt x="885" y="1247" on="1"/>
        <pt x="872" y="1173" on="0"/>
        <pt x="830" y="862" on="0"/>
        <pt x="799" y="672" on="0"/>
        <pt x="716" y="390" on="0"/>
        <pt x="655" y="264" on="1"/>
        <pt x="684" y="176" on="0"/>
        <pt x="852" y="59" on="0"/>
        <pt x="1031" y="59" on="0"/>
        <pt x="1204" y="160" on="0"/>
        <pt x="1341" y="336" on="0"/>
        <pt x="1425" y="600" on="0"/>
        <pt x="1425" y="857" on="0"/>
        <pt x="1384" y="1043" on="0"/>
        <pt x="1293" y="1207" on="0"/>
        <pt x="1226" y="1266" on="1"/>
        <pt x="1082" y="1393" on="0"/>
        <pt x="840" y="1393" on="1"/>
        <pt x="695" y="1393" on="0"/>
        <pt x="408" y="1277" on="0"/>
        <pt x="229" y="1099" on="0"/>
        <pt x="229" y="1014" on="1"/>
        <pt x="229" y="897" on="0"/>
        <pt x="393" y="834" on="1"/>
        <pt x="393" y="788" on="0"/>
        <pt x="375" y="687" on="0"/>
        <pt x="367" y="672" on="1"/>
        <pt x="218" y="719" on="0"/>
        <pt x="68" y="894" on="0"/>
        <pt x="68" y="1075" on="0"/>
        <pt x="134" y="1220" on="0"/>
        <pt x="279" y="1355" on="0"/>
        <pt x="382" y="1406" on="1"/>
        <pt x="610" y="1518" on="0"/>
        <pt x="971" y="1518" on="1"/>
        <pt x="1115" y="1518" on="0"/>
        <pt x="1356" y="1434" on="0"/>
        <pt x="1518" y="1296" on="0"/>
        <pt x="1575" y="1206" on="1"/>
        <pt x="1683" y="1034" on="0"/>
        <pt x="1683" y="649" on="0"/>
        <pt x="1570" y="322" on="0"/>
        <pt x="1377" y="84" on="0"/>
        <pt x="1104" y="-57" on="0"/>
        <pt x="950" y="-57" on="1"/>
        <pt x="722" y="-57" on="0"/>
        <pt x="584" y="133" on="1"/>
        <pt x="506" y="21" on="0"/>
        <pt x="326" y="-55" on="0"/>
        <pt x="96" y="-55" on="0"/>
        <pt x="-53" y="96" on="0"/>
        <pt x="-53" y="184" on="1"/>
        <pt x="-53" y="326" on="0"/>
      </contour>
    </TTGlyph>
    <TTGlyph name="DZ" xMin="-53" yMin="-57" xMax="2935" yMax="1518">
      <contour>
        <pt x="2005" y="117" on="1"/>
        <pt x="1780" y="-29" on="0"/>
        <pt x="1642" y="-29" on="1"/>
        <pt x="1621" y="-29" on="0"/>
        <pt x="1592" y="-16" on="1"/>
        <pt x="1534" y="11" on="0"/>
        <pt x="1534" y="72" on="1"/>
        <pt x="1534" y="105" on="0"/>
        <pt x="1560" y="136" on="1"/>
        <pt x="1597" y="179" on="0"/>
        <pt x="1667" y="211" on="1"/>
        <pt x="1915" y="322" on="1"/>
        <pt x="1920" y="329" on="0"/>
        <pt x="1985" y="414" on="0"/>
        <pt x="2016" y="457" on="0"/>
        <pt x="2046" y="497" on="1"/>
        <pt x="2090" y="558" on="0"/>
        <pt x="2152" y="655" on="1"/>
        <pt x="2599" y="1376" on="1"/>
        <pt x="2463" y="1393" on="0"/>
        <pt x="2151" y="1393" on="0"/>
        <pt x="1874" y="1315" on="0"/>
        <pt x="1874" y="1280" on="1"/>
        <pt x="1874" y="1153" on="0"/>
        <pt x="1935" y="1100" on="1"/>
        <pt x="1935" y="1078" on="0"/>
        <pt x="1868" y="1061" on="1"/>
        <pt x="1750" y="1105" on="0"/>
        <pt x="1630" y="1270" on="0"/>
        <pt x="1630" y="1370" on="1"/>
        <pt x="1630" y="1451" on="0"/>
        <pt x="1946" y="1494" on="1"/>
        <pt x="2115" y="1518" on="0"/>
        <pt x="2469" y="1518" on="0"/>
        <pt x="2810" y="1483" on="0"/>
        <pt x="2836" y="1481" on="1"/>
        <pt x="2879" y="1384" on="1"/>
        <pt x="2842" y="1327" on="0"/>
        <pt x="2655" y="1004" on="0"/>
        <pt x="2490" y="728" on="0"/>
        <pt x="2244" y="381" on="0"/>
        <pt x="2130" y="260" on="1"/>
        <pt x="2142" y="256" on="0"/>
        <pt x="2239" y="227" on="0"/>
        <pt x="2306" y="206" on="0"/>
        <pt x="2414" y="174" on="0"/>
        <pt x="2495" y="152" on="0"/>
        <pt x="2538" y="141" on="1"/>
        <pt x="2626" y="119" on="0"/>
        <pt x="2697" y="119" on="0"/>
        <pt x="2746" y="145" on="1"/>
        <pt x="2762" y="150" on="0"/>
        <pt x="2889" y="229" on="0"/>
        <pt x="2935" y="268" on="1"/>
        <pt x="2935" y="168" on="1"/>
        <pt x="2893" y="144" on="0"/>
        <pt x="2691" y="5" on="0"/>
        <pt x="2552" y="-57" on="0"/>
        <pt x="2476" y="-57" on="1"/>
        <pt x="2471" y="-57" on="0"/>
        <pt x="2455" y="-49" on="0"/>
        <pt x="2438" y="-41" on="0"/>
        <pt x="2404" y="-26" on="0"/>
        <pt x="2360" y="-8" on="0"/>
        <pt x="2289" y="19" on="0"/>
        <pt x="2246" y="34" on="1"/>
        <pt x="2143" y="72" on="0"/>
      </contour>
      <contour>
        <pt x="152" y="326" on="1"/>
        <pt x="145" y="221" on="1"/>
        <pt x="145" y="139" on="0"/>
        <pt x="196" y="41" on="0"/>
        <pt x="264" y="41" on="1"/>
        <pt x="303" y="41" on="0"/>
        <pt x="375" y="94" on="0"/>
        <pt x="397" y="143" on="1"/>
        <pt x="471" y="295" on="0"/>
        <pt x="543" y="594" on="1"/>
        <pt x="662" y="1208" on="1"/>
        <pt x="675" y="1247" on="0"/>
        <pt x="791" y="1247" on="1"/>
        <pt x="885" y="1247" on="1"/>
        <pt x="872" y="1173" on="0"/>
        <pt x="830" y="862" on="0"/>
        <pt x="799" y="672" on="0"/>
        <pt x="716" y="390" on="0"/>
        <pt x="655" y="264" on="1"/>
        <pt x="684" y="176" on="0"/>
        <pt x="852" y="59" on="0"/>
        <pt x="1031" y="59" on="0"/>
        <pt x="1204" y="160" on="0"/>
        <pt x="1341" y="336" on="0"/>
        <pt x="1425" y="600" on="0"/>
        <pt x="1425" y="857" on="0"/>
        <pt x="1384" y="1043" on="0"/>
        <pt x="1293" y="1207" on="0"/>
        <pt x="1226" y="1266" on="1"/>
        <pt x="1082" y="1393" on="0"/>
        <pt x="840" y="1393" on="1"/>
        <pt x="695" y="1393" on="0"/>
        <pt x="408" y="1277" on="0"/>
        <pt x="229" y="1099" on="0"/>
        <pt x="229" y="1014" on="1"/>
        <pt x="229" y="897" on="0"/>
        <pt x="393" y="834" on="1"/>
        <pt x="393" y="788" on="0"/>
        <pt x="375" y="687" on="0"/>
        <pt x="367" y="672" on="1"/>
        <pt x="218" y="719" on="0"/>
        <pt x="68" y="894" on="0"/>
        <pt x="68" y="1075" on="0"/>
        <pt x="134" y="1220" on="0"/>
        <pt x="279" y="1355" on="0"/>
        <pt x="382" y="1406" on="1"/>
        <pt x="610" y="1518" on="0"/>
        <pt x="971" y="1518" on="1"/>
        <pt x="1115" y="1518" on="0"/>
        <pt x="1356" y="1434" on="0"/>
        <pt x="1518" y="1296" on="0"/>
        <pt x="1575" y="1206" on="1"/>
        <pt x="1683" y="1034" on="0"/>
        <pt x="1683" y="649" on="0"/>
        <pt x="1570" y="322" on="0"/>
        <pt x="1377" y="84" on="0"/>
        <pt x="1104" y="-57" on="0"/>
        <pt x="950" y="-57" on="1"/>
        <pt x="722" y="-57" on="0"/>
        <pt x="584" y="133" on="1"/>
        <pt x="506" y="21" on="0"/>
        <pt x="326" y="-55" on="0"/>
        <pt x="96" y="-55" on="0"/>
        <pt x="-53" y="96" on="0"/>
        <pt x="-53" y="184" on="1"/>
        <pt x="-53" y="326" on="0"/>
      </contour>
    </TTGlyph>
    <TTGlyph name="Dr" xMin="-53" yMin="-57" xMax="2388" yMax="1518">
      <contour>
        <pt x="152" y="326" on="1"/>
        <pt x="145" y="221" on="1"/>
        <pt x="145" y="139" on="0"/>
        <pt x="196" y="41" on="0"/>
        <pt x="264" y="41" on="1"/>
        <pt x="303" y="41" on="0"/>
        <pt x="375" y="94" on="0"/>
        <pt x="397" y="143" on="1"/>
        <pt x="471" y="295" on="0"/>
        <pt x="543" y="594" on="1"/>
        <pt x="662" y="1208" on="1"/>
        <pt x="675" y="1247" on="0"/>
        <pt x="791" y="1247" on="1"/>
        <pt x="885" y="1247" on="1"/>
        <pt x="872" y="1173" on="0"/>
        <pt x="830" y="862" on="0"/>
        <pt x="799" y="672" on="0"/>
        <pt x="716" y="390" on="0"/>
        <pt x="655" y="264" on="1"/>
        <pt x="684" y="176" on="0"/>
        <pt x="852" y="59" on="0"/>
        <pt x="1031" y="59" on="0"/>
        <pt x="1204" y="160" on="0"/>
        <pt x="1341" y="336" on="0"/>
        <pt x="1425" y="600" on="0"/>
        <pt x="1425" y="857" on="0"/>
        <pt x="1384" y="1043" on="0"/>
        <pt x="1293" y="1207" on="0"/>
        <pt x="1226" y="1266" on="1"/>
        <pt x="1082" y="1393" on="0"/>
        <pt x="840" y="1393" on="1"/>
        <pt x="695" y="1393" on="0"/>
        <pt x="408" y="1277" on="0"/>
        <pt x="229" y="1099" on="0"/>
        <pt x="229" y="1014" on="1"/>
        <pt x="229" y="897" on="0"/>
        <pt x="393" y="834" on="1"/>
        <pt x="393" y="788" on="0"/>
        <pt x="375" y="687" on="0"/>
        <pt x="367" y="672" on="1"/>
        <pt x="218" y="719" on="0"/>
        <pt x="68" y="894" on="0"/>
        <pt x="68" y="1075" on="0"/>
        <pt x="134" y="1220" on="0"/>
        <pt x="279" y="1355" on="0"/>
        <pt x="382" y="1406" on="1"/>
        <pt x="610" y="1518" on="0"/>
        <pt x="971" y="1518" on="1"/>
        <pt x="1115" y="1518" on="0"/>
        <pt x="1356" y="1434" on="0"/>
        <pt x="1518" y="1296" on="0"/>
        <pt x="1575" y="1206" on="1"/>
        <pt x="1683" y="1034" on="0"/>
        <pt x="1683" y="829" on="1"/>
        <pt x="1683" y="564" on="0"/>
        <pt x="1565" y="342" on="1"/>
        <pt x="1929" y="641" on="1"/>
        <pt x="1807" y="672" on="0"/>
        <pt x="1770" y="740" on="1"/>
        <pt x="1763" y="754" on="0"/>
        <pt x="1763" y="764" on="1"/>
        <pt x="1763" y="834" on="0"/>
        <pt x="1870" y="940" on="0"/>
        <pt x="1958" y="940" on="1"/>
        <pt x="2003" y="940" on="0"/>
        <pt x="2003" y="887" on="1"/>
        <pt x="2003" y="856" on="0"/>
        <pt x="1967" y="783" on="0"/>
        <pt x="1942" y="770" on="1"/>
        <pt x="1987" y="729" on="0"/>
        <pt x="2099" y="729" on="1"/>
        <pt x="2220" y="743" on="1"/>
        <pt x="2249" y="743" on="0"/>
        <pt x="2249" y="729" on="1"/>
        <pt x="2249" y="715" on="0"/>
        <pt x="2180" y="572" on="1"/>
        <pt x="2021" y="248" on="0"/>
        <pt x="2021" y="182" on="1"/>
        <pt x="2021" y="166" on="1"/>
        <pt x="2021" y="137" on="0"/>
        <pt x="2072" y="137" on="0"/>
        <pt x="2338" y="373" on="0"/>
        <pt x="2388" y="440" on="1"/>
        <pt x="2388" y="328" on="1"/>
        <pt x="2031" y="-29" on="0"/>
        <pt x="1907" y="-29" on="1"/>
        <pt x="1863" y="-29" on="0"/>
        <pt x="1819" y="50" on="0"/>
        <pt x="1819" y="126" on="0"/>
        <pt x="1849" y="225" on="0"/>
        <pt x="1900" y="353" on="0"/>
        <pt x="1944" y="457" on="0"/>
        <pt x="1997" y="578" on="0"/>
        <pt x="2001" y="588" on="1"/>
        <pt x="2000" y="587" on="0"/>
        <pt x="1925" y="510" on="0"/>
        <pt x="1904" y="490" on="0"/>
        <pt x="1823" y="410" on="0"/>
        <pt x="1782" y="375" on="0"/>
        <pt x="1694" y="297" on="0"/>
        <pt x="1633" y="252" on="0"/>
        <pt x="1538" y="181" on="0"/>
        <pt x="1497" y="156" on="1"/>
        <pt x="1395" y="92" on="0"/>
        <pt x="1303" y="47" on="1"/>
        <pt x="1135" y="-57" on="0"/>
        <pt x="950" y="-57" on="1"/>
        <pt x="722" y="-57" on="0"/>
        <pt x="584" y="133" on="1"/>
        <pt x="506" y="21" on="0"/>
        <pt x="326" y="-55" on="0"/>
        <pt x="96" y="-55" on="0"/>
        <pt x="-53" y="96" on="0"/>
        <pt x="-53" y="184" on="1"/>
        <pt x="-53" y="326" on="0"/>
      </contour>
    </TTGlyph>
    <TTGlyph name="Dz" xMin="-53" yMin="-535" xMax="2468" yMax="1518">
      <contour>
        <pt x="152" y="326" on="1"/>
        <pt x="145" y="221" on="1"/>
        <pt x="145" y="139" on="0"/>
        <pt x="196" y="41" on="0"/>
        <pt x="264" y="41" on="1"/>
        <pt x="303" y="41" on="0"/>
        <pt x="375" y="94" on="0"/>
        <pt x="397" y="143" on="1"/>
        <pt x="471" y="295" on="0"/>
        <pt x="543" y="594" on="1"/>
        <pt x="662" y="1208" on="1"/>
        <pt x="675" y="1247" on="0"/>
        <pt x="791" y="1247" on="1"/>
        <pt x="885" y="1247" on="1"/>
        <pt x="872" y="1173" on="0"/>
        <pt x="830" y="862" on="0"/>
        <pt x="799" y="672" on="0"/>
        <pt x="716" y="390" on="0"/>
        <pt x="655" y="264" on="1"/>
        <pt x="684" y="176" on="0"/>
        <pt x="852" y="59" on="0"/>
        <pt x="1031" y="59" on="0"/>
        <pt x="1204" y="160" on="0"/>
        <pt x="1341" y="336" on="0"/>
        <pt x="1425" y="600" on="0"/>
        <pt x="1425" y="857" on="0"/>
        <pt x="1384" y="1043" on="0"/>
        <pt x="1293" y="1207" on="0"/>
        <pt x="1226" y="1266" on="1"/>
        <pt x="1082" y="1393" on="0"/>
        <pt x="840" y="1393" on="1"/>
        <pt x="695" y="1393" on="0"/>
        <pt x="408" y="1277" on="0"/>
        <pt x="229" y="1099" on="0"/>
        <pt x="229" y="1014" on="1"/>
        <pt x="229" y="897" on="0"/>
        <pt x="393" y="834" on="1"/>
        <pt x="393" y="788" on="0"/>
        <pt x="375" y="687" on="0"/>
        <pt x="367" y="672" on="1"/>
        <pt x="218" y="719" on="0"/>
        <pt x="68" y="894" on="0"/>
        <pt x="68" y="1075" on="0"/>
        <pt x="134" y="1220" on="0"/>
        <pt x="279" y="1355" on="0"/>
        <pt x="382" y="1406" on="1"/>
        <pt x="610" y="1518" on="0"/>
        <pt x="971" y="1518" on="1"/>
        <pt x="1115" y="1518" on="0"/>
        <pt x="1356" y="1434" on="0"/>
        <pt x="1518" y="1296" on="0"/>
        <pt x="1575" y="1206" on="1"/>
        <pt x="1683" y="1034" on="0"/>
        <pt x="1683" y="829" on="1"/>
        <pt x="1683" y="562" on="0"/>
        <pt x="1565" y="340" on="1"/>
        <pt x="1624" y="393" on="0"/>
        <pt x="1821" y="600" on="0"/>
        <pt x="1864" y="637" on="1"/>
        <pt x="1790" y="674" on="0"/>
        <pt x="1790" y="770" on="1"/>
        <pt x="1790" y="828" on="0"/>
        <pt x="1895" y="940" on="0"/>
        <pt x="1978" y="940" on="1"/>
        <pt x="1997" y="940" on="0"/>
        <pt x="2030" y="916" on="0"/>
        <pt x="2030" y="891" on="1"/>
        <pt x="2030" y="810" on="0"/>
        <pt x="1968" y="772" on="1"/>
        <pt x="2011" y="729" on="0"/>
        <pt x="2124" y="729" on="1"/>
        <pt x="2243" y="743" on="1"/>
        <pt x="2269" y="743" on="0"/>
        <pt x="2269" y="713" on="1"/>
        <pt x="2269" y="702" on="0"/>
        <pt x="2267" y="700" on="1"/>
        <pt x="2132" y="418" on="1"/>
        <pt x="2110" y="365" on="0"/>
        <pt x="2042" y="226" on="0"/>
        <pt x="2036" y="213" on="1"/>
        <pt x="2063" y="203" on="0"/>
        <pt x="2095" y="172" on="0"/>
        <pt x="2099" y="152" on="1"/>
        <pt x="2154" y="188" on="0"/>
        <pt x="2269" y="297" on="0"/>
        <pt x="2323" y="349" on="0"/>
        <pt x="2368" y="394" on="1"/>
        <pt x="2427" y="453" on="1"/>
        <pt x="2468" y="379" on="1"/>
        <pt x="2258" y="167" on="0"/>
        <pt x="2162" y="89" on="1"/>
        <pt x="2130" y="63" on="1"/>
        <pt x="2109" y="-187" on="0"/>
        <pt x="1881" y="-522" on="0"/>
        <pt x="1712" y="-535" on="1"/>
        <pt x="1599" y="-535" on="0"/>
        <pt x="1470" y="-444" on="0"/>
        <pt x="1470" y="-369" on="1"/>
        <pt x="1470" y="-214" on="0"/>
        <pt x="1708" y="-7" on="0"/>
        <pt x="1944" y="70" on="1"/>
        <pt x="1933" y="73" on="0"/>
        <pt x="1888" y="82" on="1"/>
        <pt x="1798" y="100" on="0"/>
        <pt x="1798" y="111" on="1"/>
        <pt x="1798" y="143" on="0"/>
        <pt x="1969" y="506" on="0"/>
        <pt x="1993" y="561" on="1"/>
        <pt x="1931" y="575" on="1"/>
        <pt x="1929" y="573" on="0"/>
        <pt x="1822" y="459" on="0"/>
        <pt x="1713" y="351" on="0"/>
        <pt x="1640" y="284" on="1"/>
        <pt x="1477" y="135" on="0"/>
        <pt x="1352" y="84" on="1"/>
        <pt x="1168" y="-57" on="0"/>
        <pt x="722" y="-57" on="0"/>
        <pt x="584" y="133" on="1"/>
        <pt x="506" y="21" on="0"/>
        <pt x="326" y="-55" on="0"/>
        <pt x="96" y="-55" on="0"/>
        <pt x="-53" y="96" on="0"/>
        <pt x="-53" y="184" on="1"/>
        <pt x="-53" y="326" on="0"/>
      </contour>
      <contour>
        <pt x="2005" y="-4" on="1"/>
        <pt x="1952" y="-32" on="0"/>
        <pt x="1821" y="-81" on="0"/>
        <pt x="1747" y="-109" on="0"/>
        <pt x="1712" y="-134" on="1"/>
        <pt x="1645" y="-179" on="0"/>
        <pt x="1645" y="-311" on="1"/>
        <pt x="1645" y="-358" on="0"/>
        <pt x="1684" y="-428" on="0"/>
        <pt x="1781" y="-428" on="0"/>
        <pt x="1909" y="-293" on="0"/>
        <pt x="2002" y="-91" on="0"/>
      </contour>
    </TTGlyph>
    <TTGlyph name="E" xMin="-8" yMin="-57" xMax="1569" yMax="1518">
      <contour>
        <pt x="616" y="240" on="1"/>
        <pt x="674" y="238" on="1"/>
        <pt x="698" y="238" on="0"/>
        <pt x="711" y="240" on="1"/>
        <pt x="718" y="238" on="0"/>
        <pt x="804" y="205" on="1"/>
        <pt x="1030" y="119" on="0"/>
        <pt x="1112" y="119" on="0"/>
        <pt x="1163" y="145" on="1"/>
        <pt x="1189" y="149" on="0"/>
        <pt x="1430" y="340" on="0"/>
        <pt x="1524" y="438" on="1"/>
        <pt x="1524" y="328" on="1"/>
        <pt x="1494" y="301" on="0"/>
        <pt x="1378" y="196" on="0"/>
        <pt x="1325" y="150" on="0"/>
        <pt x="1229" y="70" on="0"/>
        <pt x="1173" y="33" on="0"/>
        <pt x="1087" y="-18" on="0"/>
        <pt x="1054" y="-29" on="1"/>
        <pt x="968" y="-57" on="0"/>
        <pt x="893" y="-57" on="1"/>
        <pt x="887" y="-57" on="0"/>
        <pt x="860" y="-41" on="0"/>
        <pt x="828" y="-25" on="0"/>
        <pt x="762" y="2" on="0"/>
        <pt x="718" y="18" on="1"/>
        <pt x="640" y="48" on="0"/>
        <pt x="442" y="109" on="1"/>
        <pt x="351" y="37" on="0"/>
        <pt x="166" y="-57" on="0"/>
        <pt x="100" y="-57" on="1"/>
        <pt x="77" y="-57" on="0"/>
        <pt x="49" y="-44" on="1"/>
        <pt x="-8" y="-18" on="0"/>
        <pt x="-8" y="43" on="1"/>
        <pt x="-8" y="96" on="0"/>
        <pt x="114" y="148" on="1"/>
        <pt x="139" y="159" on="0"/>
        <pt x="145" y="162" on="1"/>
        <pt x="401" y="279" on="1"/>
        <pt x="427" y="317" on="0"/>
        <pt x="514" y="631" on="1"/>
        <pt x="447" y="622" on="0"/>
        <pt x="327" y="596" on="0"/>
        <pt x="301" y="595" on="0"/>
        <pt x="274" y="617" on="0"/>
        <pt x="274" y="644" on="1"/>
        <pt x="274" y="689" on="0"/>
        <pt x="326" y="702" on="1"/>
        <pt x="393" y="728" on="0"/>
        <pt x="551" y="760" on="1"/>
        <pt x="666" y="1165" on="0"/>
        <pt x="737" y="1262" on="1"/>
        <pt x="774" y="1314" on="0"/>
        <pt x="842" y="1360" on="1"/>
        <pt x="741" y="1368" on="0"/>
        <pt x="635" y="1368" on="1"/>
        <pt x="385" y="1368" on="0"/>
        <pt x="150" y="1248" on="0"/>
        <pt x="150" y="1143" on="1"/>
        <pt x="150" y="1087" on="0"/>
        <pt x="252" y="987" on="0"/>
        <pt x="346" y="952" on="1"/>
        <pt x="346" y="917" on="0"/>
        <pt x="328" y="834" on="0"/>
        <pt x="317" y="825" on="1"/>
        <pt x="163" y="879" on="0"/>
        <pt x="2" y="1036" on="0"/>
        <pt x="2" y="1120" on="1"/>
        <pt x="2" y="1299" on="0"/>
        <pt x="354" y="1518" on="0"/>
        <pt x="657" y="1518" on="1"/>
        <pt x="948" y="1518" on="1"/>
        <pt x="1569" y="1518" on="0"/>
        <pt x="1569" y="1491" on="1"/>
        <pt x="1569" y="1479" on="0"/>
        <pt x="1550" y="1460" on="1"/>
        <pt x="1450" y="1346" on="1"/>
        <pt x="1398" y="1311" on="0"/>
        <pt x="1293" y="1311" on="0"/>
        <pt x="1024" y="1353" on="0"/>
        <pt x="963" y="1356" on="1"/>
        <pt x="955" y="1326" on="0"/>
        <pt x="846" y="913" on="0"/>
        <pt x="809" y="795" on="1"/>
        <pt x="939" y="805" on="0"/>
        <pt x="1155" y="805" on="0"/>
        <pt x="1272" y="799" on="1"/>
        <pt x="1309" y="799" on="0"/>
        <pt x="1309" y="736" on="0"/>
        <pt x="1246" y="670" on="0"/>
        <pt x="1208" y="670" on="1"/>
        <pt x="913" y="670" on="0"/>
        <pt x="774" y="659" on="1"/>
        <pt x="774" y="657" on="1"/>
        <pt x="723" y="470" on="0"/>
        <pt x="584" y="238" on="1"/>
      </contour>
    </TTGlyph>
    <TTGlyph name="Eacute" xMin="-8" yMin="-57" xMax="1569" yMax="1962">
      <contour>
        <pt x="616" y="240" on="1"/>
        <pt x="674" y="238" on="1"/>
        <pt x="698" y="238" on="0"/>
        <pt x="711" y="240" on="1"/>
        <pt x="718" y="238" on="0"/>
        <pt x="804" y="205" on="1"/>
        <pt x="1030" y="119" on="0"/>
        <pt x="1112" y="119" on="0"/>
        <pt x="1163" y="145" on="1"/>
        <pt x="1189" y="149" on="0"/>
        <pt x="1430" y="340" on="0"/>
        <pt x="1524" y="438" on="1"/>
        <pt x="1524" y="328" on="1"/>
        <pt x="1494" y="301" on="0"/>
        <pt x="1378" y="196" on="0"/>
        <pt x="1325" y="150" on="0"/>
        <pt x="1229" y="70" on="0"/>
        <pt x="1173" y="33" on="0"/>
        <pt x="1087" y="-18" on="0"/>
        <pt x="1054" y="-29" on="1"/>
        <pt x="968" y="-57" on="0"/>
        <pt x="893" y="-57" on="1"/>
        <pt x="887" y="-57" on="0"/>
        <pt x="860" y="-41" on="0"/>
        <pt x="828" y="-25" on="0"/>
        <pt x="762" y="2" on="0"/>
        <pt x="718" y="18" on="1"/>
        <pt x="640" y="48" on="0"/>
        <pt x="442" y="109" on="1"/>
        <pt x="351" y="37" on="0"/>
        <pt x="166" y="-57" on="0"/>
        <pt x="100" y="-57" on="1"/>
        <pt x="77" y="-57" on="0"/>
        <pt x="49" y="-44" on="1"/>
        <pt x="-8" y="-18" on="0"/>
        <pt x="-8" y="43" on="1"/>
        <pt x="-8" y="96" on="0"/>
        <pt x="114" y="148" on="1"/>
        <pt x="139" y="159" on="0"/>
        <pt x="145" y="162" on="1"/>
        <pt x="401" y="279" on="1"/>
        <pt x="427" y="317" on="0"/>
        <pt x="514" y="631" on="1"/>
        <pt x="447" y="622" on="0"/>
        <pt x="327" y="596" on="0"/>
        <pt x="301" y="595" on="0"/>
        <pt x="274" y="617" on="0"/>
        <pt x="274" y="644" on="1"/>
        <pt x="274" y="689" on="0"/>
        <pt x="326" y="702" on="1"/>
        <pt x="393" y="728" on="0"/>
        <pt x="551" y="760" on="1"/>
        <pt x="666" y="1165" on="0"/>
        <pt x="737" y="1262" on="1"/>
        <pt x="774" y="1314" on="0"/>
        <pt x="842" y="1360" on="1"/>
        <pt x="741" y="1368" on="0"/>
        <pt x="635" y="1368" on="1"/>
        <pt x="385" y="1368" on="0"/>
        <pt x="150" y="1248" on="0"/>
        <pt x="150" y="1143" on="1"/>
        <pt x="150" y="1087" on="0"/>
        <pt x="252" y="987" on="0"/>
        <pt x="346" y="952" on="1"/>
        <pt x="346" y="917" on="0"/>
        <pt x="328" y="834" on="0"/>
        <pt x="317" y="825" on="1"/>
        <pt x="163" y="879" on="0"/>
        <pt x="2" y="1036" on="0"/>
        <pt x="2" y="1120" on="1"/>
        <pt x="2" y="1299" on="0"/>
        <pt x="354" y="1518" on="0"/>
        <pt x="657" y="1518" on="1"/>
        <pt x="948" y="1518" on="1"/>
        <pt x="1569" y="1518" on="0"/>
        <pt x="1569" y="1491" on="1"/>
        <pt x="1569" y="1479" on="0"/>
        <pt x="1550" y="1460" on="1"/>
        <pt x="1450" y="1346" on="1"/>
        <pt x="1398" y="1311" on="0"/>
        <pt x="1293" y="1311" on="0"/>
        <pt x="1024" y="1353" on="0"/>
        <pt x="963" y="1356" on="1"/>
        <pt x="955" y="1326" on="0"/>
        <pt x="846" y="913" on="0"/>
        <pt x="809" y="795" on="1"/>
        <pt x="939" y="805" on="0"/>
        <pt x="1155" y="805" on="0"/>
        <pt x="1272" y="799" on="1"/>
        <pt x="1309" y="799" on="0"/>
        <pt x="1309" y="736" on="0"/>
        <pt x="1246" y="670" on="0"/>
        <pt x="1208" y="670" on="1"/>
        <pt x="913" y="670" on="0"/>
        <pt x="774" y="659" on="1"/>
        <pt x="774" y="657" on="1"/>
        <pt x="723" y="470" on="0"/>
        <pt x="584" y="238" on="1"/>
      </contour>
      <contour>
        <pt x="1276" y="1831" on="1"/>
        <pt x="1188" y="1796" on="1"/>
        <pt x="1077" y="1752" on="0"/>
        <pt x="791" y="1653" on="1"/>
        <pt x="768" y="1708" on="1"/>
        <pt x="856" y="1789" on="0"/>
        <pt x="1114" y="1958" on="0"/>
        <pt x="1188" y="1962" on="1"/>
        <pt x="1222" y="1962" on="0"/>
        <pt x="1295" y="1890" on="0"/>
        <pt x="1295" y="1836" on="0"/>
      </contour>
    </TTGlyph>
    <TTGlyph name="Ecircumflex" xMin="-8" yMin="-57" xMax="1569" yMax="2095">
      <component glyphName="E" x="0" y="0" flags="0x1004"/>
      <component glyphName="circumflex" x="-104" y="713" flags="0x1004"/>
    </TTGlyph>
    <TTGlyph name="Edieresis" xMin="-8" yMin="-57" xMax="1569" yMax="1898">
      <contour>
        <pt x="616" y="240" on="1"/>
        <pt x="674" y="238" on="1"/>
        <pt x="698" y="238" on="0"/>
        <pt x="711" y="240" on="1"/>
        <pt x="718" y="238" on="0"/>
        <pt x="804" y="205" on="1"/>
        <pt x="1030" y="119" on="0"/>
        <pt x="1112" y="119" on="0"/>
        <pt x="1163" y="145" on="1"/>
        <pt x="1189" y="149" on="0"/>
        <pt x="1430" y="340" on="0"/>
        <pt x="1524" y="438" on="1"/>
        <pt x="1524" y="328" on="1"/>
        <pt x="1494" y="301" on="0"/>
        <pt x="1378" y="196" on="0"/>
        <pt x="1325" y="150" on="0"/>
        <pt x="1229" y="70" on="0"/>
        <pt x="1173" y="33" on="0"/>
        <pt x="1087" y="-18" on="0"/>
        <pt x="1054" y="-29" on="1"/>
        <pt x="968" y="-57" on="0"/>
        <pt x="893" y="-57" on="1"/>
        <pt x="887" y="-57" on="0"/>
        <pt x="860" y="-41" on="0"/>
        <pt x="828" y="-25" on="0"/>
        <pt x="762" y="2" on="0"/>
        <pt x="718" y="18" on="1"/>
        <pt x="640" y="48" on="0"/>
        <pt x="442" y="109" on="1"/>
        <pt x="351" y="37" on="0"/>
        <pt x="166" y="-57" on="0"/>
        <pt x="100" y="-57" on="1"/>
        <pt x="77" y="-57" on="0"/>
        <pt x="49" y="-44" on="1"/>
        <pt x="-8" y="-18" on="0"/>
        <pt x="-8" y="43" on="1"/>
        <pt x="-8" y="96" on="0"/>
        <pt x="114" y="148" on="1"/>
        <pt x="139" y="159" on="0"/>
        <pt x="145" y="162" on="1"/>
        <pt x="401" y="279" on="1"/>
        <pt x="427" y="317" on="0"/>
        <pt x="514" y="631" on="1"/>
        <pt x="447" y="622" on="0"/>
        <pt x="327" y="596" on="0"/>
        <pt x="301" y="595" on="0"/>
        <pt x="274" y="617" on="0"/>
        <pt x="274" y="644" on="1"/>
        <pt x="274" y="689" on="0"/>
        <pt x="326" y="702" on="1"/>
        <pt x="393" y="728" on="0"/>
        <pt x="551" y="760" on="1"/>
        <pt x="666" y="1165" on="0"/>
        <pt x="737" y="1262" on="1"/>
        <pt x="774" y="1314" on="0"/>
        <pt x="842" y="1360" on="1"/>
        <pt x="741" y="1368" on="0"/>
        <pt x="635" y="1368" on="1"/>
        <pt x="385" y="1368" on="0"/>
        <pt x="150" y="1248" on="0"/>
        <pt x="150" y="1143" on="1"/>
        <pt x="150" y="1087" on="0"/>
        <pt x="252" y="987" on="0"/>
        <pt x="346" y="952" on="1"/>
        <pt x="346" y="917" on="0"/>
        <pt x="328" y="834" on="0"/>
        <pt x="317" y="825" on="1"/>
        <pt x="163" y="879" on="0"/>
        <pt x="2" y="1036" on="0"/>
        <pt x="2" y="1120" on="1"/>
        <pt x="2" y="1299" on="0"/>
        <pt x="354" y="1518" on="0"/>
        <pt x="657" y="1518" on="1"/>
        <pt x="948" y="1518" on="1"/>
        <pt x="1569" y="1518" on="0"/>
        <pt x="1569" y="1491" on="1"/>
        <pt x="1569" y="1479" on="0"/>
        <pt x="1550" y="1460" on="1"/>
        <pt x="1450" y="1346" on="1"/>
        <pt x="1398" y="1311" on="0"/>
        <pt x="1293" y="1311" on="0"/>
        <pt x="1024" y="1353" on="0"/>
        <pt x="963" y="1356" on="1"/>
        <pt x="955" y="1326" on="0"/>
        <pt x="846" y="913" on="0"/>
        <pt x="809" y="795" on="1"/>
        <pt x="939" y="805" on="0"/>
        <pt x="1155" y="805" on="0"/>
        <pt x="1272" y="799" on="1"/>
        <pt x="1309" y="799" on="0"/>
        <pt x="1309" y="736" on="0"/>
        <pt x="1246" y="670" on="0"/>
        <pt x="1208" y="670" on="1"/>
        <pt x="913" y="670" on="0"/>
        <pt x="774" y="659" on="1"/>
        <pt x="774" y="657" on="1"/>
        <pt x="723" y="470" on="0"/>
        <pt x="584" y="238" on="1"/>
      </contour>
      <contour>
        <pt x="882" y="1766" on="0"/>
        <pt x="776" y="1662" on="0"/>
        <pt x="724" y="1662" on="1"/>
        <pt x="632" y="1662" on="0"/>
        <pt x="632" y="1740" on="1"/>
        <pt x="632" y="1795" on="0"/>
        <pt x="713" y="1898" on="0"/>
        <pt x="826" y="1898" on="0"/>
        <pt x="882" y="1853" on="0"/>
      </contour>
      <contour>
        <pt x="1364" y="1765" on="0"/>
        <pt x="1260" y="1662" on="0"/>
        <pt x="1206" y="1662" on="1"/>
        <pt x="1114" y="1662" on="0"/>
        <pt x="1114" y="1740" on="1"/>
        <pt x="1114" y="1795" on="0"/>
        <pt x="1196" y="1898" on="0"/>
        <pt x="1309" y="1898" on="0"/>
        <pt x="1364" y="1854" on="0"/>
      </contour>
    </TTGlyph>
    <TTGlyph name="Egrave" xMin="-8" yMin="-57" xMax="1569" yMax="1962">
      <component glyphName="E" x="0" y="0" flags="0x1004"/>
      <component glyphName="grave" x="-104" y="713" flags="0x1004"/>
    </TTGlyph>
    <TTGlyph name="Eth" xMin="-53" yMin="-57" xMax="1683" yMax="1518">
      <contour>
        <pt x="152" y="326" on="1"/>
        <pt x="145" y="221" on="1"/>
        <pt x="145" y="139" on="0"/>
        <pt x="196" y="41" on="0"/>
        <pt x="264" y="41" on="1"/>
        <pt x="303" y="41" on="0"/>
        <pt x="375" y="94" on="0"/>
        <pt x="397" y="143" on="1"/>
        <pt x="460" y="272" on="0"/>
        <pt x="522" y="510" on="1"/>
        <pt x="438" y="504" on="1"/>
        <pt x="381" y="504" on="0"/>
        <pt x="381" y="545" on="1"/>
        <pt x="381" y="618" on="0"/>
        <pt x="430" y="631" on="1"/>
        <pt x="453" y="639" on="0"/>
        <pt x="553" y="645" on="1"/>
        <pt x="662" y="1208" on="1"/>
        <pt x="675" y="1247" on="0"/>
        <pt x="791" y="1247" on="1"/>
        <pt x="885" y="1247" on="1"/>
        <pt x="877" y="1200" on="0"/>
        <pt x="818" y="776" on="0"/>
        <pt x="791" y="657" on="1"/>
        <pt x="813" y="657" on="1"/>
        <pt x="1022" y="657" on="0"/>
        <pt x="1022" y="616" on="1"/>
        <pt x="1022" y="586" on="0"/>
        <pt x="959" y="520" on="0"/>
        <pt x="922" y="520" on="1"/>
        <pt x="784" y="522" on="1"/>
        <pt x="756" y="522" on="1"/>
        <pt x="717" y="391" on="0"/>
        <pt x="655" y="264" on="1"/>
        <pt x="684" y="176" on="0"/>
        <pt x="852" y="59" on="0"/>
        <pt x="1031" y="59" on="0"/>
        <pt x="1204" y="160" on="0"/>
        <pt x="1341" y="336" on="0"/>
        <pt x="1425" y="600" on="0"/>
        <pt x="1425" y="857" on="0"/>
        <pt x="1384" y="1043" on="0"/>
        <pt x="1293" y="1207" on="0"/>
        <pt x="1226" y="1266" on="1"/>
        <pt x="1082" y="1393" on="0"/>
        <pt x="840" y="1393" on="1"/>
        <pt x="695" y="1393" on="0"/>
        <pt x="408" y="1277" on="0"/>
        <pt x="229" y="1099" on="0"/>
        <pt x="229" y="1014" on="1"/>
        <pt x="229" y="897" on="0"/>
        <pt x="393" y="834" on="1"/>
        <pt x="393" y="788" on="0"/>
        <pt x="375" y="687" on="0"/>
        <pt x="367" y="672" on="1"/>
        <pt x="218" y="719" on="0"/>
        <pt x="68" y="894" on="0"/>
        <pt x="68" y="1075" on="0"/>
        <pt x="134" y="1220" on="0"/>
        <pt x="279" y="1355" on="0"/>
        <pt x="382" y="1406" on="1"/>
        <pt x="610" y="1518" on="0"/>
        <pt x="971" y="1518" on="1"/>
        <pt x="1115" y="1518" on="0"/>
        <pt x="1356" y="1434" on="0"/>
        <pt x="1518" y="1296" on="0"/>
        <pt x="1575" y="1206" on="1"/>
        <pt x="1683" y="1034" on="0"/>
        <pt x="1683" y="649" on="0"/>
        <pt x="1570" y="322" on="0"/>
        <pt x="1377" y="84" on="0"/>
        <pt x="1104" y="-57" on="0"/>
        <pt x="950" y="-57" on="1"/>
        <pt x="722" y="-57" on="0"/>
        <pt x="584" y="133" on="1"/>
        <pt x="506" y="21" on="0"/>
        <pt x="326" y="-55" on="0"/>
        <pt x="96" y="-55" on="0"/>
        <pt x="-53" y="96" on="0"/>
        <pt x="-53" y="184" on="1"/>
        <pt x="-53" y="326" on="0"/>
      </contour>
    </TTGlyph>
    <TTGlyph name="Euro" xMin="25" yMin="-57" xMax="1364" yMax="1518">
      <contour>
        <pt x="840" y="125" on="1"/>
        <pt x="1085" y="125" on="0"/>
        <pt x="1364" y="348" on="1"/>
        <pt x="1364" y="238" on="1"/>
        <pt x="1017" y="-57" on="0"/>
        <pt x="721" y="-57" on="1"/>
        <pt x="599" y="-57" on="0"/>
        <pt x="401" y="35" on="0"/>
        <pt x="338" y="113" on="1"/>
        <pt x="210" y="271" on="0"/>
        <pt x="190" y="487" on="1"/>
        <pt x="84" y="483" on="1"/>
        <pt x="29" y="483" on="0"/>
        <pt x="29" y="520" on="1"/>
        <pt x="29" y="583" on="0"/>
        <pt x="76" y="596" on="1"/>
        <pt x="104" y="596" on="0"/>
        <pt x="186" y="602" on="1"/>
        <pt x="187" y="613" on="0"/>
        <pt x="197" y="709" on="1"/>
        <pt x="80" y="702" on="1"/>
        <pt x="25" y="702" on="0"/>
        <pt x="25" y="739" on="1"/>
        <pt x="25" y="796" on="0"/>
        <pt x="75" y="821" on="0"/>
        <pt x="203" y="826" on="0"/>
        <pt x="221" y="827" on="1"/>
        <pt x="273" y="1049" on="0"/>
        <pt x="398" y="1218" on="1"/>
        <pt x="617" y="1518" on="0"/>
        <pt x="958" y="1518" on="1"/>
        <pt x="1125" y="1518" on="0"/>
        <pt x="1358" y="1312" on="0"/>
        <pt x="1358" y="1178" on="1"/>
        <pt x="1358" y="1118" on="0"/>
        <pt x="1321" y="1102" on="1"/>
        <pt x="1057" y="976" on="0"/>
        <pt x="963" y="942" on="1"/>
        <pt x="928" y="942" on="0"/>
        <pt x="928" y="983" on="1"/>
        <pt x="928" y="1014" on="0"/>
        <pt x="1139" y="1110" on="0"/>
        <pt x="1139" y="1149" on="1"/>
        <pt x="1076" y="1417" on="0"/>
        <pt x="928" y="1417" on="1"/>
        <pt x="800" y="1411" on="0"/>
        <pt x="692" y="1327" on="1"/>
        <pt x="480" y="1164" on="0"/>
        <pt x="420" y="836" on="1"/>
        <pt x="459" y="838" on="0"/>
        <pt x="537" y="838" on="1"/>
        <pt x="737" y="838" on="0"/>
        <pt x="737" y="801" on="1"/>
        <pt x="737" y="774" on="0"/>
        <pt x="677" y="717" on="0"/>
        <pt x="641" y="717" on="1"/>
        <pt x="510" y="719" on="1"/>
        <pt x="457" y="719" on="0"/>
        <pt x="403" y="717" on="1"/>
        <pt x="401" y="698" on="0"/>
        <pt x="401" y="614" on="1"/>
        <pt x="497" y="618" on="0"/>
        <pt x="541" y="618" on="1"/>
        <pt x="741" y="618" on="0"/>
        <pt x="741" y="582" on="1"/>
        <pt x="741" y="556" on="0"/>
        <pt x="681" y="498" on="0"/>
        <pt x="645" y="498" on="1"/>
        <pt x="514" y="500" on="1"/>
        <pt x="465" y="500" on="0"/>
        <pt x="416" y="498" on="1"/>
        <pt x="454" y="319" on="0"/>
        <pt x="680" y="125" on="0"/>
      </contour>
    </TTGlyph>
    <TTGlyph name="F" xMin="-18" yMin="-180" xMax="1509" yMax="1518">
      <contour>
        <pt x="899" y="1339" on="1"/>
        <pt x="854" y="1341" on="1"/>
        <pt x="738" y="1341" on="0"/>
        <pt x="513" y="1283" on="0"/>
        <pt x="349" y="1192" on="0"/>
        <pt x="248" y="1077" on="0"/>
        <pt x="248" y="1022" on="1"/>
        <pt x="248" y="900" on="0"/>
        <pt x="408" y="829" on="1"/>
        <pt x="408" y="787" on="0"/>
        <pt x="388" y="674" on="0"/>
        <pt x="379" y="662" on="1"/>
        <pt x="220" y="727" on="0"/>
        <pt x="63" y="913" on="0"/>
        <pt x="63" y="1016" on="1"/>
        <pt x="63" y="1203" on="0"/>
        <pt x="469" y="1478" on="0"/>
        <pt x="813" y="1507" on="1"/>
        <pt x="971" y="1518" on="0"/>
        <pt x="1283" y="1518" on="0"/>
        <pt x="1465" y="1516" on="0"/>
        <pt x="1509" y="1516" on="1"/>
        <pt x="1368" y="1305" on="1"/>
        <pt x="1274" y="1305" on="0"/>
        <pt x="1034" y="1332" on="0"/>
        <pt x="989" y="1335" on="1"/>
        <pt x="968" y="1225" on="0"/>
        <pt x="900" y="843" on="0"/>
        <pt x="891" y="795" on="1"/>
        <pt x="976" y="805" on="0"/>
        <pt x="1155" y="805" on="0"/>
        <pt x="1272" y="799" on="1"/>
        <pt x="1309" y="799" on="0"/>
        <pt x="1309" y="729" on="0"/>
        <pt x="1246" y="649" on="0"/>
        <pt x="1208" y="649" on="1"/>
        <pt x="973" y="649" on="0"/>
        <pt x="860" y="639" on="1"/>
        <pt x="787" y="285" on="0"/>
        <pt x="696" y="112" on="1"/>
        <pt x="617" y="-38" on="0"/>
        <pt x="519" y="-104" on="1"/>
        <pt x="405" y="-180" on="0"/>
        <pt x="252" y="-180" on="1"/>
        <pt x="65" y="-180" on="0"/>
        <pt x="-1" y="-28" on="1"/>
        <pt x="-18" y="11" on="0"/>
        <pt x="-18" y="49" on="1"/>
        <pt x="-18" y="205" on="0"/>
        <pt x="195" y="205" on="1"/>
        <pt x="184" y="145" on="0"/>
        <pt x="184" y="0" on="0"/>
        <pt x="232" y="-78" on="0"/>
        <pt x="344" y="-82" on="0"/>
        <pt x="440" y="30" on="0"/>
        <pt x="482" y="135" on="1"/>
        <pt x="553" y="313" on="0"/>
        <pt x="623" y="600" on="1"/>
        <pt x="537" y="575" on="1"/>
        <pt x="532" y="575" on="0"/>
        <pt x="506" y="574" on="0"/>
        <pt x="479" y="596" on="0"/>
        <pt x="479" y="646" on="0"/>
        <pt x="488" y="665" on="1"/>
        <pt x="501" y="691" on="0"/>
        <pt x="581" y="726" on="0"/>
        <pt x="657" y="750" on="1"/>
        <pt x="672" y="812" on="0"/>
        <pt x="695" y="915" on="0"/>
        <pt x="713" y="993" on="0"/>
        <pt x="725" y="1039" on="0"/>
        <pt x="740" y="1101" on="0"/>
        <pt x="752" y="1140" on="0"/>
        <pt x="759" y="1161" on="1"/>
        <pt x="773" y="1202" on="0"/>
        <pt x="784" y="1221" on="1"/>
        <pt x="837" y="1300" on="0"/>
      </contour>
    </TTGlyph>
    <TTGlyph name="G" xMin="-117" yMin="-467" xMax="1583" yMax="1518">
      <contour>
        <pt x="743" y="-467" on="1"/>
        <pt x="677" y="-467" on="0"/>
        <pt x="542" y="-408" on="0"/>
        <pt x="446" y="-291" on="0"/>
        <pt x="446" y="-232" on="1"/>
        <pt x="446" y="-108" on="0"/>
        <pt x="528" y="-88" on="1"/>
        <pt x="985" y="45" on="1"/>
        <pt x="1026" y="199" on="0"/>
        <pt x="1038" y="285" on="1"/>
        <pt x="1055" y="371" on="1"/>
        <pt x="952" y="271" on="0"/>
        <pt x="656" y="117" on="0"/>
        <pt x="551" y="117" on="1"/>
        <pt x="316" y="117" on="0"/>
        <pt x="190" y="453" on="1"/>
        <pt x="70" y="383" on="1"/>
        <pt x="14" y="351" on="0"/>
        <pt x="-26" y="327" on="0"/>
        <pt x="-44" y="318" on="1"/>
        <pt x="-78" y="299" on="0"/>
        <pt x="-101" y="299" on="0"/>
        <pt x="-117" y="336" on="0"/>
        <pt x="-117" y="395" on="0"/>
        <pt x="-96" y="403" on="1"/>
        <pt x="-75" y="416" on="0"/>
        <pt x="-4" y="454" on="1"/>
        <pt x="168" y="545" on="0"/>
        <pt x="172" y="559" on="1"/>
        <pt x="172" y="747" on="0"/>
        <pt x="311" y="1098" on="0"/>
        <pt x="548" y="1360" on="0"/>
        <pt x="886" y="1518" on="0"/>
        <pt x="1073" y="1518" on="1"/>
        <pt x="1149" y="1518" on="0"/>
        <pt x="1290" y="1458" on="0"/>
        <pt x="1338" y="1411" on="1"/>
        <pt x="1444" y="1307" on="0"/>
        <pt x="1444" y="1188" on="1"/>
        <pt x="1444" y="1106" on="0"/>
        <pt x="1402" y="1079" on="1"/>
        <pt x="1384" y="1068" on="0"/>
        <pt x="1341" y="1051" on="0"/>
        <pt x="1337" y="1049" on="1"/>
        <pt x="1274" y="1020" on="1"/>
        <pt x="444" y="586" on="1"/>
        <pt x="471" y="469" on="0"/>
        <pt x="627" y="293" on="0"/>
        <pt x="729" y="293" on="1"/>
        <pt x="885" y="293" on="0"/>
        <pt x="1061" y="434" on="1"/>
        <pt x="1065" y="443" on="0"/>
        <pt x="1103" y="594" on="0"/>
        <pt x="1108" y="621" on="1"/>
        <pt x="1307" y="621" on="1"/>
        <pt x="1188" y="119" on="1"/>
        <pt x="1317" y="179" on="0"/>
        <pt x="1583" y="440" on="1"/>
        <pt x="1583" y="330" on="1"/>
        <pt x="1500" y="241" on="0"/>
        <pt x="1217" y="14" on="0"/>
        <pt x="1157" y="-10" on="1"/>
        <pt x="1111" y="-234" on="0"/>
        <pt x="892" y="-467" on="0"/>
      </contour>
      <contour>
        <pt x="954" y="-74" on="1"/>
        <pt x="916" y="-90" on="0"/>
        <pt x="780" y="-125" on="0"/>
        <pt x="692" y="-149" on="0"/>
        <pt x="621" y="-203" on="0"/>
        <pt x="621" y="-306" on="0"/>
        <pt x="699" y="-408" on="0"/>
        <pt x="805" y="-408" on="0"/>
        <pt x="875" y="-326" on="0"/>
        <pt x="898" y="-264" on="1"/>
        <pt x="941" y="-149" on="0"/>
      </contour>
      <contour>
        <pt x="1160" y="1046" on="1"/>
        <pt x="1231" y="1077" on="0"/>
        <pt x="1231" y="1130" on="1"/>
        <pt x="1231" y="1237" on="0"/>
        <pt x="1108" y="1430" on="0"/>
        <pt x="1042" y="1430" on="1"/>
        <pt x="941" y="1430" on="0"/>
        <pt x="749" y="1341" on="0"/>
        <pt x="600" y="1190" on="0"/>
        <pt x="543" y="1094" on="1"/>
        <pt x="426" y="897" on="0"/>
        <pt x="426" y="678" on="1"/>
        <pt x="844" y="887" on="1"/>
        <pt x="898" y="914" on="0"/>
        <pt x="969" y="950" on="1"/>
        <pt x="1123" y="1030" on="0"/>
      </contour>
    </TTGlyph>
    <TTGlyph name="H" xMin="4" yMin="-55" xMax="2236" yMax="1516">
      <contour>
        <pt x="322" y="819" on="1"/>
        <pt x="203" y="865" on="0"/>
        <pt x="133" y="923" on="1"/>
        <pt x="4" y="1030" on="0"/>
        <pt x="4" y="1149" on="1"/>
        <pt x="4" y="1360" on="0"/>
        <pt x="244" y="1462" on="1"/>
        <pt x="372" y="1516" on="0"/>
        <pt x="618" y="1516" on="0"/>
        <pt x="984" y="1444" on="0"/>
        <pt x="1124" y="1444" on="0"/>
        <pt x="1270" y="1487" on="0"/>
        <pt x="1303" y="1489" on="1"/>
        <pt x="1293" y="1426" on="0"/>
        <pt x="1232" y="1315" on="0"/>
        <pt x="1186" y="1286" on="1"/>
        <pt x="1132" y="1206" on="0"/>
        <pt x="1090" y="1120" on="0"/>
        <pt x="1073" y="1088" on="0"/>
        <pt x="1046" y="1020" on="0"/>
        <pt x="1035" y="995" on="0"/>
        <pt x="1007" y="917" on="0"/>
        <pt x="1004" y="908" on="1"/>
        <pt x="977" y="839" on="0"/>
        <pt x="967" y="805" on="1"/>
        <pt x="1092" y="817" on="0"/>
        <pt x="1245" y="823" on="1"/>
        <pt x="1325" y="1036" on="0"/>
        <pt x="1453" y="1207" on="1"/>
        <pt x="1597" y="1400" on="0"/>
        <pt x="1765" y="1475" on="1"/>
        <pt x="1857" y="1516" on="0"/>
        <pt x="2000" y="1516" on="0"/>
        <pt x="2128" y="1479" on="0"/>
        <pt x="2236" y="1394" on="0"/>
        <pt x="2236" y="1304" on="0"/>
        <pt x="2099" y="1173" on="0"/>
        <pt x="2062" y="1171" on="1"/>
        <pt x="2054" y="1192" on="1"/>
        <pt x="2008" y="1348" on="0"/>
        <pt x="1903" y="1348" on="1"/>
        <pt x="1720" y="1348" on="0"/>
        <pt x="1552" y="1102" on="1"/>
        <pt x="1470" y="982" on="0"/>
        <pt x="1403" y="829" on="1"/>
        <pt x="1477" y="829" on="1"/>
        <pt x="1708" y="829" on="0"/>
        <pt x="1733" y="804" on="0"/>
        <pt x="1733" y="761" on="0"/>
        <pt x="1670" y="694" on="0"/>
        <pt x="1632" y="694" on="1"/>
        <pt x="1494" y="694" on="0"/>
        <pt x="1362" y="688" on="1"/>
        <pt x="1319" y="540" on="0"/>
        <pt x="1319" y="246" on="0"/>
        <pt x="1401" y="90" on="0"/>
        <pt x="1542" y="90" on="0"/>
        <pt x="1638" y="144" on="1"/>
        <pt x="1798" y="234" on="0"/>
        <pt x="1995" y="442" on="1"/>
        <pt x="1993" y="328" on="1"/>
        <pt x="1845" y="164" on="0"/>
        <pt x="1502" y="-55" on="0"/>
        <pt x="1368" y="-55" on="1"/>
        <pt x="1274" y="-55" on="0"/>
        <pt x="1161" y="112" on="0"/>
        <pt x="1161" y="496" on="0"/>
        <pt x="1206" y="680" on="1"/>
        <pt x="1089" y="672" on="0"/>
        <pt x="932" y="657" on="1"/>
        <pt x="874" y="438" on="0"/>
        <pt x="857" y="386" on="1"/>
        <pt x="772" y="124" on="0"/>
        <pt x="633" y="22" on="1"/>
        <pt x="528" y="-55" on="0"/>
        <pt x="383" y="-55" on="1"/>
        <pt x="300" y="-55" on="0"/>
        <pt x="166" y="-1" on="0"/>
        <pt x="130" y="39" on="1"/>
        <pt x="55" y="121" on="0"/>
        <pt x="55" y="195" on="1"/>
        <pt x="55" y="295" on="0"/>
        <pt x="206" y="311" on="1"/>
        <pt x="242" y="315" on="0"/>
        <pt x="291" y="315" on="1"/>
        <pt x="291" y="256" on="1"/>
        <pt x="291" y="109" on="0"/>
        <pt x="338" y="71" on="1"/>
        <pt x="360" y="53" on="0"/>
        <pt x="434" y="53" on="0"/>
        <pt x="504" y="90" on="0"/>
        <pt x="558" y="153" on="0"/>
        <pt x="603" y="238" on="0"/>
        <pt x="636" y="335" on="0"/>
        <pt x="650" y="388" on="1"/>
        <pt x="675" y="488" on="0"/>
        <pt x="699" y="617" on="0"/>
        <pt x="702" y="631" on="1"/>
        <pt x="489" y="600" on="1"/>
        <pt x="432" y="600" on="0"/>
        <pt x="432" y="641" on="1"/>
        <pt x="432" y="697" on="0"/>
        <pt x="460" y="716" on="1"/>
        <pt x="469" y="722" on="0"/>
        <pt x="483" y="727" on="1"/>
        <pt x="587" y="752" on="0"/>
        <pt x="735" y="774" on="1"/>
        <pt x="775" y="963" on="0"/>
        <pt x="858" y="1139" on="0"/>
        <pt x="949" y="1233" on="0"/>
        <pt x="1012" y="1266" on="1"/>
        <pt x="958" y="1271" on="0"/>
        <pt x="661" y="1327" on="0"/>
        <pt x="526" y="1327" on="0"/>
        <pt x="402" y="1311" on="0"/>
        <pt x="257" y="1273" on="0"/>
        <pt x="160" y="1194" on="0"/>
        <pt x="160" y="1141" on="1"/>
        <pt x="160" y="1036" on="0"/>
        <pt x="352" y="954" on="1"/>
        <pt x="352" y="858" on="0"/>
      </contour>
    </TTGlyph>
    <TTGlyph name="I" xMin="207" yMin="-57" xMax="1401" yMax="1530">
      <contour>
        <pt x="403" y="303" on="1"/>
        <pt x="401" y="213" on="1"/>
        <pt x="401" y="117" on="0"/>
        <pt x="428" y="78" on="1"/>
        <pt x="455" y="41" on="0"/>
        <pt x="512" y="41" on="1"/>
        <pt x="700" y="41" on="0"/>
        <pt x="801" y="604" on="1"/>
        <pt x="802" y="609" on="0"/>
        <pt x="803" y="614" on="0"/>
        <pt x="804" y="622" on="0"/>
        <pt x="805" y="625" on="1"/>
        <pt x="819" y="702" on="1"/>
        <pt x="546" y="722" on="0"/>
        <pt x="427" y="828" on="1"/>
        <pt x="362" y="887" on="0"/>
        <pt x="362" y="954" on="1"/>
        <pt x="362" y="1072" on="0"/>
        <pt x="516" y="1230" on="1"/>
        <pt x="618" y="1333" on="0"/>
        <pt x="784" y="1408" on="1"/>
        <pt x="958" y="1485" on="0"/>
        <pt x="1178" y="1485" on="1"/>
        <pt x="1223" y="1485" on="0"/>
        <pt x="1368" y="1528" on="0"/>
        <pt x="1401" y="1530" on="1"/>
        <pt x="1389" y="1455" on="0"/>
        <pt x="1311" y="1332" on="0"/>
        <pt x="1249" y="1311" on="1"/>
        <pt x="1124" y="1096" on="0"/>
        <pt x="1057" y="793" on="1"/>
        <pt x="1024" y="647" on="1"/>
        <pt x="967" y="358" on="0"/>
        <pt x="913" y="244" on="1"/>
        <pt x="839" y="88" on="0"/>
        <pt x="758" y="29" on="1"/>
        <pt x="642" y="-57" on="0"/>
        <pt x="494" y="-57" on="1"/>
        <pt x="395" y="-57" on="0"/>
        <pt x="306" y="-2" on="1"/>
        <pt x="262" y="24" on="0"/>
        <pt x="207" y="116" on="0"/>
        <pt x="207" y="172" on="1"/>
        <pt x="207" y="303" on="0"/>
      </contour>
      <contour>
        <pt x="526" y="950" on="1"/>
        <pt x="526" y="860" on="0"/>
        <pt x="854" y="842" on="1"/>
        <pt x="899" y="1010" on="0"/>
        <pt x="1029" y="1239" on="0"/>
        <pt x="1145" y="1303" on="1"/>
        <pt x="1019" y="1303" on="0"/>
        <pt x="801" y="1241" on="0"/>
        <pt x="665" y="1152" on="0"/>
        <pt x="616" y="1101" on="1"/>
        <pt x="526" y="1007" on="0"/>
      </contour>
    </TTGlyph>
    <TTGlyph name="IJ" xMin="207" yMin="-428" xMax="1999" yMax="1530">
      <contour>
        <pt x="403" y="303" on="1"/>
        <pt x="401" y="213" on="1"/>
        <pt x="401" y="117" on="0"/>
        <pt x="428" y="78" on="1"/>
        <pt x="455" y="41" on="0"/>
        <pt x="512" y="41" on="1"/>
        <pt x="700" y="41" on="0"/>
        <pt x="801" y="604" on="1"/>
        <pt x="802" y="609" on="0"/>
        <pt x="803" y="614" on="0"/>
        <pt x="804" y="622" on="0"/>
        <pt x="805" y="625" on="1"/>
        <pt x="819" y="702" on="1"/>
        <pt x="546" y="722" on="0"/>
        <pt x="427" y="828" on="1"/>
        <pt x="362" y="887" on="0"/>
        <pt x="362" y="954" on="1"/>
        <pt x="362" y="1072" on="0"/>
        <pt x="516" y="1230" on="1"/>
        <pt x="618" y="1333" on="0"/>
        <pt x="784" y="1408" on="1"/>
        <pt x="958" y="1485" on="0"/>
        <pt x="1178" y="1485" on="1"/>
        <pt x="1477" y="1485" on="0"/>
        <pt x="1776" y="1485" on="1"/>
        <pt x="1821" y="1485" on="0"/>
        <pt x="1966" y="1528" on="0"/>
        <pt x="1999" y="1530" on="1"/>
        <pt x="1987" y="1456" on="0"/>
        <pt x="1909" y="1332" on="0"/>
        <pt x="1847" y="1311" on="1"/>
        <pt x="1742" y="1128" on="0"/>
        <pt x="1675" y="840" on="1"/>
        <pt x="1528" y="133" on="1"/>
        <pt x="1564" y="155" on="0"/>
        <pt x="1695" y="226" on="0"/>
        <pt x="1738" y="252" on="1"/>
        <pt x="1858" y="323" on="0"/>
        <pt x="1985" y="446" on="1"/>
        <pt x="1985" y="334" on="1"/>
        <pt x="1907" y="242" on="0"/>
        <pt x="1593" y="42" on="0"/>
        <pt x="1505" y="10" on="1"/>
        <pt x="1459" y="-204" on="0"/>
        <pt x="1247" y="-428" on="0"/>
        <pt x="1104" y="-428" on="1"/>
        <pt x="1039" y="-428" on="0"/>
        <pt x="906" y="-369" on="0"/>
        <pt x="813" y="-253" on="0"/>
        <pt x="813" y="-136" on="0"/>
        <pt x="856" y="-50" on="0"/>
        <pt x="897" y="-39" on="1"/>
        <pt x="1315" y="74" on="1"/>
        <pt x="1337" y="206" on="0"/>
        <pt x="1481" y="840" on="1"/>
        <pt x="1556" y="1187" on="0"/>
        <pt x="1743" y="1303" on="1"/>
        <pt x="1389" y="1303" on="0"/>
        <pt x="1247" y="1309" on="1"/>
        <pt x="1130" y="1107" on="0"/>
        <pt x="1063" y="827" on="1"/>
        <pt x="1165" y="827" on="0"/>
        <pt x="1337" y="854" on="1"/>
        <pt x="1337" y="773" on="0"/>
        <pt x="1307" y="739" on="1"/>
        <pt x="1164" y="702" on="0"/>
        <pt x="1034" y="692" on="1"/>
        <pt x="1024" y="647" on="1"/>
        <pt x="967" y="358" on="0"/>
        <pt x="913" y="244" on="1"/>
        <pt x="839" y="88" on="0"/>
        <pt x="758" y="29" on="1"/>
        <pt x="642" y="-57" on="0"/>
        <pt x="494" y="-57" on="1"/>
        <pt x="395" y="-57" on="0"/>
        <pt x="306" y="-2" on="1"/>
        <pt x="262" y="24" on="0"/>
        <pt x="207" y="116" on="0"/>
        <pt x="207" y="172" on="1"/>
        <pt x="207" y="303" on="0"/>
      </contour>
      <contour>
        <pt x="526" y="950" on="1"/>
        <pt x="526" y="860" on="0"/>
        <pt x="854" y="842" on="1"/>
        <pt x="899" y="1010" on="0"/>
        <pt x="1029" y="1239" on="0"/>
        <pt x="1145" y="1303" on="1"/>
        <pt x="1019" y="1303" on="0"/>
        <pt x="801" y="1241" on="0"/>
        <pt x="665" y="1152" on="0"/>
        <pt x="616" y="1101" on="1"/>
        <pt x="526" y="1007" on="0"/>
      </contour>
      <contour>
        <pt x="1298" y="-66" on="1"/>
        <pt x="1263" y="-78" on="0"/>
        <pt x="1100" y="-113" on="0"/>
        <pt x="1066" y="-125" on="1"/>
        <pt x="995" y="-150" on="0"/>
        <pt x="995" y="-264" on="0"/>
        <pt x="1064" y="-356" on="0"/>
        <pt x="1161" y="-356" on="0"/>
        <pt x="1221" y="-295" on="0"/>
        <pt x="1242" y="-244" on="1"/>
        <pt x="1277" y="-160" on="0"/>
      </contour>
    </TTGlyph>
    <TTGlyph name="Iacute" xMin="207" yMin="-57" xMax="1563" yMax="1962">
      <contour>
        <pt x="403" y="303" on="1"/>
        <pt x="401" y="213" on="1"/>
        <pt x="401" y="117" on="0"/>
        <pt x="428" y="78" on="1"/>
        <pt x="455" y="41" on="0"/>
        <pt x="512" y="41" on="1"/>
        <pt x="700" y="41" on="0"/>
        <pt x="801" y="604" on="1"/>
        <pt x="802" y="609" on="0"/>
        <pt x="803" y="614" on="0"/>
        <pt x="804" y="622" on="0"/>
        <pt x="805" y="625" on="1"/>
        <pt x="819" y="702" on="1"/>
        <pt x="546" y="722" on="0"/>
        <pt x="427" y="828" on="1"/>
        <pt x="362" y="887" on="0"/>
        <pt x="362" y="954" on="1"/>
        <pt x="362" y="1072" on="0"/>
        <pt x="516" y="1230" on="1"/>
        <pt x="618" y="1333" on="0"/>
        <pt x="784" y="1408" on="1"/>
        <pt x="958" y="1485" on="0"/>
        <pt x="1178" y="1485" on="1"/>
        <pt x="1223" y="1485" on="0"/>
        <pt x="1368" y="1528" on="0"/>
        <pt x="1401" y="1530" on="1"/>
        <pt x="1389" y="1455" on="0"/>
        <pt x="1311" y="1332" on="0"/>
        <pt x="1249" y="1311" on="1"/>
        <pt x="1124" y="1096" on="0"/>
        <pt x="1057" y="793" on="1"/>
        <pt x="1024" y="647" on="1"/>
        <pt x="967" y="358" on="0"/>
        <pt x="913" y="244" on="1"/>
        <pt x="839" y="88" on="0"/>
        <pt x="758" y="29" on="1"/>
        <pt x="642" y="-57" on="0"/>
        <pt x="494" y="-57" on="1"/>
        <pt x="395" y="-57" on="0"/>
        <pt x="306" y="-2" on="1"/>
        <pt x="262" y="24" on="0"/>
        <pt x="207" y="116" on="0"/>
        <pt x="207" y="172" on="1"/>
        <pt x="207" y="303" on="0"/>
      </contour>
      <contour>
        <pt x="526" y="950" on="1"/>
        <pt x="526" y="860" on="0"/>
        <pt x="854" y="842" on="1"/>
        <pt x="899" y="1010" on="0"/>
        <pt x="1029" y="1239" on="0"/>
        <pt x="1145" y="1303" on="1"/>
        <pt x="1019" y="1303" on="0"/>
        <pt x="801" y="1241" on="0"/>
        <pt x="665" y="1152" on="0"/>
        <pt x="616" y="1101" on="1"/>
        <pt x="526" y="1007" on="0"/>
      </contour>
      <contour>
        <pt x="1544" y="1831" on="1"/>
        <pt x="1456" y="1796" on="1"/>
        <pt x="1345" y="1752" on="0"/>
        <pt x="1059" y="1653" on="1"/>
        <pt x="1036" y="1708" on="1"/>
        <pt x="1124" y="1789" on="0"/>
        <pt x="1382" y="1958" on="0"/>
        <pt x="1456" y="1962" on="1"/>
        <pt x="1490" y="1962" on="0"/>
        <pt x="1563" y="1890" on="0"/>
        <pt x="1563" y="1836" on="0"/>
      </contour>
    </TTGlyph>
    <TTGlyph name="Icircumflex" xMin="207" yMin="-57" xMax="1512" yMax="2095">
      <component glyphName="I" x="0" y="0" flags="0x1004"/>
      <component glyphName="circumflex" x="164" y="713" flags="0x1004"/>
    </TTGlyph>
    <TTGlyph name="Idieresis" xMin="207" yMin="-57" xMax="1632" yMax="1898">
      <component glyphName="I" x="0" y="0" flags="0x1004"/>
      <component glyphName="dieresis" x="528" y="678" flags="0x1004"/>
    </TTGlyph>
    <TTGlyph name="Igrave" xMin="207" yMin="-57" xMax="1401" yMax="1962">
      <component glyphName="I" x="0" y="0" flags="0x1004"/>
      <component glyphName="grave" x="164" y="713" flags="0x1004"/>
    </TTGlyph>
    <TTGlyph name="Iogonek" xMin="207" yMin="-582" xMax="1401" yMax="1530">
      <component glyphName="I" x="0" y="0" flags="0x1004"/>
      <component glyphName="ogonek" x="-250" y="-29" flags="0x1004"/>
    </TTGlyph>
    <TTGlyph name="Itilde" xMin="207" yMin="-57" xMax="1595" yMax="1901">
      <contour>
        <pt x="403" y="303" on="1"/>
        <pt x="401" y="213" on="1"/>
        <pt x="401" y="117" on="0"/>
        <pt x="428" y="78" on="1"/>
        <pt x="455" y="41" on="0"/>
        <pt x="512" y="41" on="1"/>
        <pt x="700" y="41" on="0"/>
        <pt x="801" y="604" on="1"/>
        <pt x="802" y="609" on="0"/>
        <pt x="803" y="614" on="0"/>
        <pt x="804" y="622" on="0"/>
        <pt x="805" y="625" on="1"/>
        <pt x="819" y="702" on="1"/>
        <pt x="546" y="722" on="0"/>
        <pt x="427" y="828" on="1"/>
        <pt x="362" y="887" on="0"/>
        <pt x="362" y="954" on="1"/>
        <pt x="362" y="1072" on="0"/>
        <pt x="516" y="1230" on="1"/>
        <pt x="618" y="1333" on="0"/>
        <pt x="784" y="1408" on="1"/>
        <pt x="958" y="1485" on="0"/>
        <pt x="1178" y="1485" on="1"/>
        <pt x="1223" y="1485" on="0"/>
        <pt x="1368" y="1528" on="0"/>
        <pt x="1401" y="1530" on="1"/>
        <pt x="1389" y="1455" on="0"/>
        <pt x="1311" y="1332" on="0"/>
        <pt x="1249" y="1311" on="1"/>
        <pt x="1124" y="1096" on="0"/>
        <pt x="1057" y="793" on="1"/>
        <pt x="1024" y="647" on="1"/>
        <pt x="967" y="358" on="0"/>
        <pt x="913" y="244" on="1"/>
        <pt x="839" y="88" on="0"/>
        <pt x="758" y="29" on="1"/>
        <pt x="642" y="-57" on="0"/>
        <pt x="494" y="-57" on="1"/>
        <pt x="395" y="-57" on="0"/>
        <pt x="306" y="-2" on="1"/>
        <pt x="262" y="24" on="0"/>
        <pt x="207" y="116" on="0"/>
        <pt x="207" y="172" on="1"/>
        <pt x="207" y="303" on="0"/>
      </contour>
      <contour>
        <pt x="526" y="950" on="1"/>
        <pt x="526" y="860" on="0"/>
        <pt x="854" y="842" on="1"/>
        <pt x="899" y="1010" on="0"/>
        <pt x="1029" y="1239" on="0"/>
        <pt x="1145" y="1303" on="1"/>
        <pt x="1019" y="1303" on="0"/>
        <pt x="801" y="1241" on="0"/>
        <pt x="665" y="1152" on="0"/>
        <pt x="616" y="1101" on="1"/>
        <pt x="526" y="1007" on="0"/>
      </contour>
      <contour>
        <pt x="1034" y="1901" on="1"/>
        <pt x="1045" y="1819" on="0"/>
        <pt x="1116" y="1819" on="1"/>
        <pt x="1155" y="1819" on="0"/>
        <pt x="1368" y="1895" on="0"/>
        <pt x="1462" y="1895" on="0"/>
        <pt x="1527" y="1863" on="0"/>
        <pt x="1561" y="1818" on="0"/>
        <pt x="1584" y="1760" on="0"/>
        <pt x="1588" y="1737" on="1"/>
        <pt x="1595" y="1688" on="0"/>
        <pt x="1595" y="1674" on="1"/>
        <pt x="1470" y="1655" on="1"/>
        <pt x="1454" y="1743" on="0"/>
        <pt x="1395" y="1743" on="1"/>
        <pt x="1362" y="1743" on="0"/>
        <pt x="1160" y="1659" on="0"/>
        <pt x="1059" y="1659" on="0"/>
        <pt x="994" y="1691" on="0"/>
        <pt x="960" y="1736" on="0"/>
        <pt x="937" y="1794" on="0"/>
        <pt x="934" y="1817" on="1"/>
        <pt x="926" y="1866" on="0"/>
        <pt x="926" y="1880" on="1"/>
      </contour>
    </TTGlyph>
    <TTGlyph name="J" xMin="39" yMin="-428" xMax="1225" yMax="1530">
      <contour>
        <pt x="1073" y="1311" on="1"/>
        <pt x="968" y="1128" on="0"/>
        <pt x="901" y="840" on="1"/>
        <pt x="1034" y="840" on="0"/>
        <pt x="1176" y="862" on="1"/>
        <pt x="1176" y="782" on="0"/>
        <pt x="1145" y="748" on="1"/>
        <pt x="1015" y="712" on="0"/>
        <pt x="872" y="700" on="1"/>
        <pt x="754" y="133" on="1"/>
        <pt x="779" y="148" on="0"/>
        <pt x="978" y="256" on="0"/>
        <pt x="1122" y="360" on="0"/>
        <pt x="1210" y="446" on="1"/>
        <pt x="1210" y="334" on="1"/>
        <pt x="1133" y="242" on="0"/>
        <pt x="819" y="42" on="0"/>
        <pt x="731" y="10" on="1"/>
        <pt x="685" y="-204" on="0"/>
        <pt x="473" y="-428" on="0"/>
        <pt x="330" y="-428" on="1"/>
        <pt x="265" y="-428" on="0"/>
        <pt x="132" y="-369" on="0"/>
        <pt x="39" y="-253" on="0"/>
        <pt x="39" y="-194" on="1"/>
        <pt x="39" y="-61" on="0"/>
        <pt x="123" y="-39" on="1"/>
        <pt x="541" y="74" on="1"/>
        <pt x="559" y="185" on="0"/>
        <pt x="668" y="658" on="0"/>
        <pt x="676" y="698" on="1"/>
        <pt x="676" y="700" on="1"/>
        <pt x="352" y="717" on="0"/>
        <pt x="236" y="848" on="1"/>
        <pt x="204" y="883" on="0"/>
        <pt x="193" y="922" on="1"/>
        <pt x="179" y="949" on="0"/>
        <pt x="213" y="1063" on="0"/>
        <pt x="263" y="1138" on="0"/>
        <pt x="321" y="1214" on="0"/>
        <pt x="408" y="1290" on="0"/>
        <pt x="504" y="1358" on="0"/>
        <pt x="628" y="1417" on="0"/>
        <pt x="694" y="1438" on="1"/>
        <pt x="837" y="1485" on="0"/>
        <pt x="1001" y="1485" on="1"/>
        <pt x="1046" y="1485" on="0"/>
        <pt x="1192" y="1528" on="0"/>
        <pt x="1225" y="1530" on="1"/>
        <pt x="1213" y="1455" on="0"/>
        <pt x="1135" y="1332" on="0"/>
      </contour>
      <contour>
        <pt x="350" y="950" on="1"/>
        <pt x="350" y="906" on="0"/>
        <pt x="527" y="847" on="0"/>
        <pt x="707" y="840" on="1"/>
        <pt x="746" y="1005" on="0"/>
        <pt x="866" y="1239" on="0"/>
        <pt x="969" y="1303" on="1"/>
        <pt x="843" y="1303" on="0"/>
        <pt x="625" y="1241" on="0"/>
        <pt x="489" y="1152" on="0"/>
        <pt x="440" y="1101" on="1"/>
        <pt x="350" y="1007" on="0"/>
      </contour>
      <contour>
        <pt x="524" y="-66" on="1"/>
        <pt x="489" y="-78" on="0"/>
        <pt x="326" y="-113" on="0"/>
        <pt x="292" y="-125" on="1"/>
        <pt x="221" y="-150" on="0"/>
        <pt x="221" y="-264" on="0"/>
        <pt x="290" y="-356" on="0"/>
        <pt x="387" y="-356" on="0"/>
        <pt x="447" y="-295" on="0"/>
        <pt x="468" y="-244" on="1"/>
        <pt x="503" y="-160" on="0"/>
      </contour>
    </TTGlyph>
    <TTGlyph name="Jcircumflex" xMin="39" yMin="-428" xMax="1373" yMax="2095">
      <component glyphName="J" x="0" y="0" flags="0x1004"/>
      <component glyphName="circumflex" x="25" y="713" flags="0x1004"/>
    </TTGlyph>
    <TTGlyph name="K" xMin="0" yMin="-55" xMax="2195" yMax="1518">
      <contour>
        <pt x="317" y="819" on="1"/>
        <pt x="200" y="864" on="0"/>
        <pt x="130" y="923" on="1"/>
        <pt x="0" y="1030" on="0"/>
        <pt x="0" y="1149" on="1"/>
        <pt x="0" y="1360" on="0"/>
        <pt x="240" y="1462" on="1"/>
        <pt x="368" y="1516" on="0"/>
        <pt x="610" y="1516" on="0"/>
        <pt x="962" y="1444" on="0"/>
        <pt x="1100" y="1444" on="0"/>
        <pt x="1245" y="1487" on="0"/>
        <pt x="1278" y="1489" on="1"/>
        <pt x="1255" y="1344" on="0"/>
        <pt x="1161" y="1286" on="1"/>
        <pt x="1085" y="1183" on="0"/>
        <pt x="984" y="948" on="0"/>
        <pt x="938" y="793" on="1"/>
        <pt x="920" y="731" on="1"/>
        <pt x="1056" y="870" on="0"/>
        <pt x="1323" y="1182" on="0"/>
        <pt x="1487" y="1348" on="0"/>
        <pt x="1554" y="1400" on="1"/>
        <pt x="1708" y="1518" on="0"/>
        <pt x="1862" y="1518" on="1"/>
        <pt x="1907" y="1518" on="0"/>
        <pt x="2040" y="1487" on="0"/>
        <pt x="2129" y="1451" on="0"/>
        <pt x="2195" y="1384" on="0"/>
        <pt x="2195" y="1304" on="0"/>
        <pt x="2058" y="1173" on="0"/>
        <pt x="2021" y="1171" on="1"/>
        <pt x="2013" y="1192" on="1"/>
        <pt x="1967" y="1348" on="0"/>
        <pt x="1862" y="1348" on="1"/>
        <pt x="1724" y="1348" on="0"/>
        <pt x="1620" y="1255" on="1"/>
        <pt x="1528" y="1173" on="0"/>
        <pt x="1462" y="1079" on="1"/>
        <pt x="1332" y="893" on="0"/>
        <pt x="1233" y="803" on="1"/>
        <pt x="1442" y="393" on="1"/>
        <pt x="1460" y="360" on="0"/>
        <pt x="1522" y="241" on="0"/>
        <pt x="1552" y="188" on="0"/>
        <pt x="1574" y="158" on="1"/>
        <pt x="1611" y="105" on="0"/>
        <pt x="1689" y="131" on="0"/>
        <pt x="1844" y="271" on="0"/>
        <pt x="2009" y="436" on="1"/>
        <pt x="2009" y="324" on="1"/>
        <pt x="1666" y="-53" on="0"/>
        <pt x="1573" y="-53" on="1"/>
        <pt x="1505" y="-53" on="0"/>
        <pt x="1367" y="98" on="0"/>
        <pt x="1284" y="270" on="1"/>
        <pt x="1085" y="719" on="1"/>
        <pt x="891" y="625" on="1"/>
        <pt x="814" y="325" on="0"/>
        <pt x="754" y="214" on="1"/>
        <pt x="679" y="72" on="0"/>
        <pt x="602" y="19" on="1"/>
        <pt x="493" y="-55" on="0"/>
        <pt x="358" y="-55" on="1"/>
        <pt x="275" y="-55" on="0"/>
        <pt x="142" y="-1" on="0"/>
        <pt x="106" y="39" on="1"/>
        <pt x="31" y="121" on="0"/>
        <pt x="31" y="195" on="1"/>
        <pt x="31" y="295" on="0"/>
        <pt x="180" y="311" on="1"/>
        <pt x="217" y="315" on="0"/>
        <pt x="266" y="315" on="1"/>
        <pt x="266" y="256" on="1"/>
        <pt x="266" y="109" on="0"/>
        <pt x="313" y="71" on="1"/>
        <pt x="335" y="53" on="0"/>
        <pt x="417" y="53" on="0"/>
        <pt x="498" y="102" on="0"/>
        <pt x="557" y="194" on="0"/>
        <pt x="602" y="297" on="0"/>
        <pt x="638" y="432" on="0"/>
        <pt x="661" y="538" on="0"/>
        <pt x="687" y="668" on="0"/>
        <pt x="694" y="698" on="1"/>
        <pt x="715" y="793" on="1"/>
        <pt x="777" y="1083" on="0"/>
        <pt x="878" y="1186" on="1"/>
        <pt x="924" y="1233" on="0"/>
        <pt x="987" y="1266" on="1"/>
        <pt x="945" y="1271" on="0"/>
        <pt x="655" y="1327" on="0"/>
        <pt x="522" y="1327" on="0"/>
        <pt x="398" y="1311" on="0"/>
        <pt x="253" y="1273" on="0"/>
        <pt x="156" y="1194" on="0"/>
        <pt x="156" y="1141" on="1"/>
        <pt x="156" y="1034" on="0"/>
        <pt x="348" y="954" on="1"/>
        <pt x="348" y="857" on="0"/>
      </contour>
    </TTGlyph>
    <TTGlyph name="L" xMin="-147" yMin="-57" xMax="1391" yMax="1518">
      <contour>
        <pt x="324" y="117" on="1"/>
        <pt x="102" y="-29" on="0"/>
        <pt x="-39" y="-29" on="1"/>
        <pt x="-60" y="-29" on="0"/>
        <pt x="-89" y="-16" on="1"/>
        <pt x="-147" y="11" on="0"/>
        <pt x="-147" y="72" on="1"/>
        <pt x="-147" y="109" on="0"/>
        <pt x="-104" y="136" on="1"/>
        <pt x="-59" y="164" on="0"/>
        <pt x="6" y="190" on="1"/>
        <pt x="268" y="309" on="1"/>
        <pt x="500" y="1137" on="1"/>
        <pt x="519" y="1200" on="0"/>
        <pt x="562" y="1236" on="1"/>
        <pt x="584" y="1255" on="0"/>
        <pt x="628" y="1286" on="0"/>
        <pt x="682" y="1326" on="0"/>
        <pt x="816" y="1416" on="0"/>
        <pt x="1009" y="1518" on="0"/>
        <pt x="1053" y="1518" on="1"/>
        <pt x="1182" y="1518" on="0"/>
        <pt x="1391" y="1308" on="0"/>
        <pt x="1391" y="1178" on="1"/>
        <pt x="1391" y="1120" on="0"/>
        <pt x="1303" y="1076" on="0"/>
        <pt x="1126" y="978" on="1"/>
        <pt x="876" y="840" on="0"/>
        <pt x="856" y="840" on="1"/>
        <pt x="817" y="840" on="0"/>
        <pt x="817" y="881" on="1"/>
        <pt x="817" y="929" on="0"/>
        <pt x="992" y="1006" on="1"/>
        <pt x="1058" y="1034" on="0"/>
        <pt x="1170" y="1112" on="0"/>
        <pt x="1171" y="1147" on="1"/>
        <pt x="1166" y="1175" on="1"/>
        <pt x="1135" y="1330" on="0"/>
        <pt x="1070" y="1389" on="1"/>
        <pt x="1039" y="1417" on="0"/>
        <pt x="1001" y="1417" on="1"/>
        <pt x="953" y="1411" on="0"/>
        <pt x="815" y="1273" on="0"/>
        <pt x="712" y="1112" on="0"/>
        <pt x="702" y="1067" on="1"/>
        <pt x="603" y="580" on="0"/>
        <pt x="469" y="266" on="1"/>
        <pt x="482" y="262" on="0"/>
        <pt x="535" y="244" on="0"/>
        <pt x="558" y="238" on="0"/>
        <pt x="649" y="205" on="1"/>
        <pt x="886" y="119" on="0"/>
        <pt x="940" y="119" on="1"/>
        <pt x="1028" y="119" on="0"/>
        <pt x="1220" y="288" on="1"/>
        <pt x="1293" y="351" on="0"/>
        <pt x="1376" y="438" on="1"/>
        <pt x="1376" y="326" on="1"/>
        <pt x="1150" y="100" on="0"/>
        <pt x="1022" y="25" on="1"/>
        <pt x="881" y="-57" on="0"/>
        <pt x="754" y="-57" on="1"/>
        <pt x="746" y="-57" on="0"/>
        <pt x="721" y="-43" on="0"/>
        <pt x="691" y="-28" on="0"/>
        <pt x="628" y="0" on="0"/>
        <pt x="586" y="17" on="1"/>
        <pt x="467" y="66" on="0"/>
      </contour>
    </TTGlyph>
    <TTGlyph name="Ldotaccent" xMin="-208" yMin="-57" xMax="1330" yMax="1518">
      <contour>
        <pt x="263" y="117" on="1"/>
        <pt x="41" y="-29" on="0"/>
        <pt x="-100" y="-29" on="1"/>
        <pt x="-121" y="-29" on="0"/>
        <pt x="-150" y="-16" on="1"/>
        <pt x="-208" y="11" on="0"/>
        <pt x="-208" y="72" on="1"/>
        <pt x="-208" y="109" on="0"/>
        <pt x="-166" y="136" on="1"/>
        <pt x="-120" y="164" on="0"/>
        <pt x="-55" y="190" on="1"/>
        <pt x="207" y="309" on="1"/>
        <pt x="439" y="1137" on="1"/>
        <pt x="458" y="1200" on="0"/>
        <pt x="500" y="1236" on="1"/>
        <pt x="523" y="1255" on="0"/>
        <pt x="567" y="1286" on="0"/>
        <pt x="621" y="1326" on="0"/>
        <pt x="755" y="1416" on="0"/>
        <pt x="948" y="1518" on="0"/>
        <pt x="992" y="1518" on="1"/>
        <pt x="1121" y="1518" on="0"/>
        <pt x="1330" y="1308" on="0"/>
        <pt x="1330" y="1178" on="1"/>
        <pt x="1330" y="1120" on="0"/>
        <pt x="1242" y="1076" on="0"/>
        <pt x="1064" y="978" on="1"/>
        <pt x="815" y="840" on="0"/>
        <pt x="795" y="840" on="1"/>
        <pt x="756" y="840" on="0"/>
        <pt x="756" y="881" on="1"/>
        <pt x="756" y="929" on="0"/>
        <pt x="932" y="1006" on="1"/>
        <pt x="997" y="1034" on="0"/>
        <pt x="1109" y="1112" on="0"/>
        <pt x="1110" y="1147" on="1"/>
        <pt x="1104" y="1175" on="1"/>
        <pt x="1074" y="1330" on="0"/>
        <pt x="1009" y="1389" on="1"/>
        <pt x="978" y="1417" on="0"/>
        <pt x="940" y="1417" on="1"/>
        <pt x="892" y="1411" on="0"/>
        <pt x="754" y="1273" on="0"/>
        <pt x="651" y="1112" on="0"/>
        <pt x="641" y="1067" on="1"/>
        <pt x="542" y="580" on="0"/>
        <pt x="408" y="266" on="1"/>
        <pt x="421" y="262" on="0"/>
        <pt x="474" y="244" on="0"/>
        <pt x="497" y="238" on="0"/>
        <pt x="588" y="205" on="1"/>
        <pt x="825" y="119" on="0"/>
        <pt x="879" y="119" on="1"/>
        <pt x="967" y="119" on="0"/>
        <pt x="1160" y="288" on="1"/>
        <pt x="1232" y="351" on="0"/>
        <pt x="1315" y="438" on="1"/>
        <pt x="1315" y="326" on="1"/>
        <pt x="1089" y="100" on="0"/>
        <pt x="960" y="25" on="1"/>
        <pt x="820" y="-57" on="0"/>
        <pt x="693" y="-57" on="1"/>
        <pt x="685" y="-57" on="0"/>
        <pt x="660" y="-43" on="0"/>
        <pt x="630" y="-28" on="0"/>
        <pt x="567" y="0" on="0"/>
        <pt x="526" y="17" on="1"/>
        <pt x="406" y="66" on="0"/>
      </contour>
      <contour>
        <pt x="1141" y="613" on="0"/>
        <pt x="1037" y="510" on="0"/>
        <pt x="984" y="510" on="1"/>
        <pt x="891" y="510" on="0"/>
        <pt x="891" y="588" on="1"/>
        <pt x="891" y="643" on="0"/>
        <pt x="973" y="746" on="0"/>
        <pt x="1086" y="746" on="0"/>
        <pt x="1141" y="702" on="0"/>
      </contour>
    </TTGlyph>
    <TTGlyph name="Lslash" xMin="-208" yMin="-57" xMax="1330" yMax="1518">
      <contour>
        <pt x="205" y="880" on="1"/>
        <pt x="167" y="880" on="0"/>
        <pt x="167" y="940" on="1"/>
        <pt x="167" y="969" on="0"/>
        <pt x="193" y="989" on="1"/>
        <pt x="237" y="1007" on="0"/>
        <pt x="417" y="1060" on="1"/>
        <pt x="439" y="1137" on="1"/>
        <pt x="449" y="1170" on="0"/>
        <pt x="465" y="1194" on="0"/>
        <pt x="473" y="1209" on="0"/>
        <pt x="493" y="1228" on="0"/>
        <pt x="501" y="1238" on="0"/>
        <pt x="527" y="1257" on="0"/>
        <pt x="532" y="1260" on="1"/>
        <pt x="561" y="1283" on="0"/>
        <pt x="621" y="1326" on="0"/>
        <pt x="755" y="1416" on="0"/>
        <pt x="948" y="1518" on="0"/>
        <pt x="992" y="1518" on="1"/>
        <pt x="1121" y="1518" on="0"/>
        <pt x="1330" y="1308" on="0"/>
        <pt x="1330" y="1178" on="1"/>
        <pt x="1330" y="1120" on="0"/>
        <pt x="1242" y="1076" on="0"/>
        <pt x="1064" y="978" on="1"/>
        <pt x="815" y="840" on="0"/>
        <pt x="795" y="840" on="1"/>
        <pt x="756" y="840" on="0"/>
        <pt x="756" y="881" on="1"/>
        <pt x="756" y="929" on="0"/>
        <pt x="932" y="1006" on="1"/>
        <pt x="997" y="1034" on="0"/>
        <pt x="1109" y="1112" on="0"/>
        <pt x="1110" y="1147" on="1"/>
        <pt x="1104" y="1175" on="1"/>
        <pt x="1074" y="1330" on="0"/>
        <pt x="1009" y="1389" on="1"/>
        <pt x="978" y="1417" on="0"/>
        <pt x="940" y="1417" on="1"/>
        <pt x="882" y="1410" on="0"/>
        <pt x="713" y="1221" on="0"/>
        <pt x="665" y="1128" on="1"/>
        <pt x="668" y="1128" on="0"/>
        <pt x="775" y="1163" on="0"/>
        <pt x="848" y="1163" on="0"/>
        <pt x="862" y="1151" on="0"/>
        <pt x="862" y="1109" on="0"/>
        <pt x="826" y="1050" on="0"/>
        <pt x="760" y="1029" on="0"/>
        <pt x="686" y="1010" on="1"/>
        <pt x="626" y="995" on="1"/>
        <pt x="533" y="561" on="0"/>
        <pt x="408" y="266" on="1"/>
        <pt x="418" y="263" on="0"/>
        <pt x="472" y="245" on="0"/>
        <pt x="500" y="237" on="0"/>
        <pt x="588" y="205" on="1"/>
        <pt x="826" y="119" on="0"/>
        <pt x="879" y="119" on="1"/>
        <pt x="967" y="119" on="0"/>
        <pt x="1160" y="288" on="1"/>
        <pt x="1232" y="351" on="0"/>
        <pt x="1315" y="438" on="1"/>
        <pt x="1315" y="326" on="1"/>
        <pt x="1089" y="100" on="0"/>
        <pt x="960" y="25" on="1"/>
        <pt x="820" y="-57" on="0"/>
        <pt x="693" y="-57" on="1"/>
        <pt x="685" y="-57" on="0"/>
        <pt x="660" y="-43" on="0"/>
        <pt x="630" y="-28" on="0"/>
        <pt x="567" y="0" on="0"/>
        <pt x="526" y="17" on="1"/>
        <pt x="406" y="66" on="0"/>
        <pt x="263" y="117" on="1"/>
        <pt x="41" y="-29" on="0"/>
        <pt x="-100" y="-29" on="1"/>
        <pt x="-121" y="-29" on="0"/>
        <pt x="-150" y="-16" on="1"/>
        <pt x="-208" y="11" on="0"/>
        <pt x="-208" y="72" on="1"/>
        <pt x="-208" y="109" on="0"/>
        <pt x="-166" y="136" on="1"/>
        <pt x="-120" y="164" on="0"/>
        <pt x="-55" y="190" on="1"/>
        <pt x="207" y="309" on="1"/>
        <pt x="380" y="928" on="1"/>
        <pt x="231" y="885" on="1"/>
        <pt x="211" y="880" on="0"/>
      </contour>
    </TTGlyph>
    <TTGlyph name="M" xMin="-412" yMin="-260" xMax="1833" yMax="1579">
      <contour>
        <pt x="639" y="-18" on="1"/>
        <pt x="586" y="-3" on="0"/>
        <pt x="586" y="41" on="1"/>
        <pt x="614" y="1128" on="1"/>
        <pt x="600" y="1128" on="1"/>
        <pt x="121" y="131" on="1"/>
        <pt x="78" y="54" on="0"/>
        <pt x="-80" y="-122" on="0"/>
        <pt x="-286" y="-260" on="0"/>
        <pt x="-365" y="-260" on="1"/>
        <pt x="-412" y="-260" on="0"/>
        <pt x="-412" y="-123" on="1"/>
        <pt x="-412" y="-62" on="0"/>
        <pt x="-322" y="-26" on="1"/>
        <pt x="-216" y="15" on="0"/>
        <pt x="-147" y="46" on="1"/>
        <pt x="-11" y="107" on="0"/>
        <pt x="49" y="213" on="1"/>
        <pt x="130" y="388" on="0"/>
        <pt x="539" y="1244" on="0"/>
        <pt x="608" y="1391" on="1"/>
        <pt x="649" y="1466" on="0"/>
        <pt x="808" y="1561" on="0"/>
        <pt x="895" y="1561" on="1"/>
        <pt x="895" y="1560" on="0"/>
        <pt x="907" y="1554" on="1"/>
        <pt x="872" y="1288" on="0"/>
        <pt x="837" y="585" on="0"/>
        <pt x="831" y="485" on="1"/>
        <pt x="846" y="485" on="1"/>
        <pt x="864" y="524" on="0"/>
        <pt x="904" y="599" on="1"/>
        <pt x="1078" y="931" on="0"/>
        <pt x="1325" y="1432" on="1"/>
        <pt x="1323" y="1430" on="1"/>
        <pt x="1350" y="1474" on="0"/>
        <pt x="1559" y="1577" on="0"/>
        <pt x="1616" y="1579" on="1"/>
        <pt x="1624" y="1575" on="1"/>
        <pt x="1487" y="864" on="0"/>
        <pt x="1411" y="357" on="0"/>
        <pt x="1411" y="141" on="0"/>
        <pt x="1458" y="141" on="1"/>
        <pt x="1530" y="141" on="0"/>
        <pt x="1833" y="438" on="1"/>
        <pt x="1833" y="324" on="1"/>
        <pt x="1443" y="-55" on="0"/>
        <pt x="1284" y="-55" on="1"/>
        <pt x="1171" y="-55" on="0"/>
        <pt x="1171" y="154" on="1"/>
        <pt x="1171" y="306" on="0"/>
        <pt x="1201" y="488" on="1"/>
        <pt x="1244" y="747" on="0"/>
        <pt x="1300" y="1059" on="0"/>
        <pt x="1331" y="1205" on="0"/>
        <pt x="1331" y="1231" on="0"/>
        <pt x="1307" y="1231" on="0"/>
        <pt x="1303" y="1219" on="1"/>
        <pt x="688" y="8" on="0"/>
      </contour>
    </TTGlyph>
    <TTGlyph name="N" xMin="-2" yMin="-57" xMax="1597" yMax="1516">
      <contour>
        <pt x="1341" y="195" on="1"/>
        <pt x="1597" y="440" on="1"/>
        <pt x="1595" y="330" on="1"/>
        <pt x="1478" y="206" on="0"/>
        <pt x="1460" y="193" on="1"/>
        <pt x="1199" y="-57" on="0"/>
        <pt x="1100" y="-57" on="1"/>
        <pt x="963" y="-57" on="0"/>
        <pt x="963" y="608" on="0"/>
        <pt x="1053" y="1051" on="1"/>
        <pt x="1058" y="1073" on="0"/>
        <pt x="1071" y="1120" on="1"/>
        <pt x="1100" y="1226" on="0"/>
        <pt x="1100" y="1309" on="0"/>
        <pt x="1073" y="1309" on="1"/>
        <pt x="1060" y="1309" on="0"/>
        <pt x="948" y="1262" on="0"/>
        <pt x="803" y="1173" on="0"/>
        <pt x="694" y="1083" on="0"/>
        <pt x="597" y="973" on="0"/>
        <pt x="530" y="878" on="0"/>
        <pt x="471" y="760" on="0"/>
        <pt x="435" y="673" on="0"/>
        <pt x="418" y="618" on="1"/>
        <pt x="391" y="532" on="0"/>
        <pt x="372" y="446" on="0"/>
        <pt x="325" y="212" on="0"/>
        <pt x="272" y="0" on="1"/>
        <pt x="66" y="0" on="1"/>
        <pt x="66" y="93" on="0"/>
        <pt x="139" y="405" on="0"/>
        <pt x="264" y="857" on="0"/>
        <pt x="295" y="995" on="1"/>
        <pt x="377" y="1313" on="1"/>
        <pt x="55" y="1085" on="1"/>
        <pt x="25" y="1075" on="1"/>
        <pt x="-2" y="1075" on="0"/>
        <pt x="-2" y="1126" on="1"/>
        <pt x="-2" y="1150" on="0"/>
        <pt x="23" y="1167" on="1"/>
        <pt x="453" y="1438" on="1"/>
        <pt x="574" y="1516" on="0"/>
        <pt x="623" y="1516" on="1"/>
        <pt x="643" y="1516" on="0"/>
        <pt x="643" y="1497" on="1"/>
        <pt x="643" y="1439" on="0"/>
        <pt x="565" y="1134" on="0"/>
        <pt x="565" y="1122" on="1"/>
        <pt x="549" y="1040" on="1"/>
        <pt x="876" y="1429" on="0"/>
        <pt x="1158" y="1501" on="1"/>
        <pt x="1217" y="1516" on="0"/>
        <pt x="1270" y="1516" on="1"/>
        <pt x="1354" y="1516" on="0"/>
        <pt x="1354" y="1423" on="1"/>
        <pt x="1354" y="1395" on="0"/>
        <pt x="1312" y="1190" on="1"/>
        <pt x="1188" y="573" on="0"/>
        <pt x="1188" y="147" on="0"/>
        <pt x="1257" y="147" on="1"/>
        <pt x="1294" y="147" on="0"/>
      </contour>
    </TTGlyph>
    <TTGlyph name="Nacute" xMin="-2" yMin="-57" xMax="1597" yMax="1962">
      <contour>
        <pt x="1341" y="195" on="1"/>
        <pt x="1597" y="440" on="1"/>
        <pt x="1595" y="330" on="1"/>
        <pt x="1478" y="206" on="0"/>
        <pt x="1460" y="193" on="1"/>
        <pt x="1199" y="-57" on="0"/>
        <pt x="1100" y="-57" on="1"/>
        <pt x="963" y="-57" on="0"/>
        <pt x="963" y="608" on="0"/>
        <pt x="1053" y="1051" on="1"/>
        <pt x="1058" y="1073" on="0"/>
        <pt x="1071" y="1120" on="1"/>
        <pt x="1100" y="1226" on="0"/>
        <pt x="1100" y="1309" on="0"/>
        <pt x="1073" y="1309" on="1"/>
        <pt x="1060" y="1309" on="0"/>
        <pt x="948" y="1262" on="0"/>
        <pt x="803" y="1173" on="0"/>
        <pt x="694" y="1083" on="0"/>
        <pt x="597" y="973" on="0"/>
        <pt x="530" y="878" on="0"/>
        <pt x="471" y="760" on="0"/>
        <pt x="435" y="673" on="0"/>
        <pt x="418" y="618" on="1"/>
        <pt x="391" y="532" on="0"/>
        <pt x="372" y="446" on="0"/>
        <pt x="325" y="212" on="0"/>
        <pt x="272" y="0" on="1"/>
        <pt x="66" y="0" on="1"/>
        <pt x="66" y="93" on="0"/>
        <pt x="139" y="405" on="0"/>
        <pt x="264" y="857" on="0"/>
        <pt x="295" y="995" on="1"/>
        <pt x="377" y="1313" on="1"/>
        <pt x="55" y="1085" on="1"/>
        <pt x="25" y="1075" on="1"/>
        <pt x="-2" y="1075" on="0"/>
        <pt x="-2" y="1126" on="1"/>
        <pt x="-2" y="1150" on="0"/>
        <pt x="23" y="1167" on="1"/>
        <pt x="453" y="1438" on="1"/>
        <pt x="574" y="1516" on="0"/>
        <pt x="623" y="1516" on="1"/>
        <pt x="643" y="1516" on="0"/>
        <pt x="643" y="1497" on="1"/>
        <pt x="643" y="1439" on="0"/>
        <pt x="565" y="1134" on="0"/>
        <pt x="565" y="1122" on="1"/>
        <pt x="549" y="1040" on="1"/>
        <pt x="876" y="1429" on="0"/>
        <pt x="1158" y="1501" on="1"/>
        <pt x="1217" y="1516" on="0"/>
        <pt x="1270" y="1516" on="1"/>
        <pt x="1354" y="1516" on="0"/>
        <pt x="1354" y="1423" on="1"/>
        <pt x="1354" y="1395" on="0"/>
        <pt x="1312" y="1190" on="1"/>
        <pt x="1188" y="573" on="0"/>
        <pt x="1188" y="147" on="0"/>
        <pt x="1257" y="147" on="1"/>
        <pt x="1294" y="147" on="0"/>
      </contour>
      <contour>
        <pt x="1314" y="1831" on="1"/>
        <pt x="1226" y="1796" on="1"/>
        <pt x="1115" y="1752" on="0"/>
        <pt x="829" y="1653" on="1"/>
        <pt x="806" y="1708" on="1"/>
        <pt x="894" y="1789" on="0"/>
        <pt x="1152" y="1958" on="0"/>
        <pt x="1226" y="1962" on="1"/>
        <pt x="1260" y="1962" on="0"/>
        <pt x="1333" y="1890" on="0"/>
        <pt x="1333" y="1836" on="0"/>
      </contour>
    </TTGlyph>
    <TTGlyph name="Ntilde" xMin="-2" yMin="-57" xMax="1597" yMax="1901">
      <contour>
        <pt x="1341" y="195" on="1"/>
        <pt x="1597" y="440" on="1"/>
        <pt x="1595" y="330" on="1"/>
        <pt x="1478" y="206" on="0"/>
        <pt x="1460" y="193" on="1"/>
        <pt x="1199" y="-57" on="0"/>
        <pt x="1100" y="-57" on="1"/>
        <pt x="963" y="-57" on="0"/>
        <pt x="963" y="608" on="0"/>
        <pt x="1053" y="1051" on="1"/>
        <pt x="1058" y="1073" on="0"/>
        <pt x="1071" y="1120" on="1"/>
        <pt x="1100" y="1226" on="0"/>
        <pt x="1100" y="1309" on="0"/>
        <pt x="1073" y="1309" on="1"/>
        <pt x="1060" y="1309" on="0"/>
        <pt x="948" y="1262" on="0"/>
        <pt x="803" y="1173" on="0"/>
        <pt x="694" y="1083" on="0"/>
        <pt x="597" y="973" on="0"/>
        <pt x="530" y="878" on="0"/>
        <pt x="471" y="760" on="0"/>
        <pt x="435" y="673" on="0"/>
        <pt x="418" y="618" on="1"/>
        <pt x="391" y="532" on="0"/>
        <pt x="372" y="446" on="0"/>
        <pt x="325" y="212" on="0"/>
        <pt x="272" y="0" on="1"/>
        <pt x="66" y="0" on="1"/>
        <pt x="66" y="93" on="0"/>
        <pt x="139" y="405" on="0"/>
        <pt x="264" y="857" on="0"/>
        <pt x="295" y="995" on="1"/>
        <pt x="377" y="1313" on="1"/>
        <pt x="55" y="1085" on="1"/>
        <pt x="25" y="1075" on="1"/>
        <pt x="-2" y="1075" on="0"/>
        <pt x="-2" y="1126" on="1"/>
        <pt x="-2" y="1150" on="0"/>
        <pt x="23" y="1167" on="1"/>
        <pt x="453" y="1438" on="1"/>
        <pt x="574" y="1516" on="0"/>
        <pt x="623" y="1516" on="1"/>
        <pt x="643" y="1516" on="0"/>
        <pt x="643" y="1497" on="1"/>
        <pt x="643" y="1439" on="0"/>
        <pt x="565" y="1134" on="0"/>
        <pt x="565" y="1122" on="1"/>
        <pt x="549" y="1040" on="1"/>
        <pt x="876" y="1429" on="0"/>
        <pt x="1158" y="1501" on="1"/>
        <pt x="1217" y="1516" on="0"/>
        <pt x="1270" y="1516" on="1"/>
        <pt x="1354" y="1516" on="0"/>
        <pt x="1354" y="1423" on="1"/>
        <pt x="1354" y="1395" on="0"/>
        <pt x="1312" y="1190" on="1"/>
        <pt x="1188" y="573" on="0"/>
        <pt x="1188" y="147" on="0"/>
        <pt x="1257" y="147" on="1"/>
        <pt x="1294" y="147" on="0"/>
      </contour>
      <contour>
        <pt x="805" y="1901" on="1"/>
        <pt x="816" y="1819" on="0"/>
        <pt x="887" y="1819" on="1"/>
        <pt x="926" y="1819" on="0"/>
        <pt x="1139" y="1895" on="0"/>
        <pt x="1233" y="1895" on="0"/>
        <pt x="1298" y="1863" on="0"/>
        <pt x="1332" y="1818" on="0"/>
        <pt x="1355" y="1760" on="0"/>
        <pt x="1358" y="1737" on="1"/>
        <pt x="1366" y="1688" on="0"/>
        <pt x="1366" y="1674" on="1"/>
        <pt x="1241" y="1655" on="1"/>
        <pt x="1225" y="1743" on="0"/>
        <pt x="1166" y="1743" on="1"/>
        <pt x="1133" y="1743" on="0"/>
        <pt x="931" y="1659" on="0"/>
        <pt x="830" y="1659" on="0"/>
        <pt x="765" y="1691" on="0"/>
        <pt x="731" y="1736" on="0"/>
        <pt x="708" y="1794" on="0"/>
        <pt x="704" y="1817" on="1"/>
        <pt x="697" y="1866" on="0"/>
        <pt x="697" y="1880" on="1"/>
      </contour>
    </TTGlyph>
    <TTGlyph name="O" xMin="100" yMin="-57" xMax="1853" yMax="1518">
      <contour>
        <pt x="1521" y="1069" on="0"/>
        <pt x="1585" y="884" on="0"/>
        <pt x="1585" y="699" on="0"/>
        <pt x="1573" y="637" on="1"/>
        <pt x="1710" y="658" on="0"/>
        <pt x="1853" y="743" on="1"/>
        <pt x="1853" y="651" on="1"/>
        <pt x="1718" y="545" on="0"/>
        <pt x="1540" y="510" on="1"/>
        <pt x="1479" y="342" on="0"/>
        <pt x="1212" y="80" on="0"/>
        <pt x="882" y="-57" on="0"/>
        <pt x="715" y="-57" on="1"/>
        <pt x="393" y="-57" on="0"/>
        <pt x="223" y="190" on="1"/>
        <pt x="100" y="368" on="0"/>
        <pt x="100" y="664" on="1"/>
        <pt x="100" y="912" on="0"/>
        <pt x="258" y="1133" on="1"/>
        <pt x="429" y="1373" on="0"/>
        <pt x="696" y="1466" on="1"/>
        <pt x="843" y="1518" on="0"/>
        <pt x="1006" y="1518" on="1"/>
        <pt x="1067" y="1518" on="0"/>
        <pt x="1143" y="1505" on="1"/>
        <pt x="1139" y="1403" on="1"/>
        <pt x="1092" y="1411" on="0"/>
        <pt x="913" y="1411" on="0"/>
        <pt x="684" y="1330" on="0"/>
        <pt x="515" y="1195" on="0"/>
        <pt x="453" y="1110" on="1"/>
        <pt x="328" y="937" on="0"/>
        <pt x="328" y="748" on="1"/>
        <pt x="328" y="405" on="0"/>
        <pt x="547" y="250" on="1"/>
        <pt x="675" y="160" on="0"/>
        <pt x="1031" y="160" on="0"/>
        <pt x="1315" y="347" on="0"/>
        <pt x="1395" y="496" on="1"/>
        <pt x="1382" y="496" on="1"/>
        <pt x="1168" y="496" on="0"/>
        <pt x="1018" y="602" on="1"/>
        <pt x="945" y="654" on="0"/>
        <pt x="858" y="821" on="0"/>
        <pt x="858" y="1059" on="0"/>
        <pt x="1040" y="1239" on="0"/>
        <pt x="1217" y="1239" on="1"/>
        <pt x="1359" y="1239" on="0"/>
        <pt x="1468" y="1125" on="1"/>
      </contour>
      <contour>
        <pt x="1030" y="999" on="1"/>
        <pt x="1030" y="840" on="0"/>
        <pt x="1266" y="630" on="0"/>
        <pt x="1448" y="627" on="1"/>
        <pt x="1475" y="712" on="0"/>
        <pt x="1475" y="799" on="1"/>
        <pt x="1475" y="942" on="0"/>
        <pt x="1328" y="1126" on="0"/>
        <pt x="1190" y="1126" on="1"/>
        <pt x="1109" y="1126" on="0"/>
        <pt x="1030" y="1058" on="0"/>
      </contour>
    </TTGlyph>
    <TTGlyph name="OE" xMin="100" yMin="-57" xMax="2271" yMax="1518">
      <contour>
        <pt x="1319" y="240" on="1"/>
        <pt x="1376" y="238" on="1"/>
        <pt x="1399" y="238" on="0"/>
        <pt x="1413" y="240" on="1"/>
        <pt x="1420" y="238" on="0"/>
        <pt x="1506" y="205" on="1"/>
        <pt x="1732" y="119" on="0"/>
        <pt x="1782" y="119" on="1"/>
        <pt x="1875" y="119" on="0"/>
        <pt x="2068" y="286" on="1"/>
        <pt x="2143" y="351" on="0"/>
        <pt x="2226" y="438" on="1"/>
        <pt x="2226" y="328" on="1"/>
        <pt x="2195" y="300" on="0"/>
        <pt x="2081" y="197" on="0"/>
        <pt x="2027" y="149" on="0"/>
        <pt x="1932" y="70" on="0"/>
        <pt x="1875" y="33" on="0"/>
        <pt x="1790" y="-18" on="0"/>
        <pt x="1756" y="-29" on="1"/>
        <pt x="1669" y="-57" on="0"/>
        <pt x="1595" y="-57" on="1"/>
        <pt x="1590" y="-57" on="0"/>
        <pt x="1562" y="-41" on="0"/>
        <pt x="1531" y="-25" on="0"/>
        <pt x="1465" y="2" on="0"/>
        <pt x="1421" y="18" on="1"/>
        <pt x="1336" y="50" on="0"/>
        <pt x="1145" y="109" on="1"/>
        <pt x="1110" y="119" on="1"/>
        <pt x="1013" y="36" on="0"/>
        <pt x="752" y="-57" on="0"/>
        <pt x="494" y="-57" on="0"/>
        <pt x="291" y="34" on="0"/>
        <pt x="228" y="113" on="1"/>
        <pt x="100" y="274" on="0"/>
        <pt x="100" y="514" on="1"/>
        <pt x="100" y="827" on="0"/>
        <pt x="270" y="1098" on="1"/>
        <pt x="386" y="1283" on="0"/>
        <pt x="580" y="1398" on="1"/>
        <pt x="784" y="1518" on="0"/>
        <pt x="1057" y="1518" on="1"/>
        <pt x="1651" y="1518" on="1"/>
        <pt x="2271" y="1518" on="0"/>
        <pt x="2271" y="1491" on="1"/>
        <pt x="2271" y="1480" on="0"/>
        <pt x="2253" y="1460" on="1"/>
        <pt x="2152" y="1346" on="1"/>
        <pt x="2102" y="1311" on="0"/>
        <pt x="1995" y="1311" on="0"/>
        <pt x="1726" y="1353" on="0"/>
        <pt x="1665" y="1356" on="1"/>
        <pt x="1657" y="1329" on="0"/>
        <pt x="1549" y="913" on="0"/>
        <pt x="1511" y="795" on="1"/>
        <pt x="1641" y="805" on="0"/>
        <pt x="1755" y="805" on="1"/>
        <pt x="1974" y="799" on="1"/>
        <pt x="2011" y="799" on="0"/>
        <pt x="2011" y="736" on="0"/>
        <pt x="1949" y="670" on="0"/>
        <pt x="1911" y="670" on="1"/>
        <pt x="1616" y="670" on="0"/>
        <pt x="1477" y="659" on="1"/>
        <pt x="1477" y="657" on="1"/>
        <pt x="1425" y="467" on="0"/>
        <pt x="1286" y="238" on="1"/>
      </contour>
      <contour>
        <pt x="1217" y="631" on="1"/>
        <pt x="1114" y="616" on="0"/>
        <pt x="1026" y="594" on="1"/>
        <pt x="977" y="594" on="0"/>
        <pt x="977" y="637" on="1"/>
        <pt x="977" y="686" on="0"/>
        <pt x="1036" y="709" on="1"/>
        <pt x="1091" y="730" on="0"/>
        <pt x="1234" y="756" on="0"/>
        <pt x="1253" y="760" on="1"/>
        <pt x="1331" y="1032" on="0"/>
        <pt x="1453" y="1298" on="0"/>
        <pt x="1544" y="1360" on="1"/>
        <pt x="1527" y="1363" on="0"/>
        <pt x="1071" y="1391" on="0"/>
        <pt x="1051" y="1391" on="1"/>
        <pt x="911" y="1391" on="0"/>
        <pt x="670" y="1297" on="0"/>
        <pt x="502" y="1142" on="0"/>
        <pt x="442" y="1041" on="1"/>
        <pt x="326" y="843" on="0"/>
        <pt x="326" y="618" on="1"/>
        <pt x="326" y="425" on="0"/>
        <pt x="430" y="296" on="1"/>
        <pt x="541" y="160" on="0"/>
        <pt x="957" y="160" on="0"/>
        <pt x="1102" y="272" on="1"/>
        <pt x="1104" y="279" on="1"/>
        <pt x="1128" y="314" on="0"/>
      </contour>
    </TTGlyph>
    <TTGlyph name="Oacute" xMin="100" yMin="-57" xMax="1853" yMax="1962">
      <contour>
        <pt x="1521" y="1069" on="0"/>
        <pt x="1585" y="884" on="0"/>
        <pt x="1585" y="699" on="0"/>
        <pt x="1573" y="637" on="1"/>
        <pt x="1710" y="658" on="0"/>
        <pt x="1853" y="743" on="1"/>
        <pt x="1853" y="651" on="1"/>
        <pt x="1718" y="545" on="0"/>
        <pt x="1540" y="510" on="1"/>
        <pt x="1479" y="342" on="0"/>
        <pt x="1212" y="80" on="0"/>
        <pt x="882" y="-57" on="0"/>
        <pt x="715" y="-57" on="1"/>
        <pt x="393" y="-57" on="0"/>
        <pt x="223" y="190" on="1"/>
        <pt x="100" y="368" on="0"/>
        <pt x="100" y="664" on="1"/>
        <pt x="100" y="912" on="0"/>
        <pt x="258" y="1133" on="1"/>
        <pt x="429" y="1373" on="0"/>
        <pt x="696" y="1466" on="1"/>
        <pt x="843" y="1518" on="0"/>
        <pt x="1006" y="1518" on="1"/>
        <pt x="1067" y="1518" on="0"/>
        <pt x="1143" y="1505" on="1"/>
        <pt x="1139" y="1403" on="1"/>
        <pt x="1092" y="1411" on="0"/>
        <pt x="913" y="1411" on="0"/>
        <pt x="684" y="1330" on="0"/>
        <pt x="515" y="1195" on="0"/>
        <pt x="453" y="1110" on="1"/>
        <pt x="328" y="937" on="0"/>
        <pt x="328" y="748" on="1"/>
        <pt x="328" y="405" on="0"/>
        <pt x="547" y="250" on="1"/>
        <pt x="675" y="160" on="0"/>
        <pt x="1031" y="160" on="0"/>
        <pt x="1315" y="347" on="0"/>
        <pt x="1395" y="496" on="1"/>
        <pt x="1382" y="496" on="1"/>
        <pt x="1168" y="496" on="0"/>
        <pt x="1018" y="602" on="1"/>
        <pt x="945" y="654" on="0"/>
        <pt x="858" y="821" on="0"/>
        <pt x="858" y="1059" on="0"/>
        <pt x="1040" y="1239" on="0"/>
        <pt x="1217" y="1239" on="1"/>
        <pt x="1359" y="1239" on="0"/>
        <pt x="1468" y="1125" on="1"/>
      </contour>
      <contour>
        <pt x="1030" y="999" on="1"/>
        <pt x="1030" y="840" on="0"/>
        <pt x="1266" y="630" on="0"/>
        <pt x="1448" y="627" on="1"/>
        <pt x="1475" y="712" on="0"/>
        <pt x="1475" y="799" on="1"/>
        <pt x="1475" y="942" on="0"/>
        <pt x="1328" y="1126" on="0"/>
        <pt x="1190" y="1126" on="1"/>
        <pt x="1109" y="1126" on="0"/>
        <pt x="1030" y="1058" on="0"/>
      </contour>
      <contour>
        <pt x="1464" y="1831" on="1"/>
        <pt x="1376" y="1796" on="1"/>
        <pt x="1265" y="1752" on="0"/>
        <pt x="979" y="1653" on="1"/>
        <pt x="956" y="1708" on="1"/>
        <pt x="1044" y="1789" on="0"/>
        <pt x="1302" y="1958" on="0"/>
        <pt x="1376" y="1962" on="1"/>
        <pt x="1410" y="1962" on="0"/>
        <pt x="1483" y="1890" on="0"/>
        <pt x="1483" y="1836" on="0"/>
      </contour>
    </TTGlyph>
    <TTGlyph name="Ocircumflex" xMin="100" yMin="-57" xMax="1853" yMax="2095">
      <component glyphName="O" x="0" y="0" flags="0x1004"/>
      <component glyphName="circumflex" x="84" y="713" flags="0x1004"/>
    </TTGlyph>
    <TTGlyph name="Odieresis" xMin="100" yMin="-57" xMax="1853" yMax="1898">
      <contour>
        <pt x="1521" y="1069" on="0"/>
        <pt x="1585" y="884" on="0"/>
        <pt x="1585" y="699" on="0"/>
        <pt x="1573" y="637" on="1"/>
        <pt x="1710" y="658" on="0"/>
        <pt x="1853" y="743" on="1"/>
        <pt x="1853" y="651" on="1"/>
        <pt x="1718" y="545" on="0"/>
        <pt x="1540" y="510" on="1"/>
        <pt x="1479" y="342" on="0"/>
        <pt x="1212" y="80" on="0"/>
        <pt x="882" y="-57" on="0"/>
        <pt x="715" y="-57" on="1"/>
        <pt x="393" y="-57" on="0"/>
        <pt x="223" y="190" on="1"/>
        <pt x="100" y="368" on="0"/>
        <pt x="100" y="664" on="1"/>
        <pt x="100" y="912" on="0"/>
        <pt x="258" y="1133" on="1"/>
        <pt x="429" y="1373" on="0"/>
        <pt x="696" y="1466" on="1"/>
        <pt x="843" y="1518" on="0"/>
        <pt x="1006" y="1518" on="1"/>
        <pt x="1067" y="1518" on="0"/>
        <pt x="1143" y="1505" on="1"/>
        <pt x="1139" y="1403" on="1"/>
        <pt x="1092" y="1411" on="0"/>
        <pt x="913" y="1411" on="0"/>
        <pt x="684" y="1330" on="0"/>
        <pt x="515" y="1195" on="0"/>
        <pt x="453" y="1110" on="1"/>
        <pt x="328" y="937" on="0"/>
        <pt x="328" y="748" on="1"/>
        <pt x="328" y="405" on="0"/>
        <pt x="547" y="250" on="1"/>
        <pt x="675" y="160" on="0"/>
        <pt x="1031" y="160" on="0"/>
        <pt x="1315" y="347" on="0"/>
        <pt x="1395" y="496" on="1"/>
        <pt x="1382" y="496" on="1"/>
        <pt x="1168" y="496" on="0"/>
        <pt x="1018" y="602" on="1"/>
        <pt x="945" y="654" on="0"/>
        <pt x="858" y="821" on="0"/>
        <pt x="858" y="1059" on="0"/>
        <pt x="1040" y="1239" on="0"/>
        <pt x="1217" y="1239" on="1"/>
        <pt x="1359" y="1239" on="0"/>
        <pt x="1468" y="1125" on="1"/>
      </contour>
      <contour>
        <pt x="1030" y="999" on="1"/>
        <pt x="1030" y="840" on="0"/>
        <pt x="1266" y="630" on="0"/>
        <pt x="1448" y="627" on="1"/>
        <pt x="1475" y="712" on="0"/>
        <pt x="1475" y="799" on="1"/>
        <pt x="1475" y="942" on="0"/>
        <pt x="1328" y="1126" on="0"/>
        <pt x="1190" y="1126" on="1"/>
        <pt x="1109" y="1126" on="0"/>
        <pt x="1030" y="1058" on="0"/>
      </contour>
      <contour>
        <pt x="1071" y="1766" on="0"/>
        <pt x="965" y="1662" on="0"/>
        <pt x="912" y="1662" on="1"/>
        <pt x="821" y="1662" on="0"/>
        <pt x="821" y="1740" on="1"/>
        <pt x="821" y="1795" on="0"/>
        <pt x="902" y="1898" on="0"/>
        <pt x="1015" y="1898" on="0"/>
        <pt x="1071" y="1853" on="0"/>
      </contour>
      <contour>
        <pt x="1553" y="1765" on="0"/>
        <pt x="1449" y="1662" on="0"/>
        <pt x="1396" y="1662" on="1"/>
        <pt x="1303" y="1662" on="0"/>
        <pt x="1303" y="1740" on="1"/>
        <pt x="1303" y="1795" on="0"/>
        <pt x="1385" y="1898" on="0"/>
        <pt x="1498" y="1898" on="0"/>
        <pt x="1553" y="1854" on="0"/>
      </contour>
    </TTGlyph>
    <TTGlyph name="Ograve" xMin="100" yMin="-57" xMax="1853" yMax="1962">
      <component glyphName="O" x="0" y="0" flags="0x1004"/>
      <component glyphName="grave" x="84" y="713" flags="0x1004"/>
    </TTGlyph>
    <TTGlyph name="Oslash" xMin="100" yMin="-162" xMax="1853" yMax="1537">
      <contour>
        <pt x="1565" y="1537" on="1"/>
        <pt x="1602" y="1537" on="0"/>
        <pt x="1602" y="1509" on="1"/>
        <pt x="1602" y="1492" on="0"/>
        <pt x="1591" y="1477" on="1"/>
        <pt x="1374" y="1198" on="1"/>
        <pt x="1468" y="1146" on="0"/>
        <pt x="1585" y="929" on="0"/>
        <pt x="1585" y="768" on="1"/>
        <pt x="1585" y="699" on="0"/>
        <pt x="1573" y="637" on="1"/>
        <pt x="1710" y="658" on="0"/>
        <pt x="1853" y="743" on="1"/>
        <pt x="1853" y="651" on="1"/>
        <pt x="1718" y="545" on="0"/>
        <pt x="1540" y="510" on="1"/>
        <pt x="1479" y="342" on="0"/>
        <pt x="1212" y="80" on="0"/>
        <pt x="882" y="-57" on="0"/>
        <pt x="566" y="-57" on="0"/>
        <pt x="443" y="1" on="1"/>
        <pt x="401" y="-53" on="1"/>
        <pt x="398" y="-57" on="0"/>
        <pt x="387" y="-72" on="0"/>
        <pt x="354" y="-110" on="0"/>
        <pt x="337" y="-124" on="1"/>
        <pt x="291" y="-162" on="0"/>
        <pt x="209" y="-162" on="0"/>
        <pt x="209" y="-139" on="1"/>
        <pt x="209" y="-121" on="0"/>
        <pt x="275" y="-40" on="0"/>
        <pt x="298" y="-5" on="0"/>
        <pt x="347" y="58" on="1"/>
        <pt x="100" y="243" on="0"/>
        <pt x="100" y="664" on="1"/>
        <pt x="100" y="912" on="0"/>
        <pt x="258" y="1133" on="1"/>
        <pt x="429" y="1373" on="0"/>
        <pt x="696" y="1466" on="1"/>
        <pt x="843" y="1518" on="0"/>
        <pt x="1006" y="1518" on="1"/>
        <pt x="1067" y="1518" on="0"/>
        <pt x="1143" y="1505" on="1"/>
        <pt x="1139" y="1403" on="1"/>
        <pt x="1092" y="1411" on="0"/>
        <pt x="913" y="1411" on="0"/>
        <pt x="684" y="1330" on="0"/>
        <pt x="515" y="1195" on="0"/>
        <pt x="453" y="1110" on="1"/>
        <pt x="328" y="937" on="0"/>
        <pt x="328" y="748" on="1"/>
        <pt x="328" y="433" on="0"/>
        <pt x="515" y="274" on="1"/>
        <pt x="892" y="756" on="1"/>
        <pt x="858" y="833" on="0"/>
        <pt x="858" y="926" on="1"/>
        <pt x="858" y="1059" on="0"/>
        <pt x="1040" y="1239" on="0"/>
        <pt x="1217" y="1239" on="1"/>
        <pt x="1245" y="1239" on="0"/>
        <pt x="1268" y="1235" on="1"/>
        <pt x="1393" y="1393" on="1"/>
        <pt x="1416" y="1420" on="0"/>
        <pt x="1477" y="1502" on="0"/>
        <pt x="1492" y="1515" on="1"/>
        <pt x="1515" y="1536" on="0"/>
        <pt x="1550" y="1536" on="1"/>
      </contour>
      <contour>
        <pt x="1382" y="496" on="1"/>
        <pt x="1252" y="496" on="0"/>
        <pt x="1027" y="580" on="0"/>
        <pt x="955" y="660" on="1"/>
        <pt x="608" y="213" on="1"/>
        <pt x="714" y="160" on="0"/>
        <pt x="842" y="160" on="1"/>
        <pt x="1031" y="160" on="0"/>
        <pt x="1315" y="347" on="0"/>
        <pt x="1395" y="496" on="1"/>
      </contour>
      <contour>
        <pt x="1030" y="999" on="1"/>
        <pt x="1030" y="840" on="0"/>
        <pt x="1266" y="630" on="0"/>
        <pt x="1448" y="627" on="1"/>
        <pt x="1475" y="712" on="0"/>
        <pt x="1475" y="799" on="1"/>
        <pt x="1475" y="942" on="0"/>
        <pt x="1328" y="1126" on="0"/>
        <pt x="1190" y="1126" on="1"/>
        <pt x="1109" y="1126" on="0"/>
        <pt x="1030" y="1058" on="0"/>
      </contour>
    </TTGlyph>
    <TTGlyph name="Otilde" xMin="100" yMin="-57" xMax="1853" yMax="1901">
      <component glyphName="O" x="0" y="0" flags="0x1004"/>
      <component glyphName="tilde" x="606" y="713" flags="0x1004"/>
    </TTGlyph>
    <TTGlyph name="P" xMin="-133" yMin="-180" xMax="1528" yMax="1518">
      <contour>
        <pt x="63" y="176" on="1"/>
        <pt x="61" y="66" on="1"/>
        <pt x="61" y="-82" on="0"/>
        <pt x="178" y="-82" on="1"/>
        <pt x="273" y="-82" on="0"/>
        <pt x="340" y="44" on="1"/>
        <pt x="404" y="163" on="0"/>
        <pt x="432" y="279" on="1"/>
        <pt x="482" y="486" on="0"/>
        <pt x="502" y="614" on="1"/>
        <pt x="612" y="1190" on="1"/>
        <pt x="618" y="1219" on="0"/>
        <pt x="715" y="1247" on="0"/>
        <pt x="752" y="1247" on="1"/>
        <pt x="840" y="1249" on="1"/>
        <pt x="829" y="1171" on="0"/>
        <pt x="761" y="816" on="0"/>
        <pt x="735" y="711" on="1"/>
        <pt x="760" y="711" on="1"/>
        <pt x="1008" y="711" on="0"/>
        <pt x="1145" y="824" on="1"/>
        <pt x="1274" y="932" on="0"/>
        <pt x="1274" y="1204" on="0"/>
        <pt x="1026" y="1393" on="0"/>
        <pt x="799" y="1393" on="1"/>
        <pt x="680" y="1393" on="0"/>
        <pt x="411" y="1320" on="0"/>
        <pt x="209" y="1178" on="0"/>
        <pt x="209" y="1021" on="0"/>
        <pt x="291" y="944" on="0"/>
        <pt x="373" y="913" on="1"/>
        <pt x="373" y="809" on="0"/>
        <pt x="346" y="754" on="1"/>
        <pt x="180" y="805" on="0"/>
        <pt x="94" y="926" on="1"/>
        <pt x="47" y="993" on="0"/>
        <pt x="47" y="1173" on="0"/>
        <pt x="190" y="1347" on="0"/>
        <pt x="307" y="1402" on="1"/>
        <pt x="550" y="1518" on="0"/>
        <pt x="860" y="1518" on="1"/>
        <pt x="1254" y="1518" on="0"/>
        <pt x="1428" y="1340" on="1"/>
        <pt x="1528" y="1237" on="0"/>
        <pt x="1528" y="1100" on="1"/>
        <pt x="1528" y="1007" on="0"/>
        <pt x="1432" y="826" on="0"/>
        <pt x="1263" y="680" on="0"/>
        <pt x="1005" y="590" on="0"/>
        <pt x="856" y="590" on="1"/>
        <pt x="788" y="590" on="0"/>
        <pt x="715" y="602" on="1"/>
        <pt x="640" y="94" on="0"/>
        <pt x="414" y="-86" on="1"/>
        <pt x="297" y="-180" on="0"/>
        <pt x="40" y="-180" on="0"/>
        <pt x="-133" y="-58" on="0"/>
        <pt x="-133" y="53" on="1"/>
        <pt x="-133" y="176" on="0"/>
      </contour>
    </TTGlyph>
    <TTGlyph name="Pr" xMin="-98" yMin="-78" xMax="1808" yMax="1518">
      <contour>
        <pt x="1442" y="182" on="1"/>
        <pt x="1440" y="162" on="1"/>
        <pt x="1440" y="137" on="0"/>
        <pt x="1492" y="137" on="0"/>
        <pt x="1759" y="374" on="0"/>
        <pt x="1808" y="440" on="1"/>
        <pt x="1808" y="328" on="1"/>
        <pt x="1453" y="-29" on="0"/>
        <pt x="1327" y="-29" on="1"/>
        <pt x="1283" y="-29" on="0"/>
        <pt x="1239" y="50" on="0"/>
        <pt x="1239" y="176" on="0"/>
        <pt x="1358" y="430" on="1"/>
        <pt x="1208" y="144" on="0"/>
        <pt x="944" y="32" on="1"/>
        <pt x="773" y="-39" on="0"/>
        <pt x="626" y="-55" on="1"/>
        <pt x="413" y="-78" on="0"/>
        <pt x="35" y="-78" on="0"/>
        <pt x="-68" y="-55" on="1"/>
        <pt x="-98" y="-50" on="0"/>
        <pt x="-98" y="94" on="0"/>
        <pt x="-59" y="94" on="1"/>
        <pt x="-36" y="94" on="0"/>
        <pt x="181" y="70" on="0"/>
        <pt x="257" y="70" on="0"/>
        <pt x="295" y="74" on="1"/>
        <pt x="380" y="150" on="0"/>
        <pt x="438" y="359" on="1"/>
        <pt x="483" y="516" on="0"/>
        <pt x="502" y="614" on="1"/>
        <pt x="612" y="1190" on="1"/>
        <pt x="618" y="1219" on="0"/>
        <pt x="715" y="1247" on="0"/>
        <pt x="752" y="1247" on="1"/>
        <pt x="840" y="1249" on="1"/>
        <pt x="840" y="1216" on="0"/>
        <pt x="783" y="919" on="0"/>
        <pt x="770" y="874" on="1"/>
        <pt x="992" y="899" on="0"/>
        <pt x="1235" y="1063" on="0"/>
        <pt x="1235" y="1258" on="0"/>
        <pt x="1004" y="1393" on="0"/>
        <pt x="799" y="1393" on="1"/>
        <pt x="680" y="1393" on="0"/>
        <pt x="411" y="1320" on="0"/>
        <pt x="209" y="1178" on="0"/>
        <pt x="209" y="1021" on="0"/>
        <pt x="291" y="944" on="0"/>
        <pt x="373" y="913" on="1"/>
        <pt x="373" y="809" on="0"/>
        <pt x="346" y="754" on="1"/>
        <pt x="180" y="805" on="0"/>
        <pt x="94" y="926" on="1"/>
        <pt x="47" y="993" on="0"/>
        <pt x="47" y="1173" on="0"/>
        <pt x="190" y="1347" on="0"/>
        <pt x="307" y="1402" on="1"/>
        <pt x="550" y="1518" on="0"/>
        <pt x="1160" y="1518" on="0"/>
        <pt x="1473" y="1336" on="0"/>
        <pt x="1473" y="1202" on="1"/>
        <pt x="1473" y="1050" on="0"/>
        <pt x="1285" y="920" on="1"/>
        <pt x="1196" y="859" on="0"/>
        <pt x="916" y="775" on="0"/>
        <pt x="750" y="766" on="1"/>
        <pt x="720" y="628" on="0"/>
        <pt x="694" y="527" on="0"/>
        <pt x="657" y="379" on="0"/>
        <pt x="627" y="295" on="0"/>
        <pt x="606" y="240" on="1"/>
        <pt x="569" y="137" on="0"/>
        <pt x="518" y="82" on="1"/>
        <pt x="576" y="93" on="0"/>
        <pt x="641" y="105" on="0"/>
        <pt x="765" y="134" on="0"/>
        <pt x="844" y="161" on="0"/>
        <pt x="963" y="209" on="0"/>
        <pt x="1048" y="261" on="0"/>
        <pt x="1153" y="337" on="0"/>
        <pt x="1194" y="380" on="1"/>
        <pt x="1288" y="482" on="0"/>
        <pt x="1350" y="606" on="1"/>
        <pt x="1228" y="636" on="0"/>
        <pt x="1192" y="700" on="1"/>
        <pt x="1184" y="713" on="0"/>
        <pt x="1184" y="723" on="1"/>
        <pt x="1184" y="778" on="0"/>
        <pt x="1255" y="858" on="0"/>
        <pt x="1317" y="858" on="1"/>
        <pt x="1362" y="858" on="0"/>
        <pt x="1362" y="805" on="1"/>
        <pt x="1362" y="729" on="1"/>
        <pt x="1408" y="688" on="0"/>
        <pt x="1520" y="688" on="1"/>
        <pt x="1640" y="702" on="1"/>
        <pt x="1669" y="702" on="0"/>
        <pt x="1669" y="688" on="1"/>
        <pt x="1669" y="673" on="0"/>
        <pt x="1600" y="542" on="1"/>
        <pt x="1442" y="243" on="0"/>
      </contour>
    </TTGlyph>
    <TTGlyph name="Q" xMin="61" yMin="-518" xMax="1814" yMax="1518">
      <contour>
        <pt x="754" y="-229" on="1"/>
        <pt x="999" y="-192" on="0"/>
        <pt x="1055" y="-152" on="1"/>
        <pt x="1065" y="-272" on="1"/>
        <pt x="1024" y="-294" on="0"/>
        <pt x="793" y="-342" on="0"/>
        <pt x="729" y="-348" on="1"/>
        <pt x="699" y="-420" on="0"/>
        <pt x="537" y="-518" on="0"/>
        <pt x="420" y="-518" on="1"/>
        <pt x="310" y="-518" on="0"/>
        <pt x="218" y="-468" on="1"/>
        <pt x="170" y="-443" on="0"/>
        <pt x="111" y="-350" on="0"/>
        <pt x="111" y="-289" on="1"/>
        <pt x="111" y="-209" on="0"/>
        <pt x="178" y="-209" on="1"/>
        <pt x="563" y="-236" on="1"/>
        <pt x="592" y="-201" on="0"/>
        <pt x="709" y="119" on="0"/>
        <pt x="779" y="314" on="0"/>
        <pt x="792" y="347" on="0"/>
        <pt x="826" y="358" on="1"/>
        <pt x="869" y="371" on="0"/>
        <pt x="977" y="371" on="1"/>
      </contour>
      <contour>
        <pt x="422" y="-334" on="1"/>
        <pt x="301" y="-324" on="1"/>
        <pt x="272" y="-324" on="0"/>
        <pt x="256" y="-330" on="0"/>
        <pt x="256" y="-346" on="1"/>
        <pt x="256" y="-370" on="0"/>
        <pt x="363" y="-424" on="0"/>
        <pt x="474" y="-424" on="0"/>
        <pt x="520" y="-374" on="0"/>
        <pt x="537" y="-334" on="1"/>
      </contour>
      <contour>
        <pt x="1482" y="1069" on="0"/>
        <pt x="1546" y="884" on="0"/>
        <pt x="1546" y="699" on="0"/>
        <pt x="1534" y="637" on="1"/>
        <pt x="1671" y="658" on="0"/>
        <pt x="1814" y="743" on="1"/>
        <pt x="1814" y="651" on="1"/>
        <pt x="1679" y="545" on="0"/>
        <pt x="1501" y="510" on="1"/>
        <pt x="1440" y="342" on="0"/>
        <pt x="1173" y="80" on="0"/>
        <pt x="843" y="-57" on="0"/>
        <pt x="676" y="-57" on="1"/>
        <pt x="354" y="-57" on="0"/>
        <pt x="184" y="190" on="1"/>
        <pt x="61" y="368" on="0"/>
        <pt x="61" y="664" on="1"/>
        <pt x="61" y="912" on="0"/>
        <pt x="218" y="1133" on="1"/>
        <pt x="390" y="1373" on="0"/>
        <pt x="657" y="1466" on="1"/>
        <pt x="804" y="1518" on="0"/>
        <pt x="967" y="1518" on="1"/>
        <pt x="1028" y="1518" on="0"/>
        <pt x="1104" y="1505" on="1"/>
        <pt x="1100" y="1403" on="1"/>
        <pt x="1053" y="1411" on="0"/>
        <pt x="874" y="1411" on="0"/>
        <pt x="645" y="1330" on="0"/>
        <pt x="476" y="1195" on="0"/>
        <pt x="414" y="1110" on="1"/>
        <pt x="289" y="937" on="0"/>
        <pt x="289" y="748" on="1"/>
        <pt x="289" y="405" on="0"/>
        <pt x="508" y="250" on="1"/>
        <pt x="636" y="160" on="0"/>
        <pt x="992" y="160" on="0"/>
        <pt x="1276" y="347" on="0"/>
        <pt x="1356" y="496" on="1"/>
        <pt x="1343" y="496" on="1"/>
        <pt x="1129" y="496" on="0"/>
        <pt x="980" y="602" on="1"/>
        <pt x="906" y="654" on="0"/>
        <pt x="819" y="821" on="0"/>
        <pt x="819" y="1059" on="0"/>
        <pt x="1001" y="1239" on="0"/>
        <pt x="1178" y="1239" on="1"/>
        <pt x="1320" y="1239" on="0"/>
        <pt x="1428" y="1125" on="1"/>
      </contour>
      <contour>
        <pt x="991" y="999" on="1"/>
        <pt x="991" y="840" on="0"/>
        <pt x="1227" y="630" on="0"/>
        <pt x="1409" y="627" on="1"/>
        <pt x="1436" y="712" on="0"/>
        <pt x="1436" y="799" on="1"/>
        <pt x="1436" y="942" on="0"/>
        <pt x="1289" y="1126" on="0"/>
        <pt x="1151" y="1126" on="1"/>
        <pt x="1070" y="1126" on="0"/>
        <pt x="991" y="1058" on="0"/>
      </contour>
    </TTGlyph>
    <TTGlyph name="R" xMin="-115" yMin="-57" xMax="1739" yMax="1518">
      <contour>
        <pt x="762" y="688" on="1"/>
        <pt x="876" y="688" on="0"/>
        <pt x="1076" y="765" on="0"/>
        <pt x="1205" y="884" on="0"/>
        <pt x="1278" y="1021" on="0"/>
        <pt x="1278" y="1083" on="1"/>
        <pt x="1278" y="1206" on="0"/>
        <pt x="1048" y="1393" on="0"/>
        <pt x="870" y="1393" on="1"/>
        <pt x="642" y="1393" on="0"/>
        <pt x="444" y="1314" on="1"/>
        <pt x="350" y="1276" on="0"/>
        <pt x="233" y="1156" on="0"/>
        <pt x="233" y="1019" on="0"/>
        <pt x="321" y="943" on="0"/>
        <pt x="395" y="913" on="1"/>
        <pt x="395" y="822" on="0"/>
        <pt x="369" y="754" on="1"/>
        <pt x="250" y="792" on="0"/>
        <pt x="166" y="865" on="1"/>
        <pt x="72" y="946" on="0"/>
        <pt x="72" y="1171" on="0"/>
        <pt x="215" y="1343" on="0"/>
        <pt x="331" y="1399" on="1"/>
        <pt x="577" y="1518" on="0"/>
        <pt x="891" y="1518" on="1"/>
        <pt x="1145" y="1518" on="0"/>
        <pt x="1340" y="1406" on="1"/>
        <pt x="1432" y="1354" on="0"/>
        <pt x="1544" y="1193" on="0"/>
        <pt x="1544" y="1007" on="0"/>
        <pt x="1469" y="866" on="0"/>
        <pt x="1392" y="814" on="1"/>
        <pt x="1254" y="719" on="0"/>
        <pt x="981" y="649" on="1"/>
        <pt x="1035" y="619" on="0"/>
        <pt x="1153" y="433" on="0"/>
        <pt x="1235" y="245" on="0"/>
        <pt x="1314" y="96" on="0"/>
        <pt x="1356" y="96" on="0"/>
        <pt x="1435" y="148" on="0"/>
        <pt x="1533" y="236" on="0"/>
        <pt x="1620" y="319" on="0"/>
        <pt x="1719" y="417" on="0"/>
        <pt x="1737" y="434" on="1"/>
        <pt x="1739" y="332" on="1"/>
        <pt x="1728" y="320" on="0"/>
        <pt x="1630" y="212" on="0"/>
        <pt x="1586" y="166" on="0"/>
        <pt x="1492" y="72" on="0"/>
        <pt x="1429" y="25" on="0"/>
        <pt x="1386" y="-4" on="1"/>
        <pt x="1307" y="-57" on="0"/>
        <pt x="1183" y="-57" on="0"/>
        <pt x="1107" y="-31" on="0"/>
        <pt x="1055" y="20" on="0"/>
        <pt x="1023" y="65" on="0"/>
        <pt x="984" y="135" on="0"/>
        <pt x="973" y="150" on="1"/>
        <pt x="859" y="452" on="0"/>
        <pt x="748" y="600" on="1"/>
        <pt x="745" y="590" on="0"/>
        <pt x="721" y="497" on="0"/>
        <pt x="698" y="416" on="0"/>
        <pt x="644" y="265" on="0"/>
        <pt x="595" y="173" on="0"/>
        <pt x="511" y="56" on="0"/>
        <pt x="465" y="23" on="1"/>
        <pt x="353" y="-57" on="0"/>
        <pt x="215" y="-57" on="1"/>
        <pt x="94" y="-57" on="0"/>
        <pt x="-6" y="8" on="1"/>
        <pt x="-115" y="79" on="0"/>
        <pt x="-115" y="205" on="1"/>
        <pt x="-115" y="260" on="0"/>
        <pt x="10" y="319" on="0"/>
        <pt x="102" y="319" on="1"/>
        <pt x="109" y="319" on="0"/>
        <pt x="117" y="315" on="1"/>
        <pt x="113" y="275" on="0"/>
        <pt x="113" y="242" on="1"/>
        <pt x="113" y="53" on="0"/>
        <pt x="238" y="53" on="1"/>
        <pt x="305" y="53" on="0"/>
        <pt x="427" y="258" on="0"/>
        <pt x="512" y="568" on="0"/>
        <pt x="576" y="872" on="0"/>
        <pt x="622" y="1134" on="0"/>
        <pt x="636" y="1177" on="0"/>
        <pt x="642" y="1192" on="0"/>
        <pt x="665" y="1225" on="0"/>
        <pt x="680" y="1231" on="1"/>
        <pt x="725" y="1249" on="0"/>
        <pt x="831" y="1249" on="0"/>
        <pt x="858" y="1247" on="1"/>
        <pt x="832" y="1030" on="0"/>
      </contour>
    </TTGlyph>
    <TTGlyph name="Racute" xMin="-115" yMin="-57" xMax="1739" yMax="1962">
      <component glyphName="R" x="0" y="0" flags="0x1004"/>
      <component glyphName="acute" x="-162" y="713" flags="0x1004"/>
    </TTGlyph>
    <TTGlyph name="Rcaron" xMin="-115" yMin="-57" xMax="1739" yMax="2075">
      <contour>
        <pt x="762" y="688" on="1"/>
        <pt x="876" y="688" on="0"/>
        <pt x="1076" y="765" on="0"/>
        <pt x="1205" y="884" on="0"/>
        <pt x="1278" y="1021" on="0"/>
        <pt x="1278" y="1083" on="1"/>
        <pt x="1278" y="1206" on="0"/>
        <pt x="1048" y="1393" on="0"/>
        <pt x="870" y="1393" on="1"/>
        <pt x="642" y="1393" on="0"/>
        <pt x="444" y="1314" on="1"/>
        <pt x="350" y="1276" on="0"/>
        <pt x="233" y="1156" on="0"/>
        <pt x="233" y="1019" on="0"/>
        <pt x="321" y="943" on="0"/>
        <pt x="395" y="913" on="1"/>
        <pt x="395" y="822" on="0"/>
        <pt x="369" y="754" on="1"/>
        <pt x="250" y="792" on="0"/>
        <pt x="166" y="865" on="1"/>
        <pt x="72" y="946" on="0"/>
        <pt x="72" y="1171" on="0"/>
        <pt x="215" y="1343" on="0"/>
        <pt x="331" y="1399" on="1"/>
        <pt x="577" y="1518" on="0"/>
        <pt x="891" y="1518" on="1"/>
        <pt x="1145" y="1518" on="0"/>
        <pt x="1340" y="1406" on="1"/>
        <pt x="1432" y="1354" on="0"/>
        <pt x="1544" y="1193" on="0"/>
        <pt x="1544" y="1007" on="0"/>
        <pt x="1469" y="866" on="0"/>
        <pt x="1392" y="814" on="1"/>
        <pt x="1254" y="719" on="0"/>
        <pt x="981" y="649" on="1"/>
        <pt x="1035" y="619" on="0"/>
        <pt x="1153" y="433" on="0"/>
        <pt x="1235" y="245" on="0"/>
        <pt x="1314" y="96" on="0"/>
        <pt x="1356" y="96" on="0"/>
        <pt x="1435" y="148" on="0"/>
        <pt x="1533" y="236" on="0"/>
        <pt x="1620" y="319" on="0"/>
        <pt x="1719" y="417" on="0"/>
        <pt x="1737" y="434" on="1"/>
        <pt x="1739" y="332" on="1"/>
        <pt x="1728" y="320" on="0"/>
        <pt x="1630" y="212" on="0"/>
        <pt x="1586" y="166" on="0"/>
        <pt x="1492" y="72" on="0"/>
        <pt x="1429" y="25" on="0"/>
        <pt x="1386" y="-4" on="1"/>
        <pt x="1307" y="-57" on="0"/>
        <pt x="1183" y="-57" on="0"/>
        <pt x="1107" y="-31" on="0"/>
        <pt x="1055" y="20" on="0"/>
        <pt x="1023" y="65" on="0"/>
        <pt x="984" y="135" on="0"/>
        <pt x="973" y="150" on="1"/>
        <pt x="859" y="452" on="0"/>
        <pt x="748" y="600" on="1"/>
        <pt x="745" y="590" on="0"/>
        <pt x="721" y="497" on="0"/>
        <pt x="698" y="416" on="0"/>
        <pt x="644" y="265" on="0"/>
        <pt x="595" y="173" on="0"/>
        <pt x="511" y="56" on="0"/>
        <pt x="465" y="23" on="1"/>
        <pt x="353" y="-57" on="0"/>
        <pt x="215" y="-57" on="1"/>
        <pt x="94" y="-57" on="0"/>
        <pt x="-6" y="8" on="1"/>
        <pt x="-115" y="79" on="0"/>
        <pt x="-115" y="205" on="1"/>
        <pt x="-115" y="260" on="0"/>
        <pt x="10" y="319" on="0"/>
        <pt x="102" y="319" on="1"/>
        <pt x="109" y="319" on="0"/>
        <pt x="117" y="315" on="1"/>
        <pt x="113" y="275" on="0"/>
        <pt x="113" y="242" on="1"/>
        <pt x="113" y="53" on="0"/>
        <pt x="238" y="53" on="1"/>
        <pt x="305" y="53" on="0"/>
        <pt x="427" y="258" on="0"/>
        <pt x="512" y="568" on="0"/>
        <pt x="576" y="872" on="0"/>
        <pt x="622" y="1134" on="0"/>
        <pt x="636" y="1177" on="0"/>
        <pt x="642" y="1192" on="0"/>
        <pt x="665" y="1225" on="0"/>
        <pt x="680" y="1231" on="1"/>
        <pt x="725" y="1249" on="0"/>
        <pt x="831" y="1249" on="0"/>
        <pt x="858" y="1247" on="1"/>
        <pt x="832" y="1030" on="0"/>
      </contour>
      <contour>
        <pt x="1249" y="2052" on="1"/>
        <pt x="1169" y="1913" on="0"/>
        <pt x="960" y="1657" on="0"/>
        <pt x="903" y="1657" on="1"/>
        <pt x="878" y="1657" on="0"/>
        <pt x="807" y="1776" on="0"/>
        <pt x="776" y="1853" on="1"/>
        <pt x="724" y="1986" on="0"/>
        <pt x="704" y="2052" on="1"/>
        <pt x="817" y="2075" on="1"/>
        <pt x="887" y="1911" on="0"/>
        <pt x="932" y="1805" on="1"/>
        <pt x="1153" y="2075" on="1"/>
      </contour>
    </TTGlyph>
    <TTGlyph name="Rcommaaccent" xMin="-115" yMin="-541" xMax="1739" yMax="1518">
      <contour>
        <pt x="762" y="688" on="1"/>
        <pt x="876" y="688" on="0"/>
        <pt x="1076" y="765" on="0"/>
        <pt x="1205" y="884" on="0"/>
        <pt x="1278" y="1021" on="0"/>
        <pt x="1278" y="1083" on="1"/>
        <pt x="1278" y="1206" on="0"/>
        <pt x="1048" y="1393" on="0"/>
        <pt x="870" y="1393" on="1"/>
        <pt x="642" y="1393" on="0"/>
        <pt x="444" y="1314" on="1"/>
        <pt x="350" y="1276" on="0"/>
        <pt x="233" y="1156" on="0"/>
        <pt x="233" y="1019" on="0"/>
        <pt x="321" y="943" on="0"/>
        <pt x="395" y="913" on="1"/>
        <pt x="395" y="822" on="0"/>
        <pt x="369" y="754" on="1"/>
        <pt x="250" y="792" on="0"/>
        <pt x="166" y="865" on="1"/>
        <pt x="72" y="946" on="0"/>
        <pt x="72" y="1171" on="0"/>
        <pt x="215" y="1343" on="0"/>
        <pt x="331" y="1399" on="1"/>
        <pt x="577" y="1518" on="0"/>
        <pt x="891" y="1518" on="1"/>
        <pt x="1145" y="1518" on="0"/>
        <pt x="1340" y="1406" on="1"/>
        <pt x="1432" y="1354" on="0"/>
        <pt x="1544" y="1193" on="0"/>
        <pt x="1544" y="1007" on="0"/>
        <pt x="1469" y="866" on="0"/>
        <pt x="1392" y="814" on="1"/>
        <pt x="1254" y="719" on="0"/>
        <pt x="981" y="649" on="1"/>
        <pt x="1035" y="619" on="0"/>
        <pt x="1153" y="433" on="0"/>
        <pt x="1235" y="245" on="0"/>
        <pt x="1314" y="96" on="0"/>
        <pt x="1356" y="96" on="0"/>
        <pt x="1435" y="148" on="0"/>
        <pt x="1533" y="236" on="0"/>
        <pt x="1620" y="319" on="0"/>
        <pt x="1719" y="417" on="0"/>
        <pt x="1737" y="434" on="1"/>
        <pt x="1739" y="332" on="1"/>
        <pt x="1728" y="320" on="0"/>
        <pt x="1630" y="212" on="0"/>
        <pt x="1586" y="166" on="0"/>
        <pt x="1492" y="72" on="0"/>
        <pt x="1429" y="25" on="0"/>
        <pt x="1386" y="-4" on="1"/>
        <pt x="1307" y="-57" on="0"/>
        <pt x="1183" y="-57" on="0"/>
        <pt x="1107" y="-31" on="0"/>
        <pt x="1055" y="20" on="0"/>
        <pt x="1023" y="65" on="0"/>
        <pt x="984" y="135" on="0"/>
        <pt x="973" y="150" on="1"/>
        <pt x="859" y="452" on="0"/>
        <pt x="748" y="600" on="1"/>
        <pt x="745" y="590" on="0"/>
        <pt x="721" y="497" on="0"/>
        <pt x="698" y="416" on="0"/>
        <pt x="644" y="265" on="0"/>
        <pt x="595" y="173" on="0"/>
        <pt x="511" y="56" on="0"/>
        <pt x="465" y="23" on="1"/>
        <pt x="353" y="-57" on="0"/>
        <pt x="215" y="-57" on="1"/>
        <pt x="94" y="-57" on="0"/>
        <pt x="-6" y="8" on="1"/>
        <pt x="-115" y="79" on="0"/>
        <pt x="-115" y="205" on="1"/>
        <pt x="-115" y="260" on="0"/>
        <pt x="10" y="319" on="0"/>
        <pt x="102" y="319" on="1"/>
        <pt x="109" y="319" on="0"/>
        <pt x="117" y="315" on="1"/>
        <pt x="113" y="275" on="0"/>
        <pt x="113" y="242" on="1"/>
        <pt x="113" y="53" on="0"/>
        <pt x="238" y="53" on="1"/>
        <pt x="305" y="53" on="0"/>
        <pt x="427" y="258" on="0"/>
        <pt x="512" y="568" on="0"/>
        <pt x="576" y="872" on="0"/>
        <pt x="622" y="1134" on="0"/>
        <pt x="636" y="1177" on="0"/>
        <pt x="642" y="1192" on="0"/>
        <pt x="665" y="1225" on="0"/>
        <pt x="680" y="1231" on="1"/>
        <pt x="725" y="1249" on="0"/>
        <pt x="831" y="1249" on="0"/>
        <pt x="858" y="1247" on="1"/>
        <pt x="832" y="1030" on="0"/>
      </contour>
      <contour>
        <pt x="757" y="-90" on="1"/>
        <pt x="862" y="-90" on="0"/>
        <pt x="862" y="-166" on="1"/>
        <pt x="862" y="-233" on="0"/>
        <pt x="732" y="-539" on="0"/>
        <pt x="731" y="-541" on="1"/>
        <pt x="673" y="-520" on="1"/>
        <pt x="688" y="-424" on="0"/>
        <pt x="696" y="-326" on="1"/>
        <pt x="657" y="-326" on="0"/>
        <pt x="618" y="-281" on="0"/>
        <pt x="618" y="-193" on="0"/>
        <pt x="701" y="-90" on="0"/>
      </contour>
    </TTGlyph>
    <TTGlyph name="S" xMin="-70" yMin="-180" xMax="1145" yMax="1518">
      <contour>
        <pt x="505" y="1355" on="0"/>
        <pt x="387" y="1215" on="0"/>
        <pt x="387" y="1073" on="0"/>
        <pt x="446" y="967" on="0"/>
        <pt x="542" y="874" on="0"/>
        <pt x="656" y="777" on="0"/>
        <pt x="771" y="670" on="0"/>
        <pt x="819" y="612" on="1"/>
        <pt x="926" y="483" on="0"/>
        <pt x="926" y="324" on="1"/>
        <pt x="926" y="227" on="0"/>
        <pt x="844" y="60" on="0"/>
        <pt x="709" y="-56" on="0"/>
        <pt x="621" y="-98" on="1"/>
        <pt x="449" y="-180" on="0"/>
        <pt x="252" y="-180" on="1"/>
        <pt x="136" y="-180" on="0"/>
        <pt x="38" y="-123" on="1"/>
        <pt x="-10" y="-95" on="0"/>
        <pt x="-70" y="0" on="0"/>
        <pt x="-70" y="124" on="0"/>
        <pt x="26" y="204" on="0"/>
        <pt x="96" y="207" on="1"/>
        <pt x="139" y="209" on="1"/>
        <pt x="135" y="155" on="0"/>
        <pt x="135" y="81" on="0"/>
        <pt x="136" y="53" on="0"/>
        <pt x="143" y="1" on="0"/>
        <pt x="156" y="-24" on="0"/>
        <pt x="184" y="-59" on="0"/>
        <pt x="204" y="-67" on="1"/>
        <pt x="258" y="-88" on="0"/>
        <pt x="376" y="-88" on="0"/>
        <pt x="480" y="-62" on="0"/>
        <pt x="580" y="-10" on="0"/>
        <pt x="620" y="26" on="1"/>
        <pt x="709" y="106" on="0"/>
        <pt x="709" y="219" on="1"/>
        <pt x="709" y="326" on="0"/>
        <pt x="602" y="451" on="1"/>
        <pt x="548" y="514" on="0"/>
        <pt x="325" y="737" on="0"/>
        <pt x="277" y="792" on="1"/>
        <pt x="170" y="916" on="0"/>
        <pt x="170" y="1114" on="0"/>
        <pt x="249" y="1276" on="0"/>
        <pt x="379" y="1391" on="0"/>
        <pt x="462" y="1434" on="1"/>
        <pt x="626" y="1518" on="0"/>
        <pt x="803" y="1518" on="1"/>
        <pt x="923" y="1518" on="0"/>
        <pt x="1026" y="1456" on="1"/>
        <pt x="1079" y="1425" on="0"/>
        <pt x="1145" y="1306" on="0"/>
        <pt x="1145" y="1227" on="1"/>
        <pt x="1145" y="1207" on="0"/>
        <pt x="751" y="977" on="0"/>
        <pt x="698" y="958" on="1"/>
        <pt x="698" y="1057" on="1"/>
        <pt x="712" y="1065" on="0"/>
        <pt x="790" y="1102" on="1"/>
        <pt x="965" y="1184" on="0"/>
        <pt x="965" y="1225" on="1"/>
        <pt x="965" y="1423" on="0"/>
        <pt x="756" y="1423" on="1"/>
        <pt x="671" y="1423" on="0"/>
      </contour>
    </TTGlyph>
    <TTGlyph name="Scaron" xMin="-70" yMin="-180" xMax="1163" yMax="2075">
      <component glyphName="S" x="0" y="0" flags="0x1004"/>
      <component glyphName="caron" x="-248" y="713" flags="0x1004"/>
    </TTGlyph>
    <TTGlyph name="T" xMin="-14" yMin="-57" xMax="1700" yMax="1524">
      <contour>
        <pt x="383" y="672" on="1"/>
        <pt x="224" y="737" on="0"/>
        <pt x="68" y="922" on="0"/>
        <pt x="68" y="1099" on="0"/>
        <pt x="141" y="1243" on="0"/>
        <pt x="277" y="1367" on="0"/>
        <pt x="368" y="1415" on="1"/>
        <pt x="563" y="1518" on="0"/>
        <pt x="817" y="1518" on="1"/>
        <pt x="907" y="1518" on="0"/>
        <pt x="1314" y="1444" on="0"/>
        <pt x="1465" y="1444" on="0"/>
        <pt x="1574" y="1474" on="0"/>
        <pt x="1681" y="1519" on="0"/>
        <pt x="1700" y="1524" on="1"/>
        <pt x="1663" y="1399" on="0"/>
        <pt x="1464" y="1253" on="0"/>
        <pt x="1331" y="1253" on="1"/>
        <pt x="1260" y="1253" on="0"/>
        <pt x="1144" y="1293" on="0"/>
        <pt x="1038" y="1335" on="0"/>
        <pt x="1016" y="1343" on="1"/>
        <pt x="1005" y="1291" on="0"/>
        <pt x="963" y="1072" on="0"/>
        <pt x="940" y="962" on="0"/>
        <pt x="894" y="750" on="0"/>
        <pt x="856" y="623" on="0"/>
        <pt x="796" y="430" on="0"/>
        <pt x="735" y="310" on="0"/>
        <pt x="655" y="159" on="0"/>
        <pt x="564" y="67" on="0"/>
        <pt x="510" y="24" on="1"/>
        <pt x="406" y="-57" on="0"/>
        <pt x="256" y="-57" on="1"/>
        <pt x="69" y="-57" on="0"/>
        <pt x="3" y="95" on="1"/>
        <pt x="-14" y="134" on="0"/>
        <pt x="-14" y="172" on="1"/>
        <pt x="-14" y="328" on="0"/>
        <pt x="199" y="328" on="1"/>
        <pt x="188" y="268" on="0"/>
        <pt x="188" y="122" on="0"/>
        <pt x="236" y="45" on="0"/>
        <pt x="297" y="41" on="1"/>
        <pt x="371" y="41" on="0"/>
        <pt x="509" y="265" on="0"/>
        <pt x="613" y="611" on="0"/>
        <pt x="694" y="953" on="0"/>
        <pt x="761" y="1265" on="0"/>
        <pt x="776" y="1305" on="1"/>
        <pt x="838" y="1372" on="0"/>
        <pt x="932" y="1372" on="1"/>
        <pt x="934" y="1372" on="1"/>
        <pt x="859" y="1393" on="0"/>
        <pt x="797" y="1393" on="1"/>
        <pt x="658" y="1393" on="0"/>
        <pt x="402" y="1284" on="0"/>
        <pt x="252" y="1116" on="0"/>
        <pt x="252" y="1032" on="1"/>
        <pt x="252" y="909" on="0"/>
        <pt x="412" y="840" on="1"/>
        <pt x="412" y="797" on="0"/>
        <pt x="392" y="684" on="0"/>
      </contour>
    </TTGlyph>
    <TTGlyph name="Thorn" xMin="-133" yMin="-180" xMax="1548" yMax="1462">
      <contour>
        <pt x="63" y="176" on="1"/>
        <pt x="61" y="66" on="1"/>
        <pt x="61" y="-82" on="0"/>
        <pt x="178" y="-82" on="1"/>
        <pt x="273" y="-82" on="0"/>
        <pt x="340" y="44" on="1"/>
        <pt x="404" y="163" on="0"/>
        <pt x="432" y="279" on="1"/>
        <pt x="482" y="486" on="0"/>
        <pt x="502" y="614" on="1"/>
        <pt x="649" y="1403" on="1"/>
        <pt x="654" y="1432" on="0"/>
        <pt x="763" y="1462" on="0"/>
        <pt x="801" y="1462" on="1"/>
        <pt x="877" y="1462" on="1"/>
        <pt x="844" y="1266" on="1"/>
        <pt x="870" y="1268" on="0"/>
        <pt x="922" y="1268" on="1"/>
        <pt x="1078" y="1268" on="0"/>
        <pt x="1324" y="1198" on="0"/>
        <pt x="1398" y="1138" on="1"/>
        <pt x="1548" y="1018" on="0"/>
        <pt x="1548" y="848" on="1"/>
        <pt x="1548" y="667" on="0"/>
        <pt x="1382" y="524" on="1"/>
        <pt x="1303" y="456" on="0"/>
        <pt x="1054" y="373" on="0"/>
        <pt x="797" y="373" on="0"/>
        <pt x="674" y="397" on="1"/>
        <pt x="581" y="23" on="0"/>
        <pt x="387" y="-109" on="1"/>
        <pt x="282" y="-180" on="0"/>
        <pt x="40" y="-180" on="0"/>
        <pt x="-133" y="-58" on="0"/>
        <pt x="-133" y="53" on="1"/>
        <pt x="-133" y="176" on="0"/>
      </contour>
      <contour>
        <pt x="1193" y="1088" on="0"/>
        <pt x="996" y="1145" on="0"/>
        <pt x="840" y="1145" on="0"/>
        <pt x="821" y="1143" on="1"/>
        <pt x="727" y="646" on="0"/>
        <pt x="694" y="506" on="1"/>
        <pt x="771" y="496" on="0"/>
        <pt x="864" y="496" on="1"/>
        <pt x="1115" y="496" on="0"/>
        <pt x="1384" y="681" on="0"/>
        <pt x="1384" y="811" on="1"/>
        <pt x="1384" y="942" on="0"/>
        <pt x="1255" y="1040" on="1"/>
      </contour>
    </TTGlyph>
    <TTGlyph name="U" xMin="-43" yMin="-57" xMax="1821" yMax="1530">
      <contour>
        <pt x="799" y="1509" on="1"/>
        <pt x="799" y="1498" on="0"/>
        <pt x="693" y="1260" on="0"/>
        <pt x="567" y="965" on="0"/>
        <pt x="461" y="590" on="0"/>
        <pt x="461" y="457" on="1"/>
        <pt x="461" y="147" on="0"/>
        <pt x="745" y="147" on="1"/>
        <pt x="880" y="147" on="0"/>
        <pt x="1129" y="284" on="0"/>
        <pt x="1306" y="504" on="0"/>
        <pt x="1417" y="783" on="0"/>
        <pt x="1425" y="924" on="1"/>
        <pt x="1367" y="933" on="0"/>
        <pt x="1256" y="1009" on="0"/>
        <pt x="1224" y="1044" on="1"/>
        <pt x="1147" y="1128" on="0"/>
        <pt x="1147" y="1247" on="1"/>
        <pt x="1147" y="1342" on="0"/>
        <pt x="1195" y="1426" on="1"/>
        <pt x="1249" y="1520" on="0"/>
        <pt x="1362" y="1520" on="1"/>
        <pt x="1409" y="1520" on="0"/>
        <pt x="1481" y="1459" on="0"/>
        <pt x="1519" y="1363" on="0"/>
        <pt x="1547" y="1248" on="0"/>
        <pt x="1551" y="1140" on="0"/>
        <pt x="1557" y="1053" on="0"/>
        <pt x="1554" y="1026" on="0"/>
        <pt x="1554" y="1024" on="1"/>
        <pt x="1640" y="1038" on="0"/>
        <pt x="1744" y="1103" on="1"/>
        <pt x="1785" y="1129" on="0"/>
        <pt x="1821" y="1161" on="1"/>
        <pt x="1821" y="1047" on="1"/>
        <pt x="1678" y="942" on="0"/>
        <pt x="1552" y="920" on="1"/>
        <pt x="1513" y="610" on="0"/>
        <pt x="1340" y="360" on="1"/>
        <pt x="1157" y="97" on="0"/>
        <pt x="904" y="-4" on="1"/>
        <pt x="769" y="-57" on="0"/>
        <pt x="518" y="-57" on="0"/>
        <pt x="361" y="10" on="0"/>
        <pt x="314" y="72" on="1"/>
        <pt x="223" y="195" on="0"/>
        <pt x="223" y="619" on="0"/>
        <pt x="402" y="1126" on="0"/>
        <pt x="537" y="1311" on="1"/>
        <pt x="537" y="1315" on="0"/>
        <pt x="529" y="1315" on="0"/>
        <pt x="520" y="1309" on="1"/>
        <pt x="406" y="1221" on="1"/>
        <pt x="388" y="1211" on="0"/>
        <pt x="318" y="1167" on="1"/>
        <pt x="123" y="1045" on="0"/>
        <pt x="-43" y="946" on="1"/>
        <pt x="-43" y="1057" on="1"/>
        <pt x="67" y="1121" on="0"/>
        <pt x="487" y="1380" on="0"/>
        <pt x="744" y="1530" on="0"/>
        <pt x="799" y="1530" on="0"/>
      </contour>
      <contour>
        <pt x="1430" y="1028" on="1"/>
        <pt x="1432" y="1067" on="1"/>
        <pt x="1432" y="1167" on="0"/>
        <pt x="1370" y="1339" on="0"/>
        <pt x="1321" y="1339" on="1"/>
        <pt x="1266" y="1339" on="0"/>
        <pt x="1266" y="1172" on="0"/>
        <pt x="1361" y="1043" on="0"/>
      </contour>
    </TTGlyph>
    <TTGlyph name="Uacute" xMin="-43" yMin="-57" xMax="1821" yMax="1962">
      <contour>
        <pt x="799" y="1509" on="1"/>
        <pt x="799" y="1498" on="0"/>
        <pt x="693" y="1260" on="0"/>
        <pt x="567" y="965" on="0"/>
        <pt x="461" y="590" on="0"/>
        <pt x="461" y="457" on="1"/>
        <pt x="461" y="147" on="0"/>
        <pt x="745" y="147" on="1"/>
        <pt x="880" y="147" on="0"/>
        <pt x="1129" y="284" on="0"/>
        <pt x="1306" y="504" on="0"/>
        <pt x="1417" y="783" on="0"/>
        <pt x="1425" y="924" on="1"/>
        <pt x="1367" y="933" on="0"/>
        <pt x="1256" y="1009" on="0"/>
        <pt x="1224" y="1044" on="1"/>
        <pt x="1147" y="1128" on="0"/>
        <pt x="1147" y="1247" on="1"/>
        <pt x="1147" y="1342" on="0"/>
        <pt x="1195" y="1426" on="1"/>
        <pt x="1249" y="1520" on="0"/>
        <pt x="1362" y="1520" on="1"/>
        <pt x="1409" y="1520" on="0"/>
        <pt x="1481" y="1459" on="0"/>
        <pt x="1519" y="1363" on="0"/>
        <pt x="1547" y="1248" on="0"/>
        <pt x="1551" y="1140" on="0"/>
        <pt x="1557" y="1053" on="0"/>
        <pt x="1554" y="1026" on="0"/>
        <pt x="1554" y="1024" on="1"/>
        <pt x="1640" y="1038" on="0"/>
        <pt x="1744" y="1103" on="1"/>
        <pt x="1785" y="1129" on="0"/>
        <pt x="1821" y="1161" on="1"/>
        <pt x="1821" y="1047" on="1"/>
        <pt x="1678" y="942" on="0"/>
        <pt x="1552" y="920" on="1"/>
        <pt x="1513" y="610" on="0"/>
        <pt x="1340" y="360" on="1"/>
        <pt x="1157" y="97" on="0"/>
        <pt x="904" y="-4" on="1"/>
        <pt x="769" y="-57" on="0"/>
        <pt x="518" y="-57" on="0"/>
        <pt x="361" y="10" on="0"/>
        <pt x="314" y="72" on="1"/>
        <pt x="223" y="195" on="0"/>
        <pt x="223" y="619" on="0"/>
        <pt x="402" y="1126" on="0"/>
        <pt x="537" y="1311" on="1"/>
        <pt x="537" y="1315" on="0"/>
        <pt x="529" y="1315" on="0"/>
        <pt x="520" y="1309" on="1"/>
        <pt x="406" y="1221" on="1"/>
        <pt x="388" y="1211" on="0"/>
        <pt x="318" y="1167" on="1"/>
        <pt x="123" y="1045" on="0"/>
        <pt x="-43" y="946" on="1"/>
        <pt x="-43" y="1057" on="1"/>
        <pt x="67" y="1121" on="0"/>
        <pt x="487" y="1380" on="0"/>
        <pt x="744" y="1530" on="0"/>
        <pt x="799" y="1530" on="0"/>
      </contour>
      <contour>
        <pt x="1430" y="1028" on="1"/>
        <pt x="1432" y="1067" on="1"/>
        <pt x="1432" y="1167" on="0"/>
        <pt x="1370" y="1339" on="0"/>
        <pt x="1321" y="1339" on="1"/>
        <pt x="1266" y="1339" on="0"/>
        <pt x="1266" y="1172" on="0"/>
        <pt x="1361" y="1043" on="0"/>
      </contour>
      <contour>
        <pt x="1374" y="1831" on="1"/>
        <pt x="1286" y="1796" on="1"/>
        <pt x="1175" y="1752" on="0"/>
        <pt x="889" y="1653" on="1"/>
        <pt x="866" y="1708" on="1"/>
        <pt x="954" y="1789" on="0"/>
        <pt x="1212" y="1958" on="0"/>
        <pt x="1286" y="1962" on="1"/>
        <pt x="1320" y="1962" on="0"/>
        <pt x="1393" y="1890" on="0"/>
        <pt x="1393" y="1836" on="0"/>
      </contour>
    </TTGlyph>
    <TTGlyph name="Ucircumflex" xMin="-43" yMin="-57" xMax="1821" yMax="2095">
      <component glyphName="U" x="0" y="0" flags="0x1004"/>
      <component glyphName="circumflex" x="-6" y="713" flags="0x1004"/>
    </TTGlyph>
    <TTGlyph name="Udieresis" xMin="-43" yMin="-57" xMax="1821" yMax="1898">
      <contour>
        <pt x="799" y="1509" on="1"/>
        <pt x="799" y="1498" on="0"/>
        <pt x="693" y="1260" on="0"/>
        <pt x="567" y="965" on="0"/>
        <pt x="461" y="590" on="0"/>
        <pt x="461" y="457" on="1"/>
        <pt x="461" y="147" on="0"/>
        <pt x="745" y="147" on="1"/>
        <pt x="880" y="147" on="0"/>
        <pt x="1129" y="284" on="0"/>
        <pt x="1306" y="504" on="0"/>
        <pt x="1417" y="783" on="0"/>
        <pt x="1425" y="924" on="1"/>
        <pt x="1367" y="933" on="0"/>
        <pt x="1256" y="1009" on="0"/>
        <pt x="1224" y="1044" on="1"/>
        <pt x="1147" y="1128" on="0"/>
        <pt x="1147" y="1247" on="1"/>
        <pt x="1147" y="1342" on="0"/>
        <pt x="1195" y="1426" on="1"/>
        <pt x="1249" y="1520" on="0"/>
        <pt x="1362" y="1520" on="1"/>
        <pt x="1409" y="1520" on="0"/>
        <pt x="1481" y="1459" on="0"/>
        <pt x="1519" y="1363" on="0"/>
        <pt x="1547" y="1248" on="0"/>
        <pt x="1551" y="1140" on="0"/>
        <pt x="1557" y="1053" on="0"/>
        <pt x="1554" y="1026" on="0"/>
        <pt x="1554" y="1024" on="1"/>
        <pt x="1640" y="1038" on="0"/>
        <pt x="1744" y="1103" on="1"/>
        <pt x="1785" y="1129" on="0"/>
        <pt x="1821" y="1161" on="1"/>
        <pt x="1821" y="1047" on="1"/>
        <pt x="1678" y="942" on="0"/>
        <pt x="1552" y="920" on="1"/>
        <pt x="1513" y="610" on="0"/>
        <pt x="1340" y="360" on="1"/>
        <pt x="1157" y="97" on="0"/>
        <pt x="904" y="-4" on="1"/>
        <pt x="769" y="-57" on="0"/>
        <pt x="518" y="-57" on="0"/>
        <pt x="361" y="10" on="0"/>
        <pt x="314" y="72" on="1"/>
        <pt x="223" y="195" on="0"/>
        <pt x="223" y="619" on="0"/>
        <pt x="402" y="1126" on="0"/>
        <pt x="537" y="1311" on="1"/>
        <pt x="537" y="1315" on="0"/>
        <pt x="529" y="1315" on="0"/>
        <pt x="520" y="1309" on="1"/>
        <pt x="406" y="1221" on="1"/>
        <pt x="388" y="1211" on="0"/>
        <pt x="318" y="1167" on="1"/>
        <pt x="123" y="1045" on="0"/>
        <pt x="-43" y="946" on="1"/>
        <pt x="-43" y="1057" on="1"/>
        <pt x="67" y="1121" on="0"/>
        <pt x="487" y="1380" on="0"/>
        <pt x="744" y="1530" on="0"/>
        <pt x="799" y="1530" on="0"/>
      </contour>
      <contour>
        <pt x="1430" y="1028" on="1"/>
        <pt x="1432" y="1067" on="1"/>
        <pt x="1432" y="1167" on="0"/>
        <pt x="1370" y="1339" on="0"/>
        <pt x="1321" y="1339" on="1"/>
        <pt x="1266" y="1339" on="0"/>
        <pt x="1266" y="1172" on="0"/>
        <pt x="1361" y="1043" on="0"/>
      </contour>
      <contour>
        <pt x="980" y="1766" on="0"/>
        <pt x="874" y="1662" on="0"/>
        <pt x="822" y="1662" on="1"/>
        <pt x="730" y="1662" on="0"/>
        <pt x="730" y="1740" on="1"/>
        <pt x="730" y="1795" on="0"/>
        <pt x="811" y="1898" on="0"/>
        <pt x="924" y="1898" on="0"/>
        <pt x="980" y="1853" on="0"/>
      </contour>
      <contour>
        <pt x="1462" y="1765" on="0"/>
        <pt x="1358" y="1662" on="0"/>
        <pt x="1304" y="1662" on="1"/>
        <pt x="1212" y="1662" on="0"/>
        <pt x="1212" y="1740" on="1"/>
        <pt x="1212" y="1795" on="0"/>
        <pt x="1294" y="1898" on="0"/>
        <pt x="1407" y="1898" on="0"/>
        <pt x="1462" y="1854" on="0"/>
      </contour>
    </TTGlyph>
    <TTGlyph name="Ugrave" xMin="-43" yMin="-57" xMax="1821" yMax="1962">
      <component glyphName="U" x="0" y="0" flags="0x1004"/>
      <component glyphName="grave" x="-6" y="713" flags="0x1004"/>
    </TTGlyph>
    <TTGlyph name="Umacron" xMin="-43" yMin="-57" xMax="1821" yMax="1812">
      <contour>
        <pt x="799" y="1509" on="1"/>
        <pt x="799" y="1498" on="0"/>
        <pt x="693" y="1260" on="0"/>
        <pt x="567" y="965" on="0"/>
        <pt x="461" y="590" on="0"/>
        <pt x="461" y="457" on="1"/>
        <pt x="461" y="147" on="0"/>
        <pt x="745" y="147" on="1"/>
        <pt x="880" y="147" on="0"/>
        <pt x="1129" y="284" on="0"/>
        <pt x="1306" y="504" on="0"/>
        <pt x="1417" y="783" on="0"/>
        <pt x="1425" y="924" on="1"/>
        <pt x="1367" y="933" on="0"/>
        <pt x="1256" y="1009" on="0"/>
        <pt x="1224" y="1044" on="1"/>
        <pt x="1147" y="1128" on="0"/>
        <pt x="1147" y="1247" on="1"/>
        <pt x="1147" y="1342" on="0"/>
        <pt x="1195" y="1426" on="1"/>
        <pt x="1249" y="1520" on="0"/>
        <pt x="1362" y="1520" on="1"/>
        <pt x="1409" y="1520" on="0"/>
        <pt x="1481" y="1459" on="0"/>
        <pt x="1519" y="1363" on="0"/>
        <pt x="1547" y="1248" on="0"/>
        <pt x="1551" y="1140" on="0"/>
        <pt x="1557" y="1053" on="0"/>
        <pt x="1554" y="1026" on="0"/>
        <pt x="1554" y="1024" on="1"/>
        <pt x="1640" y="1038" on="0"/>
        <pt x="1744" y="1103" on="1"/>
        <pt x="1785" y="1129" on="0"/>
        <pt x="1821" y="1161" on="1"/>
        <pt x="1821" y="1047" on="1"/>
        <pt x="1678" y="942" on="0"/>
        <pt x="1552" y="920" on="1"/>
        <pt x="1513" y="610" on="0"/>
        <pt x="1340" y="360" on="1"/>
        <pt x="1157" y="97" on="0"/>
        <pt x="904" y="-4" on="1"/>
        <pt x="769" y="-57" on="0"/>
        <pt x="518" y="-57" on="0"/>
        <pt x="361" y="10" on="0"/>
        <pt x="314" y="72" on="1"/>
        <pt x="223" y="195" on="0"/>
        <pt x="223" y="619" on="0"/>
        <pt x="402" y="1126" on="0"/>
        <pt x="537" y="1311" on="1"/>
        <pt x="537" y="1315" on="0"/>
        <pt x="529" y="1315" on="0"/>
        <pt x="520" y="1309" on="1"/>
        <pt x="406" y="1221" on="1"/>
        <pt x="388" y="1211" on="0"/>
        <pt x="318" y="1167" on="1"/>
        <pt x="123" y="1045" on="0"/>
        <pt x="-43" y="946" on="1"/>
        <pt x="-43" y="1057" on="1"/>
        <pt x="67" y="1121" on="0"/>
        <pt x="487" y="1380" on="0"/>
        <pt x="744" y="1530" on="0"/>
        <pt x="799" y="1530" on="0"/>
      </contour>
      <contour>
        <pt x="1430" y="1028" on="1"/>
        <pt x="1432" y="1067" on="1"/>
        <pt x="1432" y="1167" on="0"/>
        <pt x="1370" y="1339" on="0"/>
        <pt x="1321" y="1339" on="1"/>
        <pt x="1266" y="1339" on="0"/>
        <pt x="1266" y="1172" on="0"/>
        <pt x="1361" y="1043" on="0"/>
      </contour>
      <contour>
        <pt x="1295" y="1675" on="1"/>
        <pt x="1157" y="1677" on="1"/>
        <pt x="1067" y="1677" on="0"/>
        <pt x="811" y="1659" on="1"/>
        <pt x="754" y="1659" on="0"/>
        <pt x="754" y="1700" on="1"/>
        <pt x="754" y="1770" on="0"/>
        <pt x="803" y="1786" on="1"/>
        <pt x="829" y="1793" on="0"/>
        <pt x="1070" y="1812" on="0"/>
        <pt x="1186" y="1812" on="1"/>
        <pt x="1395" y="1812" on="0"/>
        <pt x="1395" y="1771" on="1"/>
        <pt x="1395" y="1741" on="0"/>
        <pt x="1333" y="1675" on="0"/>
      </contour>
    </TTGlyph>
    <TTGlyph name="Uogonek" xMin="-43" yMin="-553" xMax="1821" yMax="1530">
      <contour>
        <pt x="799" y="1509" on="1"/>
        <pt x="799" y="1530" on="0"/>
        <pt x="744" y="1530" on="0"/>
        <pt x="487" y="1380" on="0"/>
        <pt x="67" y="1121" on="0"/>
        <pt x="-43" y="1057" on="1"/>
        <pt x="-43" y="946" on="1"/>
        <pt x="123" y="1045" on="0"/>
        <pt x="388" y="1211" on="0"/>
        <pt x="406" y="1221" on="1"/>
        <pt x="520" y="1309" on="1"/>
        <pt x="529" y="1315" on="0"/>
        <pt x="537" y="1315" on="0"/>
        <pt x="537" y="1311" on="1"/>
        <pt x="402" y="1126" on="0"/>
        <pt x="223" y="619" on="0"/>
        <pt x="223" y="403" on="1"/>
        <pt x="223" y="195" on="0"/>
        <pt x="314" y="72" on="1"/>
        <pt x="411" y="-57" on="0"/>
        <pt x="625" y="-57" on="1"/>
        <pt x="769" y="-57" on="0"/>
        <pt x="1039" y="50" on="0"/>
        <pt x="1254" y="237" on="0"/>
        <pt x="1340" y="360" on="1"/>
        <pt x="1513" y="610" on="0"/>
        <pt x="1552" y="920" on="1"/>
        <pt x="1678" y="942" on="0"/>
        <pt x="1821" y="1047" on="1"/>
        <pt x="1821" y="1161" on="1"/>
        <pt x="1751" y="1099" on="0"/>
        <pt x="1641" y="1050" on="0"/>
        <pt x="1610" y="1040" on="1"/>
        <pt x="1576" y="1028" on="0"/>
        <pt x="1554" y="1024" on="1"/>
        <pt x="1554" y="1026" on="0"/>
        <pt x="1557" y="1053" on="0"/>
        <pt x="1551" y="1140" on="0"/>
        <pt x="1547" y="1248" on="0"/>
        <pt x="1519" y="1363" on="0"/>
        <pt x="1481" y="1459" on="0"/>
        <pt x="1409" y="1520" on="0"/>
        <pt x="1306" y="1520" on="0"/>
        <pt x="1219" y="1468" on="0"/>
        <pt x="1195" y="1426" on="1"/>
        <pt x="1147" y="1342" on="0"/>
        <pt x="1147" y="1187" on="0"/>
        <pt x="1191" y="1080" on="0"/>
        <pt x="1256" y="1009" on="0"/>
        <pt x="1296" y="982" on="1"/>
        <pt x="1367" y="933" on="0"/>
        <pt x="1425" y="924" on="1"/>
        <pt x="1417" y="783" on="0"/>
        <pt x="1306" y="504" on="0"/>
        <pt x="1129" y="284" on="0"/>
        <pt x="880" y="147" on="0"/>
        <pt x="745" y="147" on="1"/>
        <pt x="461" y="147" on="0"/>
        <pt x="461" y="457" on="1"/>
        <pt x="461" y="590" on="0"/>
        <pt x="567" y="965" on="0"/>
        <pt x="693" y="1260" on="0"/>
        <pt x="799" y="1498" on="0"/>
      </contour>
      <contour>
        <pt x="1321" y="1339" on="1"/>
        <pt x="1370" y="1339" on="0"/>
        <pt x="1432" y="1167" on="0"/>
        <pt x="1432" y="1067" on="1"/>
        <pt x="1432" y="1061" on="0"/>
        <pt x="1430" y="1034" on="0"/>
        <pt x="1430" y="1028" on="1"/>
        <pt x="1361" y="1043" on="0"/>
        <pt x="1266" y="1172" on="0"/>
        <pt x="1266" y="1339" on="0"/>
      </contour>
      <contour>
        <pt x="762" y="-547" on="1"/>
        <pt x="727" y="-553" on="0"/>
        <pt x="648" y="-553" on="0"/>
        <pt x="568" y="-538" on="0"/>
        <pt x="481" y="-500" on="0"/>
        <pt x="448" y="-472" on="1"/>
        <pt x="370" y="-407" on="0"/>
        <pt x="370" y="-295" on="1"/>
        <pt x="370" y="-179" on="0"/>
        <pt x="454" y="-105" on="1"/>
        <pt x="520" y="-48" on="0"/>
        <pt x="618" y="-2" on="0"/>
        <pt x="620" y="0" on="1"/>
        <pt x="768" y="0" on="1"/>
        <pt x="750" y="0" on="0"/>
        <pt x="642" y="-62" on="0"/>
        <pt x="571" y="-119" on="0"/>
        <pt x="520" y="-206" on="0"/>
        <pt x="520" y="-301" on="0"/>
        <pt x="569" y="-374" on="0"/>
        <pt x="634" y="-412" on="0"/>
        <pt x="672" y="-424" on="1"/>
        <pt x="730" y="-442" on="0"/>
        <pt x="762" y="-442" on="1"/>
      </contour>
    </TTGlyph>
    <TTGlyph name="V" xMin="-63" yMin="-57" xMax="1774" yMax="1530">
      <contour>
        <pt x="467" y="1380" on="0"/>
        <pt x="724" y="1530" on="0"/>
        <pt x="778" y="1530" on="0"/>
        <pt x="778" y="1509" on="1"/>
        <pt x="778" y="1530" on="0"/>
        <pt x="660" y="1136" on="0"/>
        <pt x="626" y="1001" on="1"/>
        <pt x="543" y="678" on="0"/>
        <pt x="543" y="459" on="1"/>
        <pt x="543" y="182" on="0"/>
        <pt x="698" y="182" on="1"/>
        <pt x="760" y="182" on="0"/>
        <pt x="906" y="284" on="0"/>
        <pt x="1039" y="446" on="0"/>
        <pt x="1102" y="545" on="1"/>
        <pt x="1223" y="737" on="0"/>
        <pt x="1286" y="922" on="1"/>
        <pt x="1215" y="933" on="0"/>
        <pt x="1120" y="1007" on="1"/>
        <pt x="1073" y="1044" on="0"/>
        <pt x="1008" y="1170" on="0"/>
        <pt x="1008" y="1291" on="0"/>
        <pt x="1032" y="1382" on="0"/>
        <pt x="1056" y="1424" on="1"/>
        <pt x="1110" y="1518" on="0"/>
        <pt x="1223" y="1518" on="1"/>
        <pt x="1425" y="1518" on="0"/>
        <pt x="1425" y="1022" on="1"/>
        <pt x="1533" y="1037" on="0"/>
        <pt x="1672" y="1114" on="1"/>
        <pt x="1726" y="1143" on="0"/>
        <pt x="1774" y="1180" on="1"/>
        <pt x="1774" y="1065" on="1"/>
        <pt x="1594" y="948" on="0"/>
        <pt x="1413" y="918" on="1"/>
        <pt x="1372" y="726" on="0"/>
        <pt x="1269" y="506" on="1"/>
        <pt x="1163" y="279" on="0"/>
        <pt x="1001" y="116" on="1"/>
        <pt x="922" y="37" on="0"/>
        <pt x="724" y="-57" on="0"/>
        <pt x="522" y="-57" on="0"/>
        <pt x="378" y="24" on="0"/>
        <pt x="338" y="96" on="1"/>
        <pt x="260" y="235" on="0"/>
        <pt x="260" y="644" on="0"/>
        <pt x="365" y="1053" on="0"/>
        <pt x="430" y="1151" on="1"/>
        <pt x="455" y="1188" on="0"/>
        <pt x="514" y="1294" on="0"/>
        <pt x="514" y="1315" on="0"/>
        <pt x="509" y="1315" on="0"/>
        <pt x="500" y="1309" on="1"/>
        <pt x="385" y="1221" on="1"/>
        <pt x="368" y="1211" on="0"/>
        <pt x="297" y="1167" on="1"/>
        <pt x="79" y="1032" on="0"/>
        <pt x="-63" y="946" on="1"/>
        <pt x="-63" y="1057" on="1"/>
        <pt x="47" y="1121" on="0"/>
      </contour>
      <contour>
        <pt x="1296" y="1028" on="1"/>
        <pt x="1298" y="1067" on="1"/>
        <pt x="1298" y="1210" on="0"/>
        <pt x="1247" y="1296" on="1"/>
        <pt x="1221" y="1339" on="0"/>
        <pt x="1188" y="1339" on="1"/>
        <pt x="1133" y="1339" on="0"/>
        <pt x="1133" y="1172" on="0"/>
        <pt x="1228" y="1043" on="0"/>
      </contour>
    </TTGlyph>
    <TTGlyph name="W" xMin="-74" yMin="-57" xMax="2331" yMax="1530">
      <contour>
        <pt x="1884" y="1028" on="1"/>
        <pt x="1886" y="1067" on="1"/>
        <pt x="1886" y="1210" on="0"/>
        <pt x="1835" y="1296" on="1"/>
        <pt x="1809" y="1339" on="0"/>
        <pt x="1776" y="1339" on="1"/>
        <pt x="1720" y="1339" on="0"/>
        <pt x="1720" y="1172" on="0"/>
        <pt x="1816" y="1043" on="0"/>
      </contour>
      <contour>
        <pt x="2003" y="1047" on="1"/>
        <pt x="2003" y="1028" on="1"/>
        <pt x="2003" y="1022" on="1"/>
        <pt x="2101" y="1036" on="0"/>
        <pt x="2235" y="1114" on="1"/>
        <pt x="2286" y="1143" on="0"/>
        <pt x="2331" y="1180" on="1"/>
        <pt x="2331" y="1065" on="1"/>
        <pt x="2158" y="946" on="0"/>
        <pt x="2001" y="918" on="1"/>
        <pt x="1986" y="683" on="0"/>
        <pt x="1832" y="416" on="1"/>
        <pt x="1664" y="128" on="0"/>
        <pt x="1460" y="9" on="1"/>
        <pt x="1346" y="-57" on="0"/>
        <pt x="1235" y="-57" on="1"/>
        <pt x="1099" y="-57" on="0"/>
        <pt x="1012" y="50" on="1"/>
        <pt x="979" y="91" on="0"/>
        <pt x="944" y="185" on="0"/>
        <pt x="938" y="215" on="1"/>
        <pt x="864" y="114" on="0"/>
        <pt x="606" y="-55" on="0"/>
        <pt x="428" y="-55" on="0"/>
        <pt x="299" y="33" on="0"/>
        <pt x="262" y="103" on="1"/>
        <pt x="190" y="242" on="0"/>
        <pt x="190" y="593" on="0"/>
        <pt x="313" y="1006" on="0"/>
        <pt x="420" y="1151" on="1"/>
        <pt x="443" y="1184" on="0"/>
        <pt x="504" y="1295" on="0"/>
        <pt x="504" y="1315" on="0"/>
        <pt x="499" y="1315" on="0"/>
        <pt x="489" y="1309" on="1"/>
        <pt x="375" y="1221" on="1"/>
        <pt x="359" y="1212" on="0"/>
        <pt x="287" y="1167" on="1"/>
        <pt x="95" y="1047" on="0"/>
        <pt x="-74" y="946" on="1"/>
        <pt x="-74" y="1057" on="1"/>
        <pt x="38" y="1121" on="0"/>
        <pt x="247" y="1250" on="1"/>
        <pt x="698" y="1530" on="0"/>
        <pt x="741" y="1530" on="1"/>
        <pt x="768" y="1530" on="0"/>
        <pt x="768" y="1509" on="1"/>
        <pt x="768" y="1470" on="0"/>
        <pt x="666" y="1227" on="1"/>
        <pt x="473" y="765" on="0"/>
        <pt x="473" y="553" on="1"/>
        <pt x="473" y="182" on="0"/>
        <pt x="694" y="182" on="1"/>
        <pt x="746" y="182" on="0"/>
        <pt x="895" y="271" on="0"/>
        <pt x="928" y="326" on="1"/>
        <pt x="920" y="366" on="0"/>
        <pt x="920" y="535" on="0"/>
        <pt x="938" y="719" on="0"/>
        <pt x="983" y="918" on="0"/>
        <pt x="1049" y="1073" on="0"/>
        <pt x="1156" y="1174" on="0"/>
        <pt x="1221" y="1174" on="1"/>
        <pt x="1303" y="1174" on="0"/>
        <pt x="1303" y="1059" on="1"/>
        <pt x="1303" y="913" on="0"/>
        <pt x="1180" y="574" on="1"/>
        <pt x="1153" y="498" on="0"/>
        <pt x="1134" y="450" on="1"/>
        <pt x="1114" y="401" on="1"/>
        <pt x="1114" y="343" on="0"/>
        <pt x="1149" y="300" on="1"/>
        <pt x="1217" y="217" on="0"/>
        <pt x="1352" y="217" on="1"/>
        <pt x="1451" y="217" on="0"/>
        <pt x="1649" y="367" on="0"/>
        <pt x="1787" y="585" on="0"/>
        <pt x="1874" y="828" on="0"/>
        <pt x="1874" y="922" on="1"/>
        <pt x="1816" y="931" on="0"/>
        <pt x="1704" y="1007" on="0"/>
        <pt x="1672" y="1042" on="1"/>
        <pt x="1595" y="1126" on="0"/>
        <pt x="1595" y="1245" on="1"/>
        <pt x="1595" y="1340" on="0"/>
        <pt x="1643" y="1424" on="1"/>
        <pt x="1697" y="1518" on="0"/>
        <pt x="1810" y="1518" on="1"/>
        <pt x="2003" y="1518" on="0"/>
      </contour>
    </TTGlyph>
    <TTGlyph name="X" xMin="-25" yMin="-59" xMax="1667" yMax="1518">
      <contour>
        <pt x="66" y="147" on="1"/>
        <pt x="215" y="135" on="1"/>
        <pt x="283" y="135" on="0"/>
        <pt x="546" y="398" on="0"/>
        <pt x="731" y="625" on="1"/>
        <pt x="617" y="896" on="0"/>
        <pt x="469" y="1204" on="0"/>
        <pt x="452" y="1241" on="0"/>
        <pt x="443" y="1255" on="0"/>
        <pt x="435" y="1266" on="1"/>
        <pt x="421" y="1284" on="0"/>
        <pt x="352" y="1284" on="0"/>
        <pt x="265" y="1229" on="0"/>
        <pt x="224" y="1207" on="0"/>
        <pt x="115" y="1149" on="0"/>
        <pt x="35" y="1102" on="1"/>
        <pt x="35" y="1212" on="1"/>
        <pt x="426" y="1437" on="0"/>
        <pt x="556" y="1518" on="0"/>
        <pt x="594" y="1518" on="1"/>
        <pt x="662" y="1518" on="0"/>
        <pt x="705" y="1427" on="1"/>
        <pt x="728" y="1371" on="0"/>
        <pt x="926" y="868" on="1"/>
        <pt x="1021" y="988" on="0"/>
        <pt x="1063" y="1038" on="1"/>
        <pt x="1241" y="1282" on="0"/>
        <pt x="1381" y="1440" on="0"/>
        <pt x="1464" y="1501" on="1"/>
        <pt x="1490" y="1518" on="0"/>
        <pt x="1569" y="1518" on="0"/>
        <pt x="1622" y="1489" on="0"/>
        <pt x="1622" y="1431" on="0"/>
        <pt x="1545" y="1353" on="0"/>
        <pt x="1435" y="1273" on="0"/>
        <pt x="1274" y="1113" on="0"/>
        <pt x="1210" y="1018" on="1"/>
        <pt x="1115" y="891" on="0"/>
        <pt x="981" y="727" on="1"/>
        <pt x="1087" y="459" on="1"/>
        <pt x="1168" y="277" on="0"/>
        <pt x="1260" y="135" on="0"/>
        <pt x="1307" y="135" on="1"/>
        <pt x="1350" y="135" on="0"/>
        <pt x="1447" y="221" on="0"/>
        <pt x="1505" y="279" on="0"/>
        <pt x="1621" y="397" on="0"/>
        <pt x="1665" y="440" on="1"/>
        <pt x="1667" y="328" on="1"/>
        <pt x="1485" y="135" on="0"/>
        <pt x="1439" y="91" on="1"/>
        <pt x="1285" y="-57" on="0"/>
        <pt x="1093" y="-57" on="0"/>
        <pt x="914" y="179" on="0"/>
        <pt x="805" y="451" on="1"/>
        <pt x="786" y="494" on="1"/>
        <pt x="616" y="292" on="0"/>
        <pt x="455" y="113" on="0"/>
        <pt x="414" y="70" on="0"/>
        <pt x="338" y="5" on="0"/>
        <pt x="304" y="-13" on="1"/>
        <pt x="219" y="-59" on="0"/>
        <pt x="123" y="-59" on="1"/>
        <pt x="15" y="-59" on="0"/>
        <pt x="-13" y="1" on="1"/>
        <pt x="-25" y="27" on="0"/>
        <pt x="-25" y="113" on="0"/>
        <pt x="22" y="147" on="0"/>
      </contour>
    </TTGlyph>
    <TTGlyph name="Y" xMin="152" yMin="-774" xMax="1673" yMax="1518">
      <contour>
        <pt x="1001" y="-139" on="1"/>
        <pt x="723" y="-301" on="1"/>
        <pt x="611" y="-353" on="0"/>
        <pt x="469" y="-482" on="0"/>
        <pt x="469" y="-615" on="0"/>
        <pt x="518" y="-689" on="0"/>
        <pt x="553" y="-694" on="1"/>
        <pt x="619" y="-694" on="0"/>
        <pt x="791" y="-565" on="0"/>
        <pt x="937" y="-361" on="0"/>
        <pt x="965" y="-260" on="1"/>
      </contour>
      <contour>
        <pt x="699" y="1518" on="0"/>
        <pt x="829" y="1518" on="0"/>
        <pt x="829" y="1489" on="1"/>
        <pt x="829" y="1472" on="0"/>
        <pt x="773" y="1285" on="0"/>
        <pt x="730" y="1115" on="0"/>
        <pt x="667" y="912" on="1"/>
        <pt x="524" y="453" on="0"/>
        <pt x="524" y="358" on="1"/>
        <pt x="524" y="321" on="0"/>
        <pt x="572" y="248" on="0"/>
        <pt x="602" y="248" on="1"/>
        <pt x="672" y="248" on="0"/>
        <pt x="860" y="324" on="0"/>
        <pt x="1043" y="450" on="0"/>
        <pt x="1190" y="639" on="0"/>
        <pt x="1214" y="739" on="1"/>
        <pt x="1305" y="1114" on="1"/>
        <pt x="1320" y="1182" on="0"/>
        <pt x="1405" y="1481" on="0"/>
        <pt x="1423" y="1487" on="1"/>
        <pt x="1640" y="1487" on="1"/>
        <pt x="1286" y="86" on="1"/>
        <pt x="1673" y="440" on="1"/>
        <pt x="1673" y="328" on="1"/>
        <pt x="1268" y="-33" on="1"/>
        <pt x="1035" y="-639" on="0"/>
        <pt x="623" y="-750" on="1"/>
        <pt x="536" y="-774" on="0"/>
        <pt x="372" y="-774" on="0"/>
        <pt x="243" y="-730" on="0"/>
        <pt x="152" y="-631" on="0"/>
        <pt x="152" y="-501" on="0"/>
        <pt x="203" y="-473" on="1"/>
        <pt x="1012" y="-41" on="1"/>
        <pt x="1171" y="457" on="1"/>
        <pt x="1008" y="269" on="0"/>
        <pt x="566" y="-18" on="0"/>
        <pt x="438" y="-18" on="1"/>
        <pt x="363" y="-18" on="0"/>
        <pt x="266" y="106" on="0"/>
        <pt x="266" y="248" on="1"/>
        <pt x="266" y="344" on="0"/>
        <pt x="310" y="526" on="0"/>
        <pt x="331" y="614" on="0"/>
        <pt x="386" y="784" on="0"/>
        <pt x="396" y="814" on="1"/>
        <pt x="421" y="895" on="0"/>
        <pt x="477" y="1053" on="1"/>
        <pt x="584" y="1364" on="1"/>
        <pt x="276" y="1151" on="1"/>
        <pt x="266" y="1145" on="1"/>
        <pt x="258" y="1137" on="0"/>
        <pt x="241" y="1137" on="0"/>
        <pt x="221" y="1156" on="0"/>
        <pt x="221" y="1204" on="0"/>
        <pt x="242" y="1219" on="1"/>
        <pt x="653" y="1487" on="1"/>
      </contour>
    </TTGlyph>
    <TTGlyph name="Yacute" xMin="152" yMin="-774" xMax="1673" yMax="1962">
      <component glyphName="Y" x="0" y="0" flags="0x1004"/>
      <component glyphName="acute" x="104" y="713" flags="0x1004"/>
    </TTGlyph>
    <TTGlyph name="Ydieresis" xMin="152" yMin="-774" xMax="1673" yMax="1898">
      <component glyphName="Y" x="0" y="0" flags="0x1004"/>
      <component glyphName="dieresis" x="469" y="678" flags="0x1004"/>
    </TTGlyph>
    <TTGlyph name="Z" xMin="102" yMin="-57" xMax="1503" yMax="1518">
      <contour>
        <pt x="236" y="211" on="1"/>
        <pt x="483" y="322" on="1"/>
        <pt x="643" y="531" on="0"/>
        <pt x="721" y="655" on="1"/>
        <pt x="1167" y="1376" on="1"/>
        <pt x="990" y="1393" on="0"/>
        <pt x="637" y="1393" on="0"/>
        <pt x="360" y="1315" on="0"/>
        <pt x="360" y="1280" on="1"/>
        <pt x="360" y="1154" on="0"/>
        <pt x="422" y="1100" on="1"/>
        <pt x="422" y="1075" on="0"/>
        <pt x="354" y="1061" on="1"/>
        <pt x="236" y="1105" on="0"/>
        <pt x="117" y="1270" on="0"/>
        <pt x="117" y="1370" on="1"/>
        <pt x="117" y="1451" on="0"/>
        <pt x="468" y="1494" on="1"/>
        <pt x="657" y="1518" on="0"/>
        <pt x="1038" y="1518" on="0"/>
        <pt x="1379" y="1483" on="0"/>
        <pt x="1405" y="1481" on="1"/>
        <pt x="1448" y="1384" on="1"/>
        <pt x="1411" y="1327" on="0"/>
        <pt x="1223" y="1004" on="0"/>
        <pt x="1059" y="728" on="0"/>
        <pt x="812" y="381" on="0"/>
        <pt x="698" y="260" on="1"/>
        <pt x="708" y="257" on="0"/>
        <pt x="808" y="226" on="0"/>
        <pt x="873" y="207" on="0"/>
        <pt x="983" y="174" on="0"/>
        <pt x="1064" y="152" on="0"/>
        <pt x="1108" y="141" on="1"/>
        <pt x="1194" y="119" on="0"/>
        <pt x="1264" y="119" on="0"/>
        <pt x="1298" y="135" on="1"/>
        <pt x="1413" y="190" on="0"/>
        <pt x="1503" y="268" on="1"/>
        <pt x="1503" y="168" on="1"/>
        <pt x="1461" y="144" on="0"/>
        <pt x="1259" y="5" on="0"/>
        <pt x="1120" y="-57" on="0"/>
        <pt x="1044" y="-57" on="1"/>
        <pt x="1039" y="-57" on="0"/>
        <pt x="1023" y="-49" on="0"/>
        <pt x="1006" y="-41" on="0"/>
        <pt x="972" y="-26" on="0"/>
        <pt x="928" y="-8" on="0"/>
        <pt x="857" y="19" on="0"/>
        <pt x="814" y="34" on="1"/>
        <pt x="711" y="72" on="0"/>
        <pt x="573" y="117" on="1"/>
        <pt x="478" y="54" on="0"/>
        <pt x="281" y="-29" on="0"/>
        <pt x="211" y="-29" on="1"/>
        <pt x="192" y="-29" on="0"/>
        <pt x="161" y="-16" on="1"/>
        <pt x="102" y="9" on="0"/>
        <pt x="102" y="72" on="1"/>
        <pt x="102" y="152" on="0"/>
      </contour>
    </TTGlyph>
    <TTGlyph name="Zcaron" xMin="102" yMin="-57" xMax="1503" yMax="2085">
      <contour>
        <pt x="236" y="211" on="1"/>
        <pt x="483" y="322" on="1"/>
        <pt x="643" y="531" on="0"/>
        <pt x="721" y="655" on="1"/>
        <pt x="1167" y="1376" on="1"/>
        <pt x="990" y="1393" on="0"/>
        <pt x="637" y="1393" on="0"/>
        <pt x="360" y="1315" on="0"/>
        <pt x="360" y="1280" on="1"/>
        <pt x="360" y="1154" on="0"/>
        <pt x="422" y="1100" on="1"/>
        <pt x="422" y="1075" on="0"/>
        <pt x="354" y="1061" on="1"/>
        <pt x="236" y="1105" on="0"/>
        <pt x="117" y="1270" on="0"/>
        <pt x="117" y="1370" on="1"/>
        <pt x="117" y="1451" on="0"/>
        <pt x="468" y="1494" on="1"/>
        <pt x="657" y="1518" on="0"/>
        <pt x="1038" y="1518" on="0"/>
        <pt x="1379" y="1483" on="0"/>
        <pt x="1405" y="1481" on="1"/>
        <pt x="1448" y="1384" on="1"/>
        <pt x="1411" y="1327" on="0"/>
        <pt x="1223" y="1004" on="0"/>
        <pt x="1059" y="728" on="0"/>
        <pt x="812" y="381" on="0"/>
        <pt x="698" y="260" on="1"/>
        <pt x="708" y="257" on="0"/>
        <pt x="808" y="226" on="0"/>
        <pt x="873" y="207" on="0"/>
        <pt x="983" y="174" on="0"/>
        <pt x="1064" y="152" on="0"/>
        <pt x="1108" y="141" on="1"/>
        <pt x="1194" y="119" on="0"/>
        <pt x="1264" y="119" on="0"/>
        <pt x="1298" y="135" on="1"/>
        <pt x="1413" y="190" on="0"/>
        <pt x="1503" y="268" on="1"/>
        <pt x="1503" y="168" on="1"/>
        <pt x="1461" y="144" on="0"/>
        <pt x="1259" y="5" on="0"/>
        <pt x="1120" y="-57" on="0"/>
        <pt x="1044" y="-57" on="1"/>
        <pt x="1039" y="-57" on="0"/>
        <pt x="1023" y="-49" on="0"/>
        <pt x="1006" y="-41" on="0"/>
        <pt x="972" y="-26" on="0"/>
        <pt x="928" y="-8" on="0"/>
        <pt x="857" y="19" on="0"/>
        <pt x="814" y="34" on="1"/>
        <pt x="711" y="72" on="0"/>
        <pt x="573" y="117" on="1"/>
        <pt x="478" y="54" on="0"/>
        <pt x="281" y="-29" on="0"/>
        <pt x="211" y="-29" on="1"/>
        <pt x="192" y="-29" on="0"/>
        <pt x="161" y="-16" on="1"/>
        <pt x="102" y="9" on="0"/>
        <pt x="102" y="72" on="1"/>
        <pt x="102" y="152" on="0"/>
      </contour>
      <contour>
        <pt x="1274" y="2062" on="1"/>
        <pt x="1194" y="1923" on="0"/>
        <pt x="985" y="1667" on="0"/>
        <pt x="928" y="1667" on="1"/>
        <pt x="903" y="1667" on="0"/>
        <pt x="832" y="1786" on="0"/>
        <pt x="802" y="1863" on="1"/>
        <pt x="749" y="1996" on="0"/>
        <pt x="729" y="2062" on="1"/>
        <pt x="842" y="2085" on="1"/>
        <pt x="912" y="1921" on="0"/>
        <pt x="957" y="1815" on="1"/>
        <pt x="1178" y="2085" on="1"/>
      </contour>
    </TTGlyph>
    <TTGlyph name="a" xMin="-4" yMin="-29" xMax="1051" yMax="840">
      <contour>
        <pt x="150" y="-29" on="1"/>
        <pt x="30" y="-29" on="0"/>
        <pt x="2" y="140" on="1"/>
        <pt x="-4" y="181" on="0"/>
        <pt x="-4" y="225" on="1"/>
        <pt x="-4" y="334" on="0"/>
        <pt x="104" y="556" on="0"/>
        <pt x="281" y="730" on="0"/>
        <pt x="528" y="840" on="0"/>
        <pt x="657" y="840" on="1"/>
        <pt x="720" y="840" on="0"/>
        <pt x="825" y="807" on="1"/>
        <pt x="824" y="800" on="0"/>
        <pt x="786" y="631" on="0"/>
        <pt x="767" y="543" on="1"/>
        <pt x="715" y="302" on="0"/>
        <pt x="715" y="186" on="0"/>
        <pt x="745" y="186" on="1"/>
        <pt x="811" y="186" on="0"/>
        <pt x="1051" y="440" on="1"/>
        <pt x="1051" y="328" on="1"/>
        <pt x="899" y="171" on="0"/>
        <pt x="624" y="-29" on="0"/>
        <pt x="578" y="-29" on="1"/>
        <pt x="502" y="-29" on="0"/>
        <pt x="502" y="102" on="1"/>
        <pt x="502" y="145" on="0"/>
        <pt x="510" y="199" on="1"/>
        <pt x="438" y="105" on="0"/>
        <pt x="247" y="-29" on="0"/>
      </contour>
      <contour>
        <pt x="209" y="281" on="1"/>
        <pt x="209" y="131" on="0"/>
        <pt x="307" y="131" on="1"/>
        <pt x="349" y="131" on="0"/>
        <pt x="472" y="219" on="0"/>
        <pt x="522" y="272" on="1"/>
        <pt x="637" y="764" on="1"/>
        <pt x="529" y="764" on="0"/>
        <pt x="327" y="610" on="0"/>
        <pt x="209" y="386" on="0"/>
      </contour>
    </TTGlyph>
    <TTGlyph name="aacute" xMin="-4" yMin="-29" xMax="1051" yMax="1267">
      <contour>
        <pt x="150" y="-29" on="1"/>
        <pt x="30" y="-29" on="0"/>
        <pt x="2" y="140" on="1"/>
        <pt x="-4" y="181" on="0"/>
        <pt x="-4" y="225" on="1"/>
        <pt x="-4" y="334" on="0"/>
        <pt x="104" y="556" on="0"/>
        <pt x="281" y="730" on="0"/>
        <pt x="528" y="840" on="0"/>
        <pt x="657" y="840" on="1"/>
        <pt x="720" y="840" on="0"/>
        <pt x="825" y="807" on="1"/>
        <pt x="824" y="800" on="0"/>
        <pt x="786" y="631" on="0"/>
        <pt x="767" y="543" on="1"/>
        <pt x="715" y="302" on="0"/>
        <pt x="715" y="186" on="0"/>
        <pt x="745" y="186" on="1"/>
        <pt x="811" y="186" on="0"/>
        <pt x="1051" y="440" on="1"/>
        <pt x="1051" y="328" on="1"/>
        <pt x="899" y="171" on="0"/>
        <pt x="624" y="-29" on="0"/>
        <pt x="578" y="-29" on="1"/>
        <pt x="502" y="-29" on="0"/>
        <pt x="502" y="102" on="1"/>
        <pt x="502" y="145" on="0"/>
        <pt x="510" y="199" on="1"/>
        <pt x="438" y="105" on="0"/>
        <pt x="247" y="-29" on="0"/>
      </contour>
      <contour>
        <pt x="209" y="281" on="1"/>
        <pt x="209" y="131" on="0"/>
        <pt x="307" y="131" on="1"/>
        <pt x="349" y="131" on="0"/>
        <pt x="472" y="219" on="0"/>
        <pt x="522" y="272" on="1"/>
        <pt x="637" y="764" on="1"/>
        <pt x="529" y="764" on="0"/>
        <pt x="327" y="610" on="0"/>
        <pt x="209" y="386" on="0"/>
      </contour>
      <contour>
        <pt x="974" y="1136" on="1"/>
        <pt x="886" y="1101" on="1"/>
        <pt x="775" y="1057" on="0"/>
        <pt x="489" y="958" on="1"/>
        <pt x="466" y="1013" on="1"/>
        <pt x="554" y="1094" on="0"/>
        <pt x="812" y="1263" on="0"/>
        <pt x="886" y="1267" on="1"/>
        <pt x="920" y="1267" on="0"/>
        <pt x="993" y="1195" on="0"/>
        <pt x="993" y="1141" on="0"/>
      </contour>
    </TTGlyph>
    <TTGlyph name="acaron" xMin="-4" yMin="-29" xMax="1051" yMax="1380">
      <component glyphName="a" x="0" y="0" flags="0x1004"/>
      <component glyphName="caron" x="-406" y="18" flags="0x1004"/>
    </TTGlyph>
    <TTGlyph name="acircumflex" xMin="-4" yMin="-29" xMax="1051" yMax="1400">
      <component glyphName="a" x="0" y="0" flags="0x1004"/>
      <component glyphName="circumflex" x="-406" y="18" flags="0x1004"/>
    </TTGlyph>
    <TTGlyph name="acute" xMin="872" yMin="940" xMax="1399" yMax="1249">
      <contour>
        <pt x="1380" y="1118" on="1"/>
        <pt x="1292" y="1083" on="1"/>
        <pt x="1181" y="1039" on="0"/>
        <pt x="895" y="940" on="1"/>
        <pt x="872" y="995" on="1"/>
        <pt x="960" y="1076" on="0"/>
        <pt x="1218" y="1245" on="0"/>
        <pt x="1292" y="1249" on="1"/>
        <pt x="1326" y="1249" on="0"/>
        <pt x="1399" y="1177" on="0"/>
        <pt x="1399" y="1123" on="0"/>
      </contour>
    </TTGlyph>
    <TTGlyph name="adieresis" xMin="-4" yMin="-29" xMax="1063" yMax="1204">
      <component glyphName="a" x="0" y="0" flags="0x1004"/>
      <component glyphName="dieresis" x="-41" y="-16" flags="0x1004"/>
    </TTGlyph>
    <TTGlyph name="ae" xMin="-4" yMin="-29" xMax="1339" yMax="840">
      <contour>
        <pt x="793" y="748" on="1"/>
        <pt x="898" y="840" on="0"/>
        <pt x="1042" y="840" on="1"/>
        <pt x="1128" y="840" on="0"/>
        <pt x="1241" y="752" on="0"/>
        <pt x="1241" y="554" on="0"/>
        <pt x="1058" y="385" on="0"/>
        <pt x="942" y="385" on="1"/>
        <pt x="896" y="385" on="0"/>
        <pt x="796" y="440" on="0"/>
        <pt x="762" y="494" on="1"/>
        <pt x="719" y="405" on="0"/>
        <pt x="719" y="317" on="1"/>
        <pt x="719" y="86" on="0"/>
        <pt x="887" y="86" on="1"/>
        <pt x="931" y="86" on="0"/>
        <pt x="1059" y="170" on="0"/>
        <pt x="1159" y="264" on="0"/>
        <pt x="1309" y="415" on="0"/>
        <pt x="1339" y="442" on="1"/>
        <pt x="1339" y="332" on="1"/>
        <pt x="1230" y="211" on="0"/>
        <pt x="1144" y="136" on="1"/>
        <pt x="955" y="-29" on="0"/>
        <pt x="788" y="-29" on="1"/>
        <pt x="702" y="-29" on="0"/>
        <pt x="572" y="53" on="0"/>
        <pt x="547" y="131" on="1"/>
        <pt x="547" y="129" on="1"/>
        <pt x="492" y="54" on="0"/>
        <pt x="292" y="-29" on="0"/>
        <pt x="106" y="-29" on="0"/>
        <pt x="-4" y="115" on="0"/>
        <pt x="-4" y="336" on="0"/>
        <pt x="113" y="555" on="0"/>
        <pt x="320" y="731" on="0"/>
        <pt x="633" y="840" on="0"/>
        <pt x="813" y="840" on="1"/>
      </contour>
      <contour>
        <pt x="653" y="764" on="1"/>
        <pt x="518" y="734" on="0"/>
        <pt x="313" y="584" on="0"/>
        <pt x="209" y="387" on="0"/>
        <pt x="209" y="281" on="1"/>
        <pt x="209" y="131" on="0"/>
        <pt x="307" y="131" on="1"/>
        <pt x="357" y="131" on="0"/>
        <pt x="487" y="198" on="0"/>
        <pt x="535" y="246" on="1"/>
      </contour>
      <contour>
        <pt x="791" y="569" on="1"/>
        <pt x="867" y="471" on="0"/>
        <pt x="958" y="471" on="1"/>
        <pt x="1016" y="471" on="0"/>
        <pt x="1102" y="585" on="0"/>
        <pt x="1102" y="711" on="0"/>
        <pt x="1054" y="754" on="0"/>
        <pt x="966" y="754" on="0"/>
        <pt x="889" y="714" on="0"/>
        <pt x="862" y="684" on="1"/>
        <pt x="808" y="623" on="0"/>
      </contour>
    </TTGlyph>
    <TTGlyph name="agrave" xMin="-4" yMin="-29" xMax="1051" yMax="1267">
      <component glyphName="a" x="0" y="0" flags="0x1004"/>
      <component glyphName="grave" x="-406" y="18" flags="0x1004"/>
    </TTGlyph>
    <TTGlyph name="ahungarumlaut" xMin="-4" yMin="-29" xMax="1081" yMax="1407">
      <component glyphName="a" x="0" y="0" flags="0x1004"/>
      <component glyphName="hungarumlaut" x="-406" y="18" flags="0x1004"/>
    </TTGlyph>
</ttFont>
